<svg xmlns="http://www.w3.org/2000/svg" fill="none" viewBox="0 0 777 544"><mask id="a" fill="#fff"><path fill-rule="evenodd" d="M0 484V170c0-33 27-60 60-60h125c16 0 29-13 29-29s13-29 29-29h112c14 0 26-12 26-26s12-26 26-26h310c33 0 60 27 60 60v384c0 19-15 34-34 34h-1c-18 0-33 15-33 33s-15 33-33 33H60c-33 0-60-27-60-60Z" clip-rule="evenodd"/></mask><path fill="#EBEBEF" fill-rule="evenodd" d="M0 484V170c0-33 27-60 60-60h125c16 0 29-13 29-29s13-29 29-29h112c14 0 26-12 26-26s12-26 26-26h310c33 0 60 27 60 60v384c0 19-15 34-34 34h-1c-18 0-33 15-33 33s-15 33-33 33H60c-33 0-60-27-60-60Z" clip-rule="evenodd"/><path fill="#EBEBEF" d="M777 60h2-2Zm0 384h-2 2ZM-2 170v314h4V170h-4Zm187-62H60v4h125v-4Zm170-58H243v4h112v-4ZM717-2H407v4h310v-4Zm62 62c0-34-28-62-62-62v4c32 0 58 26 58 58h4Zm0 384V60h-4v384h4Zm-37 36h1v-4h-1v4ZM60 546h616v-4H60v4Zm-62-62c0 34 28 62 62 62v-4c-32 0-58-26-58-58h-4Zm709 27c0 17-14 31-31 31v4c19 0 35-16 35-35h-4Zm35-35c-19 0-35 16-35 35h4c0-17 14-31 31-31v-4Zm33-32c0 18-14 32-32 32v4c20 0 36-16 36-36h-4ZM355 54c15 0 28-13 28-28h-4c0 13-11 24-24 24v4ZM216 81c0-15 12-27 27-27v-4c-17 0-31 14-31 31h4Zm-31 31c17 0 31-14 31-31h-4c0 15-12 27-27 27v4Zm198-86c0-13 11-24 24-24v-4c-15 0-28 13-28 28h4ZM2 170c0-32 26-58 58-58v-4c-34 0-62 28-62 62h4Z" mask="url(#a)"/></svg>