<svg xmlns="http://www.w3.org/2000/svg" fill="none" viewBox="0 0 440 470"><path fill="#EFF1F6" fill-rule="evenodd" d="M134 40c0-22 18-40 40-40h196c39 0 70 31 70 70v254c0 37-30 67-67 67h-27c-22 0-40 18-40 40 0 21-18 39-39 39H70c-39 0-70-31-70-70V146c0-37 30-67 67-67h28c21 0 39-18 39-39Z" clip-rule="evenodd"/><path fill="#238FE1" fill-opacity=".1" fill-rule="evenodd" d="M134 40c0-22 18-40 40-40h196c39 0 70 31 70 70v254c0 37-30 67-67 67h-27c-22 0-40 18-40 40 0 21-18 39-39 39H70c-39 0-70-31-70-70V146c0-37 30-67 67-67h28c21 0 39-18 39-39Z" clip-rule="evenodd"/></svg>