<svg width="31" height="21" fill="none" xmlns="http://www.w3.org/2000/svg"><path fill-rule="evenodd" clip-rule="evenodd" d="M0 20.615V0h9.416c3.024 0 5.476 2.482 5.476 5.543 0 1.945-.591 3.15-2.758 4.386 2.593 1.196 3.313 2.853 3.313 5.165 0 3.127-2.745 5.521-5.834 5.521H0ZM3.984 3.413V8.37h4.664s2.266 0 2.266-2.479c0-2.478-2.266-2.478-2.266-2.478H3.984Zm0 13.71v-5.352h5.002c.808 0 2.501.422 2.501 2.953 0 1.878-1.667 2.382-2.5 2.4H3.983ZM23.966 5.68c-2.866 0-7.112 2.083-7.112 7.62 0 3.372 1.823 7.7 7.294 7.7A7.019 7.019 0 0 0 31 16.122h-4.116c-.209.738-1.016 1.556-2.736 1.556-2.5 0-3.386-2.163-3.517-3.244H31v-1.133c0-5.538-4.168-7.62-7.034-7.62Zm0 3.164c-2.334 0-3.196 1.952-3.335 2.927h6.253c0-.975-.584-2.927-2.918-2.927Z" fill="#fff"/><path d="M18.99 1.171V3.73h9.822V1.17H18.99Z" fill="#fff"/></svg>