<svg width="26" height="18" fill="none" xmlns="http://www.w3.org/2000/svg"><path fill-rule="evenodd" clip-rule="evenodd" d="M0 17.67V0h7.897c2.537 0 4.593 2.127 4.593 4.75 0 1.668-.496 2.7-2.313 3.76 2.175 1.025 2.779 2.446 2.779 4.427 0 2.68-2.302 4.733-4.894 4.733H0ZM3.342 2.925v4.249h3.91s1.902 0 1.902-2.124c0-2.125-1.901-2.125-1.901-2.125H3.342Zm0 11.753V10.09h4.195c.677 0 2.097.361 2.097 2.53 0 1.61-1.398 2.043-2.097 2.058H3.342ZM20.1 4.869c-2.403 0-5.965 1.785-5.965 6.531 0 2.89 1.53 6.6 6.118 6.6 3.671 0 5.361-2.787 5.747-4.181h-3.452c-.175.633-.852 1.333-2.294 1.333-2.098 0-2.841-1.853-2.95-2.78H26V11.4c0-4.746-3.496-6.531-5.9-6.531Zm0 2.712c-1.957 0-2.68 1.672-2.796 2.509h5.244c0-.837-.49-2.51-2.447-2.51Z" fill="#00A483"/><path d="M15.927 1.004v2.192h8.238V1.004h-8.238Z" fill="#00A483"/></svg>