<svg width="21" height="18" fill="none" xmlns="http://www.w3.org/2000/svg"><path d="M2.817 2.35 0 4.872l.975 1.213c.434-.267 1.302-.962 1.689-.962.868 0 1.649 2.324 2.393 4.88C5.726 12.297 6.418 18 9.61 18 13.28 18 21 8.206 21 3.847 21 2.27 20.683 0 17.504 0c-3.407 0-5.083 3.248-5.495 4.872.297-.195 1.104-.325 1.548-.325 1.813 0 1.426 1.856 1.178 2.604-.247.749-2.146 4.394-3.17 4.394-1.253 0-1.994-5.37-2.356-7.698C8.846 1.52 7.907.25 6.474.25c-1.147 0-2.916 1.4-3.657 2.1Z" fill="#00A483"/></svg>