<svg width="224" height="116" fill="none" xmlns="http://www.w3.org/2000/svg"><g clip-path="url(#a)"><path fill-rule="evenodd" clip-rule="evenodd" d="M44.554 76.154c.857 0 1.594-.693 1.594-1.566v-5.484h2.72c.527 0 1.098.03 1.625 0 1.428-.136 2.81-.573 4.014-1.356a8.98 8.98 0 0 0 2.856-3.013 8.743 8.743 0 0 0 1.052-4.143c-.03-1.461-.39-2.892-1.097-4.158a9.12 9.12 0 0 0-2.841-2.983c-1.233-.798-2.616-1.19-4.045-1.325-.526-.03-1.022 0-1.563 0h-4.3c-.857 0-1.563.693-1.563 1.567v20.91c0 .858.691 1.566 1.563 1.566l-.015-.015Zm6.059-20.85c.466.106.932.196 1.353.362a7.05 7.05 0 0 1 1.188.693c.33.301.661.633.962.994.27.362.496.768.691 1.16.166.467.3.904.361 1.356.06.497.06.964 0 1.461-.06.467-.195.934-.36 1.356-.196.407-.437.799-.692 1.19-.301.332-.632.663-.962.965-.361.27-.767.497-1.188.693a5.987 5.987 0 0 1-1.353.361c-.496.06-1.022.03-1.549.03h-2.916V55.23h2.285c.737 0 1.458-.03 2.18.03v.045Zm25.17-2.093c-.556-.467-1.127-.859-1.759-1.13a9.427 9.427 0 0 0-1.187-.437 7.538 7.538 0 0 0-3.443-.03 6.884 6.884 0 0 0-1.984.769c-2.255 1.295-3.638 3.75-3.638 6.342V69.51c0 .392.03.829.105 1.22a7.61 7.61 0 0 0 .631 2.065c.3.632.722 1.19 1.188 1.732.466.497 1.022.964 1.623 1.296a7.406 7.406 0 0 0 1.955.828 7.11 7.11 0 0 0 2.18.166c.721-.03 1.458-.166 2.12-.437a11.12 11.12 0 0 0 1.127-.527c.36-.196.691-.467.992-.723.33-.272.632-.558.902-.904.36-.437.692-.859.932-1.356.496-1.024.797-2.154.797-3.314v-10.65a8.61 8.61 0 0 0-.3-2.2 7.002 7.002 0 0 0-2.226-3.48l-.015-.015Zm-1.488 18.877c-.225.27-.496.497-.767.723-.27.195-.601.406-.932.527-.33.136-.661.226-1.022.301-.36.03-.722.03-1.128 0a5.252 5.252 0 0 1-1.022-.301c-.33-.136-.631-.331-.932-.527a4.686 4.686 0 0 1-.722-.724 4.938 4.938 0 0 1-.556-.934c-.135-.331-.195-.693-.27-1.024-.03-.362-.03-.693-.03-1.055v-9.987c0-.332 0-.633.03-.935.06-.361.105-.738.27-1.07.15-.3.33-.632.556-.933.196-.256.451-.512.722-.723a3.81 3.81 0 0 1 .932-.528c.33-.135.692-.256 1.022-.3a3.982 3.982 0 0 1 1.128 0c.36.044.691.165 1.022.3.33.136.647.317.932.528.286.21.556.452.767.723.225.286.376.617.526.934.15.331.256.693.3 1.07.03.3 0 .632 0 .964v10.982c-.06.361-.164.738-.3 1.07-.165.331-.33.632-.526.934v-.015Zm25.115-2.97a6.696 6.696 0 0 0-.436-2.124c-.135-.362-.3-.769-.526-1.13a6.298 6.298 0 0 0-.736-.965 6.294 6.294 0 0 0-1.594-1.355c-.33-.196-.722-.362-1.128-.528a6.639 6.639 0 0 0-.826-.27 6.602 6.602 0 0 0-1.429-.166c-.225 0-.466 0-.691-.03-.3-.03-.602-.136-.902-.227-.27-.135-.526-.3-.797-.467a3.804 3.804 0 0 1-.631-.663c-.196-.225-.331-.497-.466-.798-.136-.301-.196-.603-.271-.889a6.709 6.709 0 0 1 0-1.1c.06-.33.135-.632.27-.934.136-.27.271-.527.467-.798a5.03 5.03 0 0 1 .631-.633 5.48 5.48 0 0 1 .797-.467c.3-.135.601-.195.932-.27h.466c.225 0 .436 0 .661.03.406.06.827.165 1.233.33.361.166.722.362 1.067.633.226.196.467.392.662.633.601.633 1.624.558 2.225 0 .3-.301.466-.693.466-1.13 0-.437-.165-.798-.466-1.13-1.428-1.566-3.503-2.455-5.638-2.53-.06-.03-.135-.03-.195-.03-.722 0-1.458.135-2.15.36a9.19 9.19 0 0 0-1.127.498c-.361.196-.692.467-.993.693-.556.437-1.022.994-1.398 1.567-.165.271-.3.497-.39.753a5.925 5.925 0 0 0-.436 1.19c-.166.633-.226 1.326-.226 1.989.03.723.165 1.461.436 2.124.135.392.3.768.526 1.13.196.361.466.693.737.994.436.527.992.994 1.593 1.326a6.77 6.77 0 0 0 1.158.557c.3.136.631.196.932.271.436.09.887.136 1.353.136.195 0 .406.03.601.03.331.06.632.136.932.271.271.106.527.271.797.467.226.196.436.407.632.633.195.256.33.527.466.798.135.302.195.603.27.934.03.332.03.693 0 1.025-.06.331-.135.633-.27.934a5.49 5.49 0 0 1-.466.798c-.196.226-.406.467-.632.633a5.63 5.63 0 0 1-.797.497c-.3.09-.631.166-.932.226-.466.03-.962.03-1.458 0-.39-.06-.827-.196-1.233-.331-.36-.196-.721-.407-1.052-.633-.225-.196-.466-.392-.662-.633-.6-.632-1.653-.602-2.255 0a1.66 1.66 0 0 0-.435 1.1c0 .437.165.829.436 1.13 1.097 1.16 2.555 2.034 4.104 2.35.661.136 1.353.196 2.044.196.692 0 1.428-.106 2.09-.332a6.372 6.372 0 0 0 1.864-.934c.33-.27.661-.527.932-.828.3-.271.526-.603.767-.964.406-.558.691-1.22.902-1.898.165-.663.225-1.401.225-2.094l-.03.045Zm11.575-9.986v15.441c0 .86.721 1.597 1.593 1.597s1.549-.723 1.549-1.597V55.23h5.036a1.57 1.57 0 0 0 1.548-1.567c0-.873-.721-1.597-1.548-1.597h-13.455c-.857 0-1.594.739-1.594 1.597 0 .859.737 1.567 1.594 1.567h5.262v3.917l.015-.015Z" fill="#fff"/><path fill-rule="evenodd" clip-rule="evenodd" d="M128.803 76.154c.857 0 1.593-.693 1.593-1.566v-5.484h2.721c.527 0 1.098.03 1.624 0 1.428-.136 2.811-.573 4.014-1.356a8.969 8.969 0 0 0 2.856-3.013 8.738 8.738 0 0 0 1.053-4.143 9.062 9.062 0 0 0-1.098-4.158 9.013 9.013 0 0 0-2.856-2.983c-1.233-.798-2.616-1.19-4.044-1.325-.526-.03-1.022 0-1.564 0h-4.314c-.857 0-1.549.693-1.549 1.567v20.91c0 .858.692 1.566 1.549 1.566l.015-.015Zm6.058-20.85c.466.106.932.196 1.353.362a7.03 7.03 0 0 1 1.188.693c.331.301.661.633.962.994.271.362.496.768.692 1.16.165.467.3.904.36 1.356.061.497.061.964 0 1.461-.06.467-.195.934-.36 1.356-.196.407-.436.799-.692 1.19-.301.332-.631.663-.962.965a6.636 6.636 0 0 1-1.188.693 6.205 6.205 0 0 1-1.353.361c-.496.06-1.022.03-1.548.03h-2.917V55.23h2.285c.737 0 1.459-.03 2.18.03v.045Zm28.128 7.58c.225-.663.36-1.401.435-2.124a9.695 9.695 0 0 0-.165-2.185 7.353 7.353 0 0 0-.721-1.989c-.301-.632-.737-1.19-1.158-1.717-.466-.527-1.022-.964-1.594-1.356-.601-.407-1.232-.693-1.894-.934-.902-.301-1.849-.392-2.781-.392h-4.766c-.857 0-1.593.724-1.593 1.597 0 1.19 0 2.426-.03 3.616v17.22c0 .828.691 1.566 1.548 1.566.857 0 1.594-.738 1.594-1.567v-6.222h3.442c.527 0 1.098-.06 1.624-.165.105 0 .195-.03.301-.06.24.557.496 1.13.736 1.702.662 1.461 1.293 2.968 1.955 4.459.135.331.3.693.436 1.04.165.361.601.632.962.738.391.105.827.03 1.187-.166.361-.196.632-.557.737-.934.03-.166.03-.301.06-.437 0-.301-.06-.573-.225-.798-.391-.934-.797-1.868-1.188-2.802-.601-1.371-1.188-2.742-1.789-4.128.196-.136.406-.302.601-.467 1.068-.904 1.819-2.125 2.316-3.45l-.03-.045Zm-2.752-1.959c-.06.437-.195.859-.33 1.266a6.676 6.676 0 0 1-.662 1.1c-.27.33-.556.632-.902.888a4.172 4.172 0 0 1-1.097.633 5.243 5.243 0 0 1-1.233.362c-.526.03-1.097.03-1.624.03h-2.555v-5.017c0-1.07 0-2.094.03-3.164v-1.717h2.345c.601 0 1.188 0 1.789.03.406.06.827.196 1.233.362.406.165.766.361 1.097.632.331.272.632.558.902.904.271.332.466.693.662 1.1.135.407.27.829.33 1.265.03.437.03.89 0 1.326h.015Z" fill="#00A483"/><path fill-rule="evenodd" clip-rule="evenodd" d="M200.483 52.32c-.601-.361-1.398-.226-1.879.272a91.412 91.412 0 0 0-2.09 2.064l-3.472 3.48-1.098 1.1a1.604 1.604 0 0 0 0 2.229 1.595 1.595 0 0 0 2.225 0l2.09-2.094 1.894-1.898v17.129c0 .858.722 1.566 1.594 1.566.872 0 1.548-.693 1.548-1.567v-20.91c0-.557-.301-1.054-.797-1.355l-.015-.015Zm19.168 10.622c1.217-1.16 1.984-2.787 1.984-4.58 0-3.45-2.751-6.237-6.194-6.237s-6.194 2.787-6.194 6.237a6.16 6.16 0 0 0 1.759 4.339c-1.924 1.325-3.217 3.555-3.217 6.086 0 4.067 3.307 7.351 7.382 7.351a7.338 7.338 0 0 0 7.351-7.351c0-2.38-1.128-4.535-2.887-5.86l.016.015Zm-6.36-6.764a3.06 3.06 0 0 1 2.15-.89 3.03 3.03 0 0 1 2.15.89c.601.602.932 1.355.932 2.199 0 .844-.331 1.597-.932 2.154a2.984 2.984 0 0 1-2.15.904 2.986 2.986 0 0 1-2.15-.904c-.601-.572-.887-1.356-.887-2.154 0-.799.301-1.597.887-2.2Zm4.871 15.607a4.153 4.153 0 0 1-2.976 1.22c-1.128 0-2.225-.422-3.007-1.22a4.185 4.185 0 0 1-1.233-2.983c0-1.13.436-2.184 1.233-3.013.797-.799 1.849-1.22 3.007-1.22 1.157 0 2.179.421 2.976 1.22a4.293 4.293 0 0 1 1.218 3.013c0 1.13-.436 2.184-1.218 2.983Z" fill="#fff"/><path fill-rule="evenodd" clip-rule="evenodd" d="M14.151 66.966 11.235 94.94l-.707 18.5 3.127-18.244 3.052-29.21c-.752.451-1.684.783-2.556.994v-.015Z" fill="#5C5D60"/><path fill-rule="evenodd" clip-rule="evenodd" d="M182.165 53.211c-.556-.467-1.127-.859-1.759-1.13-.406-.166-.797-.331-1.187-.437a7.536 7.536 0 0 0-3.443-.03 6.89 6.89 0 0 0-1.985.769c-2.255 1.295-3.638 3.75-3.638 6.342V69.51c0 .392.03.829.106 1.22a7.61 7.61 0 0 0 .631 2.065c.301.632.722 1.19 1.188 1.732.466.497 1.022.964 1.623 1.296a7.413 7.413 0 0 0 1.955.828c.721.166 1.458.226 2.179.166.722-.03 1.459-.166 2.12-.437a11.14 11.14 0 0 0 1.128-.527c.361-.196.691-.467.992-.723a5.7 5.7 0 0 0 .902-.904c.361-.437.692-.859.932-1.356.496-1.024.797-2.154.797-3.314v-10.65c0-.723-.105-1.462-.301-2.2a7 7 0 0 0-2.225-3.48l-.015-.015Zm-1.488 18.877c-.226.27-.496.497-.767.723-.27.195-.601.406-.932.527a5.718 5.718 0 0 1-1.022.301 7.05 7.05 0 0 1-1.128 0 5.252 5.252 0 0 1-1.022-.301c-.331-.136-.631-.331-.932-.527a4.693 4.693 0 0 1-.722-.724 5.895 5.895 0 0 1-.556-.934c-.135-.331-.195-.693-.271-1.024-.03-.362-.03-.693-.03-1.055v-9.987c0-.332 0-.633.03-.935.061-.361.106-.738.271-1.07.15-.3.331-.632.556-.933a4.11 4.11 0 0 1 .722-.723c.285-.226.601-.392.932-.528.331-.135.691-.256 1.022-.3a3.982 3.982 0 0 1 1.128 0c.361.044.691.165 1.022.3.331.136.646.317.932.528.286.21.556.452.767.723.225.286.391.617.526.934.15.331.256.693.301 1.07.03.3 0 .632 0 .964v10.982a5.16 5.16 0 0 1-.301 1.07 9.36 9.36 0 0 1-.526.934v-.015ZM14.184 59.297c8.434-1.16 15.936 2.726 16.748 8.662.812 5.95-5.367 11.705-13.816 12.865C8.682 81.984 1.18 78.098.369 72.147c-.812-5.95 5.367-11.69 13.815-12.85Z" fill="#00A483"/><path fill-rule="evenodd" clip-rule="evenodd" d="m16.594 43.63-1.338 12.88-.436 4.143c-.135 1.461 2.27 1.476 2.405.422l.451-4.324 1.474-14.13c-.752.451-1.684.782-2.556.993v.016Z" fill="#5C5D60"/><path fill-rule="evenodd" clip-rule="evenodd" d="M15.689 34.981c7.892.83 13.8 6.343 13.17 12.309-.617 5.965-7.533 10.123-15.425 9.31C5.54 55.77-.367 50.257.249 44.292c.632-5.966 7.532-10.124 15.44-9.31Z" fill="#00A483"/><path fill-rule="evenodd" clip-rule="evenodd" d="M24.636 64.373c1.579-.211 3.127 1.551 3.458 3.931.33 2.38-.692 4.505-2.285 4.716-1.579.21-3.127-1.537-3.458-3.932-.33-2.395.692-4.504 2.27-4.715h.015ZM6.733 40.51c1.864.197 3.172 2.306 2.917 4.701-.256 2.395-1.97 4.188-3.819 3.992-1.864-.196-3.172-2.305-2.916-4.7.255-2.395 1.954-4.188 3.818-3.992Z" fill="#000"/><path fill-rule="evenodd" clip-rule="evenodd" d="m22.376-.135-3.383 20.73-1.743 16.752c-.136 1.461 2.3 1.461 2.405.392l1.759-16.888.962-20.986Z" fill="#5C5D60"/><path d="M166.231 88.357c1.534 0 2.511.361 2.511.361 0 .287-.09.573-.271.769 0 0-.947-.286-2.104-.286-1.549 0-2.285.647-2.285 1.732 0 1.205 1.127 1.476 2.435 1.853 1.278.392 2.586.904 2.586 2.697 0 1.702-1.158 2.681-3.232 2.681-1.684 0-2.767-.527-2.767-.527 0-.271.091-.573.256-.784 0 0 1.203.407 2.451.407 1.503 0 2.3-.617 2.3-1.762s-.917-1.507-1.97-1.808c-1.398-.437-3.037-.784-3.037-2.712 0-1.597 1.083-2.636 3.143-2.636l-.016.015Zm13.53.135s.09.166.09.422-.09.437-.09.437h-2.586v8.617s-.166.075-.496.075c-.346 0-.481-.075-.481-.075v-8.617h-2.646s-.075-.18-.075-.437c0-.256.075-.422.075-.422h6.209Zm11.437 6.448c0 2.079-1.292 3.254-3.232 3.254-1.939 0-3.217-1.19-3.217-3.254v-6.358s.165-.075.496-.075c.331 0 .496.075.496.075v6.508c0 1.431.827 2.275 2.27 2.275 1.444 0 2.24-.844 2.24-2.275v-6.508s.151-.075.481-.075c.331 0 .481.075.481.075v6.358h-.015Zm8.546-6.448c2.495 0 3.848 1.19 3.848 4.775 0 3.586-1.368 4.776-3.848 4.776h-2.766v-9.566h2.766v.015Zm-.075 8.722c1.819 0 2.886-.753 2.886-3.947s-1.067-3.947-2.886-3.947h-1.714v7.88h1.714v.014Zm9.382-8.632s.15-.075.481-.075c.331 0 .496.075.496.075v9.4s-.165.076-.496.076c-.346 0-.481-.075-.481-.075v-9.4Zm10.05-.226c2.255 0 3.638 1.476 3.638 4.91 0 3.435-1.383 4.912-3.638 4.912s-3.638-1.477-3.638-4.911c0-3.435 1.398-4.911 3.638-4.911Zm0 .813c-1.594 0-2.616 1.024-2.616 4.098 0 3.073 1.022 4.082 2.616 4.082s2.616-1.024 2.616-4.082-1.022-4.098-2.616-4.098Z" fill="#fff"/></g><defs><clipPath id="a"><path fill="#fff" d="M0 0h224v116H0z"/></clipPath></defs></svg>