<svg width="149" height="22" fill="none" xmlns="http://www.w3.org/2000/svg"><path fill-rule="evenodd" clip-rule="evenodd" d="M3.99 3.817c7.851-3.394 19.66 7.647 25.37-2.094C16.902 5.087 10.51-5.225 3.99 3.817Zm-2.173 7.838c7.85-3.363 19.692 7.678 25.369-2.094C14.762 12.956 8.37 2.644 1.817 11.655ZM0 19.935c7.819-3.362 19.66 7.679 25.336-2.093C12.912 21.237 6.52 10.925 0 19.936Zm40.26-7.582a7.517 7.517 0 0 0-3.374-1.333c-.227-.032-.454-.032-.681-.064h-1.2c-.13 0-.227 0-.324.032h-.227l.227-.793 1.881-6.409h1.039c.227 0 .52.031.876.063.324.032.68.064 1.038.16.616.158 1.167.507 1.687 1.015.487.475.811 1.269.94 2.348h.585l1.394-4.633H30.333l-.227.698h.324c.454 0 .876.064 1.232.191.357.127.552.412.552.857 0 .064-.033.159-.033.254a1.55 1.55 0 0 0-.064.38c0 .064-.033.096-.033.096v.063c-.065.127-.065.222-.097.318a.266.266 0 0 1-.065.19l-3.764 12.85c-.194.73-.486 1.3-.811 1.713-.357.444-.973.634-1.914.634h-.52l-.194.73h9.96c1.882-.063 3.471-.57 4.899-1.49 1.46-.953 2.206-2.412 2.206-4.316 0-1.65-.486-2.824-1.525-3.554Zm-4.088 6.916c-.487.412-.973.73-1.492.953a4.569 4.569 0 0 1-1.947.412h-.26c-.097 0-.195 0-.26-.031h-.291a1.016 1.016 0 0 0-.26-.064l2.466-8.472c.064-.032.161-.032.26-.032h.389c.713.032 1.395.222 2.01.635.617.38.91 1.174.91 2.316 0 1.968-.52 3.396-1.525 4.283Zm112.505 1.714a1.37 1.37 0 0 1-.813-.254c-.225-.158-.323-.602-.323-1.364v-.381c0-.095 0-.222.033-.38l1.232-16.245h-.714L135.7 18.255c-.843 1.079-1.524 1.777-2.043 2.126-.421.285-.811.475-1.136.538-.486-.095-.843-.316-1.103-.634a7.828 7.828 0 0 1-.811-1.428c0-.032-3.959-8.757-3.959-8.757l4.996-4.6c.876-.857 1.623-1.396 2.206-1.65.585-.285 1.136-.412 1.557-.412h.098l.195-.698h-6.359l-.194.698h.194c.292 0 .487.064.585.19.161.128.227.287.29.445.033.064.066.127.066.19 0 .064.032.128.032.191 0 .254-.098.508-.227.762-.161.222-.292.412-.454.571-.098.095-.161.19-.227.254-.098.063-.161.095-.227.159l-5.579 5.171h-.098l1.655-5.583c.227-.857.519-1.428.876-1.809.356-.349.941-.539 1.816-.539l.195-.698h-8.565l-.194.698h.292c.713 0 1.201.095 1.428.286.258.159.356.444.356.762 0 .222-.033.412-.065.634a83.68 83.68 0 0 1-.195.667l-3.763 12.85c-.26.825-.552 1.427-.909 1.808-.161.19-.388.317-.681.412-.324.095-.68.127-1.103.127h-.519l-.227.73h8.921l.196-.73h-.163c-.681 0-1.136-.095-1.394-.254a.977.977 0 0 1-.358-.794c0-.19.033-.412.066-.634.065-.19.129-.412.194-.666l1.849-6.218h.064l2.887 6.473c.065.159.131.317.163.444.033.158.033.286.033.412 0 .38-.098.698-.325.92-.227.223-.552.318-.974.318h-.226l-.259.73h13.203l.227-.73h-.358c-.388 0-.681-.095-.843-.19-.194-.16-.292-.286-.356-.445 0-.095-.033-.158-.033-.221 0-.064-.032-.127-.032-.191 0-.095.065-.222.129-.38.065-.16.13-.317.259-.476.033-.063.066-.095.098-.159.031-.063.064-.095.097-.158.098-.127.161-.222.259-.35.066-.094.129-.19.195-.253l1.687-2.19h4.671l-.194 2.54a5.516 5.516 0 0 1-.358 1.68c-.161.381-.486.634-1.037.73-.214.039-.431.06-.649.064h-.161l-.227.73h7.623l.227-.73h-.323v-.005Zm-4.834-6.092h-3.894l4.347-5.616h.097l-.55 5.616Zm-33.188 5.902c-.356-.127-.551-.412-.551-.858 0-.095.033-.254.065-.444.033-.19.097-.475.227-.857l3.764-12.85c.227-.856.519-1.427.908-1.808.162-.159.389-.285.681-.38a3.676 3.676 0 0 1 1.103-.16h.52l.194-.698h-8.857l-.258.698h.161c.583 0 1.038.064 1.331.254.292.126.421.412.421.793v.16c0 .095-.033.19-.033.253-.032.096-.032.159-.065.254v.159l-9.83 10.756h-.129l3.016-10.28c.227-.697.487-1.268.813-1.713.356-.412.972-.634 1.913-.634h.325l.194-.698h-8.857l-.26.698h.358c.68 0 1.136.095 1.395.286.227.159.356.444.356.762 0 .222-.032.412-.098.634a4.737 4.737 0 0 1-.161.666l-3.763 12.85c-.227.825-.52 1.428-.91 1.809-.096.095-.194.158-.324.253-.389.19-.875.285-1.46.285h-.551l-.194.73h8.889l.227-.73h-.13c-.485 0-.909-.063-1.265-.19-.358-.127-.52-.412-.52-.857 0-.063 0-.158.033-.254 0-.094.033-.221.066-.348v-.064c.032-.063.032-.095.032-.095 0-.095.031-.158.031-.222.033-.063.066-.095.066-.158l9.894-11.042h.098l-3.146 10.883c-.26.825-.585 1.428-.942 1.809-.388.348-.974.538-1.784.538h-.357l-.195.73h8.89l.227-.73h-.325a3.763 3.763 0 0 1-1.233-.19Zm-16.35-14.66c.08.409.124.822.13 1.238v.73h.583l1.46-5.363h-14.37l-1.655 5.363h.585c.517-1.08 1.297-2.031 2.335-2.888 1.04-.889 2.271-1.333 3.633-1.428L82.66 18.633c-.032.032-.032.064-.064.127 0 .032 0 .063-.033.095-.194.666-.454 1.175-.78 1.555-.29.381-.972.571-1.945.571h-.714l-.227.73h9.83l.196-.73h-.681c-.487 0-.942-.095-1.3-.19-.355-.127-.517-.412-.517-.858 0-.03 0-.126.033-.253 0-.127.03-.222.063-.38 0-.033 0-.064.033-.064v-.095c.033-.127.065-.222.065-.317.033-.095.033-.159.064-.19l4.347-14.85h.194c.843 0 1.59.285 2.24.857.388.35.679.857.84 1.492ZM79.999 3.438h.519l.227-.698H65.53l-.26.698h.422c.552 0 1.006.159 1.33.444.357.317.52.73.52 1.269 0 .222-.033.413-.098.635-.065.222-.162.444-.227.666 0 .064-.032.127-.032.159-.033.095-.066.127-.066.19l-.746 2.633c-.194.571-.39 1.27-.616 2.031-.227.762-.486 1.523-.747 2.348-.194.508-.356 1.048-.55 1.523-.196.507-.358.983-.553 1.46-.194.443-.357.856-.518 1.237-.195.38-.357.73-.552.984-.065.158-.162.253-.227.38-.097.127-.162.254-.26.349a3.103 3.103 0 0 1-.486.444c-.162.127-.324.159-.519.159s-.357-.064-.39-.222a1.572 1.572 0 0 1-.096-.54v-.317c0-.031-.033-.063-.033-.095v-.031c0-.032 0-.032-.033-.064-.032-.254-.194-.507-.454-.762-.26-.221-.616-.349-1.103-.349-.486 0-.908.16-1.265.476-.357.35-.551.794-.551 1.365 0 .444.13.825.324 1.174-.292-.032-.52-.095-.746-.254-.227-.158-.325-.602-.325-1.364v-.381c0-.095 0-.222.032-.38L57.937 2.36h-.713L44.8 18.255c-.844 1.079-1.525 1.777-2.043 2.126-.033.03-.065.063-.13.094-.454.286-.876.444-1.233.508l-.227.73h5.742l.227-.73h-.356c-.422 0-.714-.095-.876-.19-.162-.16-.292-.286-.325-.444-.033-.095-.033-.16-.033-.222-.032-.064-.032-.127-.032-.191 0-.095.032-.222.097-.38.074-.166.16-.325.26-.476.064-.063.097-.095.097-.158a.572.572 0 0 0 .13-.16c.065-.126.162-.221.259-.348.065-.095.13-.19.195-.253l1.687-2.19h4.703l-.227 2.539a5.545 5.545 0 0 1-.356 1.68c-.163.381-.487.635-1.038.73a4.06 4.06 0 0 1-.65.064h-.16l-.228.73h7.623l.13-.38c0 .031.032.031.065.063.421.412 1.006.603 1.751.603 1.103 0 2.076-.318 2.823-.92.745-.572 1.46-1.619 2.14-3.141.422-.952.877-2.159 1.363-3.522.454-1.428.94-3.078 1.525-4.982l1.622-5.647h4.508L69.52 18.636c-.26.825-.551 1.428-.909 1.809-.356.348-.94.538-1.816.538h-.52l-.194.73h9.083l.195-.73h-.324c-.681 0-1.135-.095-1.395-.253-.227-.19-.357-.444-.357-.794 0-.19.033-.412.066-.634.065-.19.13-.412.195-.666l3.763-12.85c.26-.857.552-1.428.909-1.81.325-.316.876-.507 1.622-.538H80ZM52.977 14.891h-3.893l4.347-5.616h.097l-.551 5.616Z" fill="#fff"/></svg>