<svg width="103" height="33" fill="none" xmlns="http://www.w3.org/2000/svg"><g clip-path="url(#a)" fill="#fff"><path d="M50.339 32.977c-4.91-.182-9.953-1.4-15.11-3.651-2.098-.916-4.317-2.05-6.576-3.362-1.49-.865-4.899-2.99-5.088-3.17a.474.474 0 0 1-.167-.381c0-.295.209-.506.5-.505.15 0 .187.016.543.24 1.428.902 3.405 1.924 5.33 2.756 8.97 3.874 19.595 5.234 29.795 3.814 6.966-.97 13.662-3.239 18.885-6.4.753-.456.823-.48 1.049-.361.311.163.38.564.136.809-.095.096-.213.173-1.927 1.256-4.572 2.89-8.264 4.798-12.108 6.258-5.17 1.964-10.35 2.88-15.262 2.697Z"/><path fill-rule="evenodd" clip-rule="evenodd" d="M0 .51S.097.82.19 1.7c.112 2.193.118 4.01.131 6.037.026 1.565.01 3.09-.002 4.559-.01.995-.016 1.537-.016 2.44 0 2.691-.21 4.577-.21 4.577s1.954.428 4.904.428 6.08-1.039 7.887-2.599c1.806-1.559 3.432-3.791 3.432-7.796 0-4.005-1.686-6.206-3.913-7.643C10.175.265 6.773-.01 4.154.113 1.535.235.091.51 0 .51Zm102.588 15.073-3.94-.947c-1.034 1.039-2.152 1.555-3.586 1.528-2.954-.055-4.421-1.823-4.967-4.74h12.702c.181-1.039.24-2.14.181-3.179-.121-2.1-.756-4.032-2.047-5.686C99.652.92 97.453.06 94.734.082c-2.553.02-4.64.908-6.291 2.69-1.553 1.676-2.482 4.23-2.44 7.552.043 3.157.833 5.507 2.77 7.43 1.349 1.338 3.162 2.053 5.54 2.048 4.53-.139 6.413-1.622 8.275-4.219Zm-3.226-7.399h-9.118c.16-2.395 2.32-4.626 4.608-4.615 2.367.011 4.401 1.731 4.51 4.615ZM59.377 3.707c3.016 0 5.461 2.772 5.461 6.191 0 3.42-2.445 6.192-5.46 6.192s-5.461-2.773-5.461-6.192 2.446-6.191 5.46-6.191ZM59.495 0c5.06 0 9.163 4.465 9.163 9.898s-4.22 9.839-9.28 9.839-9.164-4.406-9.164-9.839c0-5.433 4.221-9.898 9.28-9.898Zm9.957 19.069h4.09V6.502c3.744 3.333 6.502 7.522 8.157 12.567l3.514.021V.632h-3.917l-.004 9.043c-1.226-2.083-2.728-3.796-4.204-5.273-1.48-1.479-2.68-2.732-4.177-3.77h-3.459V19.07Zm-35.737 0h3.974V6.502c3.742 3.333 6.442 7.522 8.098 12.567h3.552V.632h-3.974v8.896c-2.31-3.379-5.106-6.414-8.308-8.896h-3.342V19.07ZM22.367.632h3.853c3.741 4.204 6.032 10.32 6.803 18.437h-4.185a40.547 40.547 0 0 0-.508-4.007h-8.26a39.54 39.54 0 0 0-.503 4.007h-4.064c.733-8.166 3.189-14.485 6.864-18.437Zm5.192 10.977c-.898-2.914-1.968-5.311-3.415-7.522-1.438 2.22-2.563 4.722-3.358 7.522h6.773ZM4.19 3.72s.808-.03 1.802-.03c.993 0 3.164.183 4.759 1.773 1.595 1.59 1.625 3.394 1.625 4.648 0 1.253-.424 3.974-3.043 5.197-2.619 1.223-5.173.765-5.173.765L4.19 3.72Z"/></g><defs><clipPath id="a"><path fill="#fff" d="M0 0h103v33H0z"/></clipPath></defs></svg>