<svg width="36" height="23" fill="none" xmlns="http://www.w3.org/2000/svg"><path d="M10.662 0c1.079 0 2.063.097 2.951.29.889.193 1.65.51 2.285.95a4.404 4.404 0 0 1 1.476 1.756c.349.73.523 1.632.523 2.706 0 1.16-.26 2.126-.777 2.899-.519.773-1.286 1.406-2.3 1.9 1.395.409 2.437 1.123 3.125 2.143.687 1.02 1.031 2.25 1.031 3.688 0 1.16-.222 2.164-.666 3.012a5.833 5.833 0 0 1-1.793 2.077 7.886 7.886 0 0 1-2.57 1.193A11.44 11.44 0 0 1 10.98 23H0V0h10.662Zm-.635 9.31c.889 0 1.619-.215 2.19-.645.571-.429.857-1.127.857-2.093 0-.537-.095-.978-.286-1.321a2.129 2.129 0 0 0-.761-.805 3.188 3.188 0 0 0-1.095-.403 7.178 7.178 0 0 0-1.285-.113H4.982v5.38h5.045Zm.286 9.76c.486 0 .952-.049 1.396-.145a3.4 3.4 0 0 0 1.174-.483 2.42 2.42 0 0 0 .81-.919c.2-.386.3-.88.3-1.481 0-1.181-.327-2.024-.983-2.529-.656-.505-1.523-.757-2.602-.757H4.982v6.314h5.331Zm14.933-.483c.677.666 1.65.998 2.92.998.909 0 1.692-.23 2.347-.692.656-.461 1.058-.95 1.206-1.466h3.967c-.635 1.997-1.608 3.426-2.92 4.284-1.311.86-2.898 1.289-4.76 1.289-1.29 0-2.454-.21-3.49-.628a7.241 7.241 0 0 1-2.634-1.788c-.72-.773-1.275-1.696-1.666-2.77-.392-1.073-.587-2.255-.587-3.543 0-1.246.2-2.405.603-3.48a8.17 8.17 0 0 1 1.714-2.786 8.062 8.062 0 0 1 2.65-1.852c1.025-.451 2.162-.676 3.41-.676 1.397 0 2.613.273 3.65.821a7.326 7.326 0 0 1 2.555 2.207 9.148 9.148 0 0 1 1.444 3.156c.296 1.182.401 2.416.317 3.705H24.136c.063 1.481.433 2.556 1.11 3.22Zm5.093-8.762c-.54-.6-1.36-.902-2.46-.902-.719 0-1.316.124-1.792.37-.476.248-.857.553-1.142.919a3.384 3.384 0 0 0-.603 1.16 5.305 5.305 0 0 0-.207 1.095h7.33c-.211-1.16-.586-2.04-1.126-2.642Zm-6.973-8.657h9.158v2.578h-9.158V1.168Z" fill="url(#a)" fill-opacity=".61"/><defs><linearGradient id="a" x1="5.063" y1="0" x2="26.03" y2="27.027" gradientUnits="userSpaceOnUse"><stop stop-color="#0EA885"/><stop offset=".837" stop-color="#A142FF"/></linearGradient></defs></svg>