<svg width="34" height="27" fill="none" xmlns="http://www.w3.org/2000/svg"><path fill-rule="evenodd" clip-rule="evenodd" d="M0 20.25V6c0-2.1 0-3.15.409-3.953A3.748 3.748 0 0 1 2.047.41C2.85 0 3.9 0 6 0h21.75c2.1 0 3.15 0 3.951.409.706.36 1.281.933 1.64 1.638.409.801.409 1.851.409 3.947v14.263c0 2.096 0 3.144-.408 3.945a3.755 3.755 0 0 1-1.64 1.64c-.802.408-1.85.408-3.946.408H5.994c-2.096 0-3.145 0-3.947-.408a3.75 3.75 0 0 1-1.638-1.64C0 23.4 0 22.351 0 20.25ZM32.466 2.681a1 1 0 0 0-1.182-1.612 599.2 599.2 0 0 0-7.28 5.463 1317.659 1317.659 0 0 0-3.865 2.95l-.24.183-.063.048-.012.01c-1.338.98-1.795 1.294-2.26 1.414a2.755 2.755 0 0 1-1.378 0c-.464-.12-.919-.431-2.248-1.406l-.008-.006L2.478 1.077a1 1 0 1 0-1.206 1.596l11.44 8.638a.99.99 0 0 0 .027.022l.16.117c1.115.819 1.9 1.394 2.786 1.623.78.202 1.6.202 2.38 0 .887-.229 1.672-.806 2.79-1.626l.16-.118.017-.013-.608-.793.608.793h.002l.004-.004.015-.012.063-.048.24-.183a1342.432 1342.432 0 0 1 3.859-2.945 595.809 595.809 0 0 1 7.251-5.443Z" fill="url(#a)" fill-opacity=".61"/><defs><linearGradient id="a" x1="4.746" y1="0" x2="29.411" y2="26.116" gradientUnits="userSpaceOnUse"><stop stop-color="#0EA885"/><stop offset=".837" stop-color="#A142FF"/></linearGradient></defs></svg>