<svg width="28" height="36" fill="none" xmlns="http://www.w3.org/2000/svg"><path fill-rule="evenodd" clip-rule="evenodd" d="m26.126 8.126-6.251-6.251C19.184 1.184 18.837.837 18.434.59a4.025 4.025 0 0 0-1.158-.48c-.345-.082-.704-.103-1.275-.108H16V0h-.65c.244 0 .46 0 .65.002V7a4 4 0 0 0 4 4h7.942c.04.27.052.578.056 1 .002.191.002.406.002.651V11h-.058a3.107 3.107 0 0 0-.053-.277 4.002 4.002 0 0 0-.48-1.157c-.247-.403-.591-.748-1.283-1.44ZM28 13h-8a6 6 0 0 1-6-6V0H6.4C4.16 0 3.04 0 2.184.436A3.998 3.998 0 0 0 .436 2.184C0 3.039 0 4.16 0 6.4v23.2c0 2.24 0 3.36.436 4.216a4 4 0 0 0 1.748 1.748C3.038 36 4.158 36 6.394 36h15.212c2.236 0 3.354 0 4.209-.436a4.005 4.005 0 0 0 1.75-1.748C28 32.96 28 31.843 28 29.607V13ZM7.89 26.625a1 1 0 1 0 0 2h11.84a1 1 0 1 0 0-2H7.89Zm-1-4.92a1 1 0 0 1 1-1h11.84a1 1 0 1 1 0 2H7.89a1 1 0 0 1-1-1Z" fill="url(#a)" fill-opacity=".61"/><defs><linearGradient id="a" x1="3.938" y1="0" x2="34.714" y2="19.713" gradientUnits="userSpaceOnUse"><stop stop-color="#0EA885"/><stop offset=".837" stop-color="#A142FF"/></linearGradient></defs></svg>