<svg width="48" height="48" fill="none" xmlns="http://www.w3.org/2000/svg"><path fill-rule="evenodd" clip-rule="evenodd" d="M22.246 40.65C18.49 37.574 10 29.55 10 19.846c0-3.672 1.475-7.194 4.1-9.79A14.08 14.08 0 0 1 24 6c3.713 0 7.274 1.459 9.9 4.055a13.77 13.77 0 0 1 4.1 9.792c0 9.703-8.489 17.727-12.246 20.804-.54.442-.81.662-1.212.775a2.263 2.263 0 0 1-1.085 0c-.4-.113-.673-.335-1.21-.776ZM24 23a5 5 0 1 1 0-10 5 5 0 0 1 0 10Z" fill="url(#a)"/><defs><linearGradient id="a" x1="13.938" y1="6" x2="44.458" y2="25.829" gradientUnits="userSpaceOnUse"><stop stop-color="#0EA885"/><stop offset=".837" stop-color="#A142FF"/></linearGradient></defs></svg>