<svg width="37" height="32" fill="none" xmlns="http://www.w3.org/2000/svg"><path d="M0 8.704a42.557 42.557 0 0 1 3.551-3.712c1.184-1.088 2.212-1.915 3.084-2.48a26.853 26.853 0 0 1 2.34-1.376c.69-.352 1.206-.581 1.55-.688l.55-.128a4.71 4.71 0 0 1 .774-.064c.409 0 .785.064 1.13.192.56.213 1.017.581 1.372 1.104.355.523.667 1.109.936 1.76.27.651.501 1.418.695 2.304.193.885.355 1.712.484 2.48.13.768.274 1.616.436 2.544.161.928.318 1.68.468 2.256.69 2.667 1.243 4.56 1.662 5.68.42 1.119.866 1.68 1.34 1.68.518 0 1.233-.592 2.148-1.775.914-1.185 1.92-2.799 3.018-4.849.56-1.024.84-1.995.84-2.912a3.77 3.77 0 0 0-.064-.736c-.192-1.109-.742-1.803-1.646-2.08a2.284 2.284 0 0 0-.777-.128c-.753 0-1.647.277-2.68.832.475-2.773 1.916-5.002 4.327-6.688C27.368.64 29.242 0 31.156 0c.26 0 .518.011.776.032 2.195.17 3.69 1.13 4.487 2.88.388.811.581 1.749.581 2.816 0 .619-.065 1.269-.193 1.952-.388 2.176-1.135 4.395-2.245 6.656-1.11 2.262-2.325 4.262-3.647 6a53.964 53.964 0 0 1-4.278 4.96c-1.53 1.568-2.857 2.815-3.986 3.744-1.13.928-2.105 1.659-2.922 2.192-.906.512-1.75.768-2.537.768-.786 0-1.533-.225-2.244-.672a7.966 7.966 0 0 1-1.808-1.536 9.066 9.066 0 0 1-1.226-1.824c-.388-.811-1.437-3.995-3.148-9.552-1.711-5.558-2.75-8.549-3.116-8.976a.353.353 0 0 0-.13-.128c-.064-.042-.209-.091-.435-.144a1.9 1.9 0 0 0-.775 0c-.29.053-.683.203-1.178.448-.496.245-1.033.592-1.615 1.04L0 8.704Z" fill="url(#a)" fill-opacity=".61"/><defs><linearGradient id="a" x1="5.203" y1="0" x2="35.284" y2="28.643" gradientUnits="userSpaceOnUse"><stop stop-color="#0EA885"/><stop offset=".837" stop-color="#A142FF"/></linearGradient></defs></svg>