<svg width="34" height="34" fill="none" xmlns="http://www.w3.org/2000/svg"><path d="M12.192 2.357A3.75 3.75 0 0 0 8.71 0H3.553A3.552 3.552 0 0 0 0 3.552C0 20.23 13.52 33.75 30.198 33.75a3.552 3.552 0 0 0 3.552-3.553V25.04a3.75 3.75 0 0 0-2.356-3.482l-4.943-1.976a3.75 3.75 0 0 0-3.794.6l-1.275 1.064a3.752 3.752 0 0 1-5.054-.229l-3.593-3.595a3.75 3.75 0 0 1-.23-5.052l1.063-1.276a3.75 3.75 0 0 0 .603-3.793l-1.979-4.943Z" fill="url(#a)" fill-opacity=".61"/><path d="M27.797 13.009c-.143-1.76-.87-3.343-2.19-4.429-1.372-1.129-3.15-1.526-4.98-1.268" stroke="url(#b)" stroke-opacity=".61" stroke-width="2" stroke-linecap="round"/><path d="M31.538 10.798c-.491-2.045-1.665-3.995-3.469-5.48-1.877-1.545-4.117-2.322-6.3-2.356" stroke="url(#c)" stroke-opacity=".61" stroke-width="2" stroke-linecap="round"/><defs><linearGradient id="a" x1="4.746" y1="0" x2="35.921" y2="25.674" gradientUnits="userSpaceOnUse"><stop stop-color="#0EA885"/><stop offset=".837" stop-color="#A142FF"/></linearGradient><linearGradient id="b" x1="23.01" y1="6.443" x2="21.448" y2="10.071" gradientUnits="userSpaceOnUse"><stop stop-color="#0EA885"/><stop offset=".837" stop-color="#A142FF"/></linearGradient><linearGradient id="c" x1="24.516" y1="2.394" x2="22.659" y2="5.963" gradientUnits="userSpaceOnUse"><stop stop-color="#0EA885"/><stop offset=".837" stop-color="#A142FF"/></linearGradient></defs></svg>