<svg width="80" height="80" fill="none" xmlns="http://www.w3.org/2000/svg"><g clip-path="url(#a)"><path d="M80.049 0H-3.826v81.232h83.875V0Z" fill="#005BFF"/><path fill-rule="evenodd" clip-rule="evenodd" d="m37.48 40.729-1.236-4.636 8.152-5.296 9.747.65 1.425 4.533L100 82.27l-69.5 20.396 6.978-61.937Z" fill="#F91155"/><path fill-rule="evenodd" clip-rule="evenodd" d="M5.093 54.307c-3.154 1.262-6.677-.774-7.163-4.143a5.085 5.085 0 0 1 3.12-5.415c3.153-1.262 6.676.774 7.163 4.143a5.085 5.085 0 0 1-3.12 5.415Zm-3.64-14.34c-6.096.953-9.68 7.17-7.454 12.938 1.644 4.267 6.178 6.888 10.69 6.179 6.096-.954 9.68-7.17 7.455-12.938-1.644-4.267-6.18-6.888-10.692-6.179Zm13.621-3.357c-1.37.357-2.108 1.862-1.437 3.183.492.97 1.66 1.42 2.723 1.143l6.168-1.603-6.157 14.952c-.2.493.258 1.002.778.867l15.064-3.91c1.062-.276 1.845-1.23 1.772-2.307-.1-1.473-1.52-2.416-2.89-2.064l-7.516 1.95 6.15-14.941c.202-.493-.256-1.013-.787-.872l-13.868 3.601Zm60.149-15.707c-.973.482-1.42 1.603-1.135 2.632l2.002 7.24-14.623-6.21c-.508-.218-1.045.237-.9.757l4.138 14.947c.285 1.029 1.252 1.787 2.343 1.733 1.52-.076 2.494-1.473 2.12-2.827l-2.02-7.3 14.623 6.212c.509.216 1.045-.239.9-.759l-4.149-15c-.375-1.354-1.94-2.09-3.294-1.425h-.005Zm-31.397 7.756c-7.325 1.9-12.1 7.63-10.67 12.796 1.432 5.167 8.528 7.815 15.848 5.914 7.32-1.9 12.1-7.63 10.669-12.797-1.432-5.166-8.522-7.814-15.847-5.913Zm1.207 4.364c5.061-1.31 9.568.342 10.222 2.697.654 2.356-2.399 5.974-7.46 7.284-5.06 1.31-9.567-.34-10.22-2.697-.655-2.355 2.398-5.973 7.458-7.284Z" fill="#fff"/></g><defs><clipPath id="a"><rect width="80" height="80" rx="18" fill="#fff"/></clipPath></defs></svg>