<svg width="40" height="40" fill="none" xmlns="http://www.w3.org/2000/svg"><rect width="40" height="40" rx="20" fill="#292929"/><path d="M19.709 27.672c-1.272 0-2.43-.204-3.474-.612a7.897 7.897 0 0 1-2.7-1.728 7.736 7.736 0 0 1-1.746-2.61c-.408-1.008-.612-2.106-.612-3.294 0-1.188.204-2.28.612-3.276.408-.996.99-1.86 1.746-2.592a8.197 8.197 0 0 1 2.736-1.71c1.056-.408 2.226-.612 3.51-.612 1.236 0 2.37.198 3.402.594 1.032.384 1.92.93 2.664 1.638a7.121 7.121 0 0 1 1.746 2.484c.42.96.63 2.016.63 3.168 0 1.032-.138 1.926-.414 2.682-.276.744-.672 1.314-1.188 1.71-.504.396-1.122.594-1.854.594-.744 0-1.338-.222-1.782-.666-.432-.444-.648-1.086-.648-1.926V20.49l.072-1.026-.162-2.34v-2.052h1.998v6.12c0 .456.09.78.27.972.192.18.414.27.666.27.324 0 .6-.126.828-.378.228-.252.396-.624.504-1.116.12-.492.18-1.086.18-1.782 0-.96-.168-1.836-.504-2.628a5.523 5.523 0 0 0-1.422-2.034 6.128 6.128 0 0 0-2.196-1.314c-.84-.312-1.77-.468-2.79-.468-1.044 0-1.992.168-2.844.504a6.284 6.284 0 0 0-2.196 1.386 6.255 6.255 0 0 0-1.422 2.142c-.324.816-.486 1.71-.486 2.682 0 .996.162 1.908.486 2.736a5.985 5.985 0 0 0 1.386 2.124 6.319 6.319 0 0 0 2.178 1.386c.84.336 1.782.504 2.826.504.552 0 1.134-.066 1.746-.198a6.82 6.82 0 0 0 1.746-.594l.486 1.44a7.579 7.579 0 0 1-1.908.63c-.72.144-1.41.216-2.07.216Zm-.468-3.564c-.828 0-1.566-.192-2.214-.576a4.366 4.366 0 0 1-1.548-1.62c-.372-.696-.558-1.494-.558-2.394 0-.888.186-1.674.558-2.358a4.067 4.067 0 0 1 1.53-1.62c.66-.384 1.404-.576 2.232-.576.804 0 1.506.18 2.106.54.6.348 1.068.858 1.404 1.53.336.672.504 1.5.504 2.484s-.162 1.818-.486 2.502c-.324.684-.786 1.206-1.386 1.566-.6.348-1.314.522-2.142.522Zm.378-1.746c.516 0 .972-.108 1.368-.324.396-.228.708-.558.936-.99.24-.432.36-.942.36-1.53 0-.6-.12-1.104-.36-1.512a2.314 2.314 0 0 0-.936-.954c-.396-.228-.852-.342-1.368-.342-.528 0-.996.114-1.404.342a2.435 2.435 0 0 0-.936.972c-.216.42-.324.918-.324 1.494 0 .588.108 1.092.324 1.512.228.42.54.75.936.99.408.228.876.342 1.404.342Z" fill="#fff"/></svg>