<svg xmlns="http://www.w3.org/2000/svg" width="3179" height="323" fill="none"><path fill-rule="evenodd" clip-rule="evenodd" d="M64.397 1.716c-5.323 6.417 4.938 36.672 28.884 85.165a28065.46 28065.46 0 0 1 9.962 20.184c.199.409-19.388 20.597-43.526 44.862C12.084 199.811 9.27 203.189 3.88 218.975c-3.892 11.394-4.513 27.595-1.512 39.448 9.007 35.576 36.673 57.762 74.171 59.477 7.02.321 14.294.059 18.46-.664 10.353-1.798 93.243-23.55 106.517-27.953 6.38-2.115 16.49-6.182 22.467-9.035 8.858-4.229 12.085-6.408 17.465-11.797 3.63-3.634 8.477-9.775 10.772-13.644 13.122-22.126 17.247-54.351 8.122-63.45-6.886-6.868-14.721-1.098-21.348 15.718-11.441 29.035-18.776 37.108-40.337 44.393-24.724 8.353-114.396 28.422-122.955 27.518-9.007-.951-26.224-14.808-31.282-25.177-3.454-7.081-3.86-16.495-.976-22.615 2.693-5.711 5.12-8.193 74.908-76.583 31.018-30.398 59.697-59.024 63.73-63.614l7.332-8.344v-19.76c0-14.162.336-19.967 1.186-20.49 2.384-1.47 13.858-.318 25.135 2.522 40.893 10.3 84.667 37.26 109.971 67.732 15.355 18.492 23.634 34.763 31.272 61.456 2.566 8.967 2.847 11.422 2.796 24.424-.05 12.759-.376 15.51-2.771 23.428-5.315 17.565-14.172 33.046-38.791 67.792-8.428 11.894-12.832 20.638-12.833 25.48-.002 9.262 6.914 9.903 22.342 2.072 13.479-6.841 25.65-16.03 39.746-30.004 16.994-16.848 27.454-33.855 33.442-54.373 3.217-11.025 4.352-30.586 2.521-43.472-3.714-26.143-16.26-59.915-31.156-83.867-14.665-23.581-37.029-46.642-60.398-62.28C278.125 20.725 230.92 5.556 180.14.983 164.867-.39 162.412.117 157.522 5.672c-6.294 7.148-9.206 20.27-9.225 41.576-.007 7.542-.27 13.713-.583 13.713-.314 0-5.794-5.057-12.176-11.237-22.371-21.66-45.404-39.938-57.59-45.697C69.694.126 66.21-.468 64.397 1.717Zm1745.023 36.43c-8.29 1.203-20.56 4.47-27.76 7.388-19.7 7.98-36.54 24.885-42.76 42.913-1.08 3.148-1.97 6.328-1.97 7.064 0 1.075 3.83 1.34 19.46 1.34h19.47l1.43-2.756c2.17-4.171 11.65-12.671 17.36-15.558 12.49-6.309 32.97-9.04 50.39-6.718 11.55 1.539 17.69 3.463 23.43 7.345 6.54 4.423 8.92 9.28 8.9 18.185-.02 8.653-2.81 14.159-9.4 18.509-8.04 5.316-12.49 6.118-36.82 6.657l-22.25.494v31.663h19.37c23.04 0 34.21 1.594 42.65 6.083 8.94 4.75 12.68 11.594 11.67 21.349-1.3 12.568-9.71 20.451-26.82 25.132-9.22 2.522-38.66 2.468-47.87-.087-14.2-3.942-26.53-12.819-31.57-22.732l-2.45-4.821h-37.95v2.524c0 3.72 3.72 14.143 7.26 20.342 4.36 7.636 15.93 19.472 24.52 25.091 8.14 5.328 19.15 9.866 31.47 12.982 10.31 2.608 41.68 3.719 55.02 1.949 36.95-4.904 60.6-22.332 66.23-48.801 5.25-24.696-5.43-45.572-27.72-54.19-3.2-1.241-5.82-2.483-5.82-2.76.01-.277 2.68-1.78 5.94-3.34 6.67-3.195 15.59-11.846 18.92-18.363 4.95-9.67 6.52-24.315 3.73-34.76-7.48-28.016-38.08-43.5-85.21-43.114-8.18.067-17.56.513-20.85.99ZM559.174 45.758c-20.548 45.507-86.849 193.706-86.849 194.13 0 .31 8.62.442 19.155.293l19.155-.271 9.03-20.188 9.029-20.188h101.081l8.997 20.419 8.997 20.417 20.244.02c11.134.01 20.244-.254 20.244-.589 0-1.443-89.466-199.35-90.418-200.01-.58-.403-8.832-.739-18.34-.748l-17.287-.015-3.038 6.73Zm1016.946-4.985c-1.82 3.446-89.11 198.415-89.11 199.039 0 .352 8.56.518 19.02.369l19.03-.271 9.09-20.188 9.09-20.188 50.61.019 50.61.02 8.99 20.417 9 20.419h20.35c15.88 0 20.24-.275 19.86-1.247-2.32-5.921-89.13-197.939-89.91-198.888-.75-.909-5.71-1.246-18.37-1.246-15.49 0-17.43.186-18.26 1.745Zm-838.879 99.429v100.207h34.977l.256-80.503.256-80.502 32.99 80.752 32.989 80.751 13.104.277 13.103.277 32.245-79.034c17.735-43.47 32.852-80.157 33.592-81.528 1.139-2.107 1.353 10.009 1.387 78.509l.04 81.001h36.988V39.993l-27.57.265-27.571.266-29.464 71.28c-16.205 39.205-29.8 71.617-30.211 72.029-.41.41-14.073-31.666-30.36-71.281l-29.614-72.028-28.568-.264-28.569-.266v100.208Zm300.909.015v100.192h37.98V73.921h106.97v166.488h37.99V40.025h-182.94v100.192Zm252.92-.06v100.252h37.99v-76.637l45.23-.363c42.74-.344 45.67-.485 53.03-2.529 21.44-5.948 35.78-19.032 41.78-38.109 2.9-9.219 3.59-25.127 1.56-35.781-4.47-23.467-18.43-37.485-44.02-44.205-7.8-2.047-10.6-2.145-71.84-2.506l-63.73-.374v100.252Zm715.37-96.393c-.32 2.056-3.08 26.842-6.12 55.08-7.32 67.993-10.06 83.321-17.9 100.248l-3.44 7.421h-22.12v79.801l17.24-.272 17.25-.273.27-22.68.26-22.68h162.92v45.859h33.98v-79.702l-14.74-.275-14.75-.277-.25-82.994-.26-82.995h-151.76l-.58 3.739Zm229.33 96.453v100.192h37.99v-83.743h109.96v83.743h37.99V40.025h-37.99v82.746h-109.96V40.025h-37.99v100.192Zm255.61-99.549c-.38.378-.69 45.473-.69 100.214v99.527h38.66l55.9-73.897 55.89-73.897.26 73.897.26 73.897h38.98l-.25-99.943-.26-99.942-18.99-.245-19-.244-37.47 49.593c-20.61 27.276-45.8 60.611-55.98 74.079l-18.51 24.487-.5-73.836-.5-73.834-18.56-.27c-10.2-.15-18.86.037-19.24.414Zm258.23 99.549v100.192h37.97l.26-45.499.26-45.498 52.77 45.515 52.77 45.515 26.3-.267 26.3-.265-57.83-50.825c-31.81-27.955-57.83-51.143-57.83-51.53 0-.387 23.96-21.432 53.24-46.768 29.27-25.336 54.34-47.122 55.71-48.414l2.47-2.348-25.47.007-25.47.007-51.48 44.758-51.48 44.76-.26-44.766-.26-44.766h-37.97v100.192Zm239.92-.022v100.214h37.72l56.37-74.473 56.37-74.474.25 74.474.26 74.473h37.98l-.25-99.943-.26-99.942-18.99-.218-18.99-.217-55.99 74.103-55.98 74.103-.5-73.886-.5-73.885-18.74-.272-18.75-.27v100.213ZM1409.56 75.007c6.46 1.19 14 4.613 16.68 7.565 3.84 4.24 6.18 11.545 6.18 19.263 0 12.323-4.59 19.726-15.39 24.823l-5.5 2.593-41.24.3-41.23.301V73.921h37.3c22.64 0 39.62.427 43.2 1.086Zm711.25 65.21v66.296h-51.49c-30.55 0-51.48-.372-51.48-.914 0-.503.9-3.017 2.01-5.586 5.46-12.71 8.61-30.783 13.97-80.233 2.23-20.562 4.32-39.291 4.65-41.622l.59-4.237h81.75v66.296ZM597.221 126.539c9.382 20.988 17.059 38.597 17.059 39.13 0 .606-13.04.967-34.989.967-27.241 0-34.989-.276-34.989-1.241 0-2.252 34.474-78.411 35.175-77.707.377.378 8.362 17.862 17.744 38.851Zm1014.669.058c9.39 21.021 17.07 38.629 17.07 39.129 0 .531-14.82.91-35.6.91-28.07 0-35.49-.264-35.1-1.247 4.95-12.448 35.28-78.327 35.82-77.776.4.42 8.42 17.963 17.81 38.984Z" fill="#000"/></svg>