<svg width="28" height="28" fill="none" xmlns="http://www.w3.org/2000/svg"><path d="M23.211 4.783a12.835 12.835 0 0 0-4.197-2.807A12.886 12.886 0 0 0 14.052 1C6.92 1 1.105 6.785 1.105 13.883c0 2.275.6 4.485 1.724 6.435L1 27l6.86-1.794a13.002 13.002 0 0 0 6.192 1.573C21.186 26.779 27 20.994 27 13.896a12.77 12.77 0 0 0-3.789-9.113Zm-9.159 19.812c-1.933 0-3.828-.52-5.487-1.495l-.392-.234-4.077 1.066 1.085-3.952-.261-.403a10.698 10.698 0 0 1-1.647-5.694c0-5.902 4.835-10.712 10.766-10.712 2.875 0 5.58 1.118 7.604 3.146a10.63 10.63 0 0 1 2.338 3.475 10.59 10.59 0 0 1 .811 4.104c.026 5.902-4.808 10.699-10.74 10.699Zm5.906-8.008c-.327-.156-1.92-.936-2.208-1.053-.3-.104-.51-.156-.732.156-.222.325-.836 1.053-1.019 1.261-.183.221-.379.247-.706.078-.326-.156-1.371-.507-2.6-1.599-.966-.858-1.607-1.911-1.803-2.236-.183-.325-.026-.494.144-.663.144-.143.327-.377.484-.559.156-.182.222-.325.326-.533.105-.221.053-.403-.026-.559-.078-.156-.732-1.742-.993-2.392-.261-.624-.536-.546-.731-.559h-.628c-.222 0-.561.078-.862.403-.287.325-1.124 1.105-1.124 2.691 0 1.586 1.163 3.12 1.32 3.328.157.221 2.286 3.471 5.527 4.862.77.338 1.371.533 1.842.676.77.247 1.476.208 2.038.13.627-.091 1.92-.78 2.182-1.534.274-.754.274-1.391.183-1.534-.092-.143-.288-.208-.614-.364Z" fill="#fff"/></svg>