<svg width="20" height="20" fill="none" xmlns="http://www.w3.org/2000/svg"><path d="M14.025 13.034a.833.833 0 0 1 1.292.7v1.075c0 1.058-.825 2.191-1.817 2.525l-2.658.883c-.467.158-1.225.158-1.684 0L6.5 17.334c-1-.334-1.817-1.467-1.817-2.525v-1.084a.833.833 0 0 1 1.284-.7l1.716 1.117c.659.442 1.492.658 2.325.658.834 0 1.667-.216 2.325-.658l1.692-1.108Z" fill="#15A1D3"/><path d="m16.65 5.384-4.992-3.275c-.9-.592-2.383-.592-3.283 0L3.358 5.384c-1.608 1.041-1.608 3.4 0 4.45l1.334.867 3.683 2.4c.9.591 2.383.591 3.283 0l3.659-2.4 1.141-.75v2.55a.63.63 0 0 0 .625.625.63.63 0 0 0 .625-.625V8.4c.334-1.076-.008-2.326-1.058-3.017Z" fill="#15A1D3"/></svg>