<svg width="192" height="192" fill="none" xmlns="http://www.w3.org/2000/svg"><path fill-rule="evenodd" clip-rule="evenodd" d="M22.337 110.139V22.337h27.089V0H0v110.139c0 11.249 2.483 18.586 7.308 28.98 4.824 10.393 11.895 19.836 20.81 27.791 8.914 7.954 19.497 14.264 31.144 18.569C70.91 189.784 83.393 192 96 192s25.09-2.216 36.738-6.521c11.647-4.305 22.23-10.615 31.144-18.569 8.915-7.955 15.986-17.398 20.81-27.791 4.825-10.394 7.308-17.731 7.308-28.98V0h-49.426v22.337h27.565v87.802c0 16.228-12.792 31.176-25.652 42.651-12.859 11.475-30.301 17.922-48.487 17.922-18.186 0-35.628-6.447-48.487-17.922-12.86-11.475-25.176-26.423-25.176-42.651Z" fill="#15A1D3"/><path d="M70.075 101.619H48.057m97.761 0H123.8M96.497 150.06v-22.019m34.941 7.648-15.564-15.574m15.564-51.964-15.564 15.575m-38.161 36.389-15.564 15.574m15.564-51.963L62.149 68.151m34.348 7.927V54.06" stroke="#15A1D3" stroke-width="27"/></svg>