<svg width="16" height="16" fill="none" xmlns="http://www.w3.org/2000/svg"><path d="M14.647 12.219c0 .24-.053.486-.167.726-.113.24-.26.467-.453.68-.327.36-.687.62-1.093.787-.4.167-.834.253-1.3.253-.68 0-1.407-.16-2.174-.486a11.713 11.713 0 0 1-2.293-1.32 19.164 19.164 0 0 1-2.187-1.867 18.94 18.94 0 0 1-1.86-2.18c-.546-.76-.986-1.52-1.307-2.273-.32-.76-.48-1.487-.48-2.18 0-.454.08-.887.24-1.287.16-.407.414-.78.767-1.113.427-.42.893-.627 1.387-.627.187 0 .373.04.54.12.173.08.326.2.446.373l1.547 2.18c.12.167.207.32.267.467.06.14.093.28.093.407 0 .16-.046.32-.14.473a2.267 2.267 0 0 1-.373.473l-.507.527a.357.357 0 0 0-.106.267c0 .053.006.1.02.153.02.053.04.093.053.133.12.22.327.507.62.854.3.346.62.7.966 1.053.36.353.707.68 1.06.98.347.293.634.493.86.613.034.014.074.034.12.054a.46.46 0 0 0 .167.026c.114 0 .2-.04.274-.113l.506-.5c.167-.167.327-.293.48-.373a.887.887 0 0 1 .474-.14c.126 0 .26.026.406.086.147.06.3.147.467.26l2.207 1.567c.173.12.293.26.366.427.067.166.107.333.107.52Z" fill="#fff"/></svg>