<svg width="16" height="18" fill="none" xmlns="http://www.w3.org/2000/svg"><path d="M0 4.545V3.62c0-.665.144-1.27.433-1.815A3.283 3.283 0 0 1 1.71.493C2.27.164 2.962 0 3.78 0c.843 0 1.545.164 2.107.493.57.329.995.766 1.276 1.31.29.546.434 1.15.434 1.816v.926c0 .65-.145 1.247-.434 1.792a3.19 3.19 0 0 1-1.264 1.31c-.562.329-1.26.493-2.095.493-.826 0-1.525-.164-2.094-.493a3.283 3.283 0 0 1-1.277-1.31A3.766 3.766 0 0 1 0 4.545Zm2.3-.926v.926c0 .28.052.55.156.806.112.248.28.453.506.613.232.152.513.228.842.228.345 0 .626-.076.843-.228a1.45 1.45 0 0 0 .482-.613c.104-.257.156-.525.156-.806V3.62c0-.296-.056-.569-.168-.817a1.328 1.328 0 0 0-.494-.614c-.217-.16-.498-.24-.843-.24-.32 0-.594.08-.818.24a1.405 1.405 0 0 0-.506.614 2.091 2.091 0 0 0-.157.817Zm6.08 10.774v-.926c0-.657.144-1.259.433-1.804a3.369 3.369 0 0 1 1.288-1.31c.57-.329 1.268-.493 2.095-.493.834 0 1.533.164 2.094.493a3.28 3.28 0 0 1 1.277 1.31c.288.545.433 1.147.433 1.804v.926a3.8 3.8 0 0 1-.433 1.803 3.2 3.2 0 0 1-1.264 1.311c-.562.329-1.257.493-2.083.493-.835 0-1.537-.164-2.107-.493a3.346 3.346 0 0 1-1.3-1.31 3.79 3.79 0 0 1-.434-1.804Zm2.31-.926v.926c0 .288.065.56.193.817.129.257.305.461.53.614.233.152.502.228.807.228.385 0 .686-.076.903-.228.216-.153.365-.357.445-.614a2.5 2.5 0 0 0 .133-.817v-.926a1.94 1.94 0 0 0-.169-.806 1.405 1.405 0 0 0-.506-.613c-.216-.16-.493-.24-.83-.24-.338 0-.618.08-.843.24a1.436 1.436 0 0 0-.494.613 1.932 1.932 0 0 0-.168.806Zm2.36-10.713L4.49 16.437l-1.685-.89 8.56-13.683 1.685.89Z" fill="#15A1D3"/></svg>