<svg width="32" height="32" fill="none" xmlns="http://www.w3.org/2000/svg"><path d="m24.72 5.494-7.333-2.747c-.76-.28-2-.28-2.76 0L7.293 5.494c-1.413.533-2.56 2.186-2.56 3.693v10.8c0 1.08.707 2.507 1.574 3.147l7.333 5.48c1.293.973 3.413.973 4.707 0l7.333-5.48c.867-.654 1.573-2.067 1.573-3.147v-10.8c.014-1.507-1.133-3.16-2.533-3.693Zm-4.08 7.466-5.733 5.734a.99.99 0 0 1-.707.293.989.989 0 0 1-.707-.293l-2.133-2.16a1.006 1.006 0 0 1 0-1.414 1.006 1.006 0 0 1 1.413 0l1.44 1.44 5.027-5.026a1.006 1.006 0 0 1 1.413 0 1.01 1.01 0 0 1-.013 1.426Z" fill="#15A1D3"/></svg>