<svg width="21" height="21" fill="none" xmlns="http://www.w3.org/2000/svg"><mask id="a" style="mask-type:luminance" maskUnits="userSpaceOnUse" x="0" y="-1" width="21" height="22"><path d="M0-.001h21v21H0v-21Z" fill="#fff"/></mask><g mask="url(#a)"><path fill-rule="evenodd" clip-rule="evenodd" d="M15.312 12.583c-.262-.13-1.547-.758-1.786-.846-.24-.087-.413-.13-.588.131-.175.26-.675.846-.827 1.019-.153.174-.305.195-.566.066-.261-.132-1.104-.406-2.101-1.291-.777-.69-1.302-1.541-1.454-1.802-.152-.26-.016-.4.115-.53.117-.116.26-.304.392-.455.13-.151.174-.26.26-.435.089-.173.045-.324-.021-.455-.065-.13-.587-1.41-.806-1.931-.211-.507-.427-.437-.587-.446a11.358 11.358 0 0 0-.501-.009.96.96 0 0 0-.696.326c-.24.26-.915.889-.915 2.169 0 1.279.936 2.515 1.067 2.69.13.173 1.842 2.8 4.463 3.925.624.268 1.11.428 1.489.547.626.199 1.196.171 1.646.104.501-.075 1.546-.63 1.764-1.237.218-.607.217-1.128.152-1.236-.065-.109-.24-.173-.501-.304m-4.768 6.478h-.003a8.71 8.71 0 0 1-4.424-1.206l-.317-.187-3.29.86.879-3.193-.207-.327a8.597 8.597 0 0 1-1.329-4.603c.002-4.768 3.9-8.648 8.695-8.648a8.652 8.652 0 0 1 6.144 2.537 8.589 8.589 0 0 1 1.887 2.805c.437 1.05.66 2.176.656 3.313-.002 4.768-3.9 8.649-8.69 8.649ZM17.94 3.05A10.394 10.394 0 0 0 14.55.788a10.436 10.436 0 0 0-4.005-.789C4.78 0 .09 4.667.088 10.404a10.34 10.34 0 0 0 1.395 5.202L0 21l5.543-1.447a10.503 10.503 0 0 0 4.997 1.267h.004c5.763 0 10.454-4.668 10.456-10.407a10.3 10.3 0 0 0-3.06-7.361" fill="#fff"/></g></svg>