<svg width="20" height="20" fill="none" xmlns="http://www.w3.org/2000/svg"><path d="m7.158 3.712-.402-.906c-.264-.592-.395-.888-.592-1.115a2.007 2.007 0 0 0-.928-.603C4.949 1 4.624 1 3.976 1c-.948 0-1.422 0-1.82.182a2.124 2.124 0 0 0-1.061 1.169c-.143.413-.102.838-.02 1.689.873 9.05 5.835 14.012 14.885 14.885.85.082 1.276.123 1.69-.02a2.124 2.124 0 0 0 1.168-1.06c.182-.399.182-.873.182-1.821 0-.649 0-.973-.088-1.26a2.007 2.007 0 0 0-.603-.928c-.227-.197-.523-.328-1.115-.592l-.906-.402c-.642-.285-.963-.428-1.288-.459a2.007 2.007 0 0 0-.919.128c-.305.119-.575.343-1.114.793-.537.447-.805.67-1.133.79a2.16 2.16 0 0 1-.982.101c-.345-.05-.61-.192-1.139-.475-1.646-.88-2.553-1.787-3.433-3.433-.283-.53-.424-.794-.475-1.14a2.16 2.16 0 0 1 .1-.98c.12-.329.344-.597.791-1.134.45-.54.674-.809.793-1.114.114-.292.158-.607.128-.919-.031-.325-.174-.646-.459-1.288Z" stroke="#141B34" stroke-width="2" stroke-linecap="round"/></svg>