<svg width="285" height="128" fill="none" xmlns="http://www.w3.org/2000/svg"><path d="M275.573 115.183h-7.261l.243-1.386h16.038l-.242 1.386h-7.261L275 126.997h-1.517l2.09-11.814Zm-17.857-1.671c6.446 0 8.558 2.904 7.854 6.886a2.065 2.065 0 0 1-.132.528h-16.544c-.352 2.948 1.452 5.104 6.622 5.104 3.916 0 6.336-1.232 7.568-3.124h1.628c-1.452 2.64-4.444 4.356-9.416 4.356-6.446 0-8.558-2.882-7.854-6.864.704-3.982 3.828-6.886 10.274-6.886Zm-.22 1.254c-5.148 0-7.722 2.156-8.404 5.082h15.026c.352-2.926-1.452-5.082-6.622-5.082Zm-29.604 6.577 1.342-7.546h16.038l-2.332 13.2h-1.518l2.09-11.814H230.51l-1.1 6.16c-.66 3.806-2.2 5.676-5.654 5.676-.286 0-.572 0-.858-.022l.242-1.43c.22.022.418.022.616.022 2.464 0 3.63-1.32 4.136-4.246ZM95.044 4.512c6.446 0 8.558 2.904 7.854 6.886a2.065 2.065 0 0 1-.132.528H86.222c-.352 2.948 1.452 5.104 6.622 5.104 3.916 0 6.336-1.232 7.568-3.124h1.628c-1.452 2.64-4.444 4.356-9.416 4.356-6.446 0-8.558-2.882-7.854-6.864.704-3.982 3.828-6.886 10.274-6.886Zm-.22 1.254c-5.148 0-7.722 2.156-8.404 5.082h15.026c.352-2.926-1.452-5.082-6.622-5.082ZM74.27 4.512c6.446 0 8.558 2.904 7.854 6.886a2.065 2.065 0 0 1-.132.528H65.448c-.352 2.948 1.452 5.104 6.622 5.104 3.916 0 6.336-1.232 7.568-3.124h1.628c-1.452 2.64-4.444 4.356-9.416 4.356-6.446 0-8.558-2.882-7.854-6.864.704-3.982 3.828-6.886 10.274-6.886Zm-.22 1.254c-5.148 0-7.722 2.156-8.404 5.082h15.026c.352-2.926-1.452-5.082-6.622-5.082Zm-29.603 6.577 1.342-7.546h16.038l-2.332 13.2h-1.518l2.09-11.814H47.065l-1.1 6.16c-.66 3.806-2.2 5.676-5.654 5.676-.286 0-.572 0-.858-.022l.242-1.43c.22.022.418.022.616.022 2.464 0 3.63-1.32 4.136-4.246ZM31.278 4.535c6.446 0 8.558 2.882 7.854 6.864-.704 3.982-3.828 6.864-10.274 6.864S20.3 15.381 21.004 11.4c.704-3.982 3.828-6.864 10.274-6.864ZM29.1 16.833c5.434 0 7.964-2.31 8.514-5.434.55-3.124-1.144-5.434-6.578-5.434s-7.964 2.31-8.514 5.434c-.55 3.124 1.144 5.434 6.578 5.434ZM10.821 5.216c6.16 0 8.184 2.75 7.524 6.512-.66 3.784-3.784 6.534-10.208 6.534-6.93 0-8.844-3.256-7.92-8.448.858-4.906 3.872-8.228 11.044-8.822 1.518-.11 6.204-.484 7.414-.594a49.77 49.77 0 0 1-.22 1.276c-.748.066-6.578.55-7.304.616-5.984.506-8.58 3.19-9.328 7.04a10.8 10.8 0 0 0-.11.77c1.056-2.86 3.916-4.884 9.108-4.884Zm-2.398 11.66c5.39 0 7.898-2.2 8.404-5.17.528-2.97-1.188-5.17-6.578-5.17-5.412 0-7.898 2.2-8.426 5.17-.528 2.97 1.21 5.17 6.6 5.17Z" fill="#9E7CEE"/><path d="M143.077 127c-9.5 0-16.35-2.238-20.55-6.714-4.1-4.477-5.3-11.012-3.6-19.606l8.7-44.046c1.7-8.594 4.9-14.682 9.6-18.263 4.7-3.58 11.85-5.371 21.45-5.371h37.2c9.5 0 16.3 2.238 20.4 6.714 4.2 4.477 5.45 11.012 3.75 19.606l-8.7 44.046c-1.7 8.594-4.9 14.682-9.6 18.263-4.7 3.581-11.85 5.371-21.45 5.371h-37.2Zm7.95-14.234h25.5c5.4 0 9.3-.94 11.7-2.82 2.5-1.97 4.25-5.417 5.25-10.34l7.5-38.272c1-4.924.45-8.505-1.65-10.743-2.1-2.238-5.9-3.357-11.4-3.357h-25.35c-5.5 0-9.5.985-12 2.955-2.4 1.88-4.1 5.282-5.1 10.205l-7.5 38.272c-.9 4.924-.35 8.505 1.65 10.743 2.1 2.238 5.9 3.357 11.4 3.357Zm-58.255 11.683A3 3 0 0 1 89.806 127H4.54a3 3 0 0 1-2.942-3.584l5.288-26.63c1.2-6.356 3.5-10.788 6.9-13.295 3.4-2.506 8.95-4.297 16.65-5.371l46.35-6.311c3.8-.538 6.4-1.388 7.8-2.552 1.5-1.164 2.6-3.357 3.3-6.58l1.35-6.446c1.5-6.445-1.5-9.668-9-9.668h-33.9c-3.7 0-6.35.582-7.95 1.746-1.5 1.163-2.55 3.446-3.15 6.848l-.463 2.624a3 3 0 0 1-2.955 2.479h-11.91a3 3 0 0 1-2.955-3.519l1.033-5.881c1.2-6.625 3.55-11.235 7.05-13.831 3.6-2.686 9.1-4.029 16.5-4.029h48.15c7.2 0 12.4 1.79 15.6 5.371 3.3 3.492 4.35 8.55 3.15 15.175l-2.4 12.891c-1.2 6.356-3.5 10.788-6.9 13.294-3.4 2.507-9 4.298-16.8 5.372l-46.35 6.311c-4 .537-6.75 1.388-8.25 2.552-1.4 1.163-2.4 3.357-3 6.58l-1.48 6.265a3 3 0 0 0 2.92 3.689h65.22a3 3 0 0 1 2.967 3.449l-1.59 10.5Z" fill="#00A483"/></svg>