<svg width="1920" height="146" fill="none" xmlns="http://www.w3.org/2000/svg"><mask id="a" fill="#fff"><path d="M-182 100.621C-97.625 89.254-13.25 77.887 71.129 81.483c84.375 3.598 168.75 22.16 253.125 9.57 84.375-12.589 168.75-56.329 253.128-52.63 84.375 3.701 168.75 54.844 253.125 81.337 84.375 26.493 117.618 15.769 201.993-12.569 84.38-28.34 183-113.723 331-106.792 106.5 11.97 142.01 132.256 226.39 143.282 84.37 11.026 168.75-46.06 253.12-62.198 84.38-16.135 168.76 8.677 253.13 33.492"/></mask><path d="m71.129 81.483.042-1-.042 1Zm506.253-43.06.044-1-.044 1ZM1032.5 107.19l.32.948-.32-.948ZM1363.5.399l.11-.994-.03-.004-.03-.001-.05.999Zm479.51 81.084-.18-.982.18.982Zm-2024.876 20.129c84.39-11.369 168.677-22.721 252.952-19.13l.085-1.998c-84.482-3.6-168.945 7.781-253.305 19.146l.268 1.982Zm252.952-19.13c42.167 1.798 84.265 7.33 126.522 10.853 42.213 3.519 84.491 5.02 126.793-1.292l-.295-1.979c-42.073 6.278-84.17 4.792-126.332 1.278-42.118-3.51-84.394-9.058-126.603-10.858l-.085 1.998Zm253.315 9.56c42.273-6.307 84.563-20.421 126.69-32.45 42.177-12.043 84.232-22.012 126.248-20.17l.087-1.998c-42.363-1.857-84.685 8.195-126.884 20.245-42.249 12.063-84.333 26.113-126.436 32.395l.295 1.979Zm252.938-52.62c42.014 1.843 84.073 15.501 126.24 32.053 42.112 16.53 84.4 35.979 126.629 49.239l.599-1.908c-42.146-13.234-84.233-32.603-126.497-49.192-42.207-16.568-84.523-30.332-126.884-32.19l-.087 1.998Zm252.869 81.292c42.265 13.271 71.811 17.248 101.394 14.318 29.54-2.925 59.059-12.734 101.218-26.893l-.64-1.896c-42.216 14.179-71.506 23.901-100.775 26.799-29.226 2.894-58.488-1.014-100.598-14.236l-.599 1.908Zm202.612-12.575c21.17-7.111 43.21-17.792 66.63-29.673 23.45-11.891 48.28-24.987 75.1-36.985 53.62-23.987 115.12-43.539 188.9-40.084l.1-1.997c-74.22-3.476-136.04 16.198-189.82 40.255-26.88 12.024-51.77 25.155-75.18 37.027-23.42 11.882-45.35 22.502-66.37 29.561l.64 1.896ZM1363.39 1.392c52.87 5.943 88.15 38.755 120.89 71.707 16.35 16.447 32.08 32.953 49.01 46.018 16.94 13.079 35.14 22.769 56.47 25.556l.26-1.983c-20.86-2.726-38.74-12.207-55.51-25.156-16.79-12.964-32.41-29.345-48.81-45.845-32.73-32.94-68.46-66.256-122.09-72.284l-.22 1.987Zm226.37 143.281c42.44 5.546 84.82-6.044 127.03-20.962 42.28-14.944 84.32-33.196 126.41-41.246l-.37-1.964c-42.29 8.087-84.62 26.447-126.71 41.325-42.17 14.903-84.16 26.344-126.1 20.864l-.26 1.983Zm253.44-62.208c84.1-16.082 168.24 8.64 252.66 33.469l.57-1.919c-84.33-24.8-168.95-49.703-253.6-33.514l.37 1.964Z" fill="#00A483" mask="url(#a)"/></svg>