<svg width="1920" height="102" fill="none" xmlns="http://www.w3.org/2000/svg"><mask id="a" fill="#fff"><path d="M-182 .975C-97.625 17.928-13.25 34.878 71.129 39.249c84.375 4.374 168.75-3.834 253.125 9.57 84.375 13.406 168.75 48.42 253.128 52.629 84.375 4.208 168.75-22.396 253.125-38.275 84.375-15.881 168.754-21.04 253.133-14.353 84.37 6.687 168.75 25.221 253.12 28.706 84.38 3.486 168.75-8.08 253.13-19.138 84.37-11.059 168.75-21.615 253.12-23.921 84.38-2.31 168.76 3.628 253.13 9.568"/></mask><path d="m71.129 39.25.052-1-.052 1Zm506.253 62.198.05-.999-.05.999Zm253.125-38.275.185.983-.185-.983Zm506.253 14.353-.04 1 .04-1Zm506.25-43.06.03 1-.03-1ZM-182.197 1.956c84.362 16.95 168.81 33.917 253.274 38.293l.103-1.997C-13.113 33.884-97.415 16.95-181.803-.006l-.394 1.961ZM71.077 40.248c42.219 2.188 84.458 1.23 126.61 1.4 42.175.17 84.3 1.47 126.41 8.16l.314-1.976c-42.266-6.715-84.515-8.014-126.716-8.184-42.223-.17-84.359.788-126.514-1.397l-.104 1.997Zm253.02 9.56c42.125 6.692 84.244 18.778 126.468 29.742 42.193 10.957 84.468 20.787 126.768 22.897l.099-1.998c-42.079-2.099-84.181-11.88-126.364-22.834-42.152-10.946-84.408-23.07-126.657-29.783l-.314 1.975Zm253.236 52.639c42.304 2.109 84.582-3.506 126.801-11.622 21.109-4.058 42.217-8.744 63.308-13.404 21.095-4.662 42.174-9.299 63.25-13.265l-.37-1.966c-21.111 3.974-42.22 8.617-63.312 13.278-21.097 4.662-42.176 9.341-63.254 13.393-42.156 8.104-84.253 13.686-126.324 11.588l-.099 1.998Zm253.359-38.291c84.294-15.866 168.584-21.02 252.868-14.34l.16-1.993c-84.474-6.695-168.942-1.53-253.398 14.367l.37 1.966Zm252.868-14.34c42.15 3.341 84.3 9.641 126.5 15.548 42.19 5.905 84.42 11.417 126.66 13.162l.08-1.999c-42.13-1.74-84.28-7.239-126.46-13.144-42.18-5.903-84.4-12.213-126.62-15.56l-.16 1.994Zm253.16 28.71c84.48 3.49 168.95-8.09 253.3-19.147l-.26-1.983c-84.4 11.062-168.68 22.612-252.96 19.131l-.08 1.999Zm253.3-19.147c84.38-11.059 168.71-21.608 253.02-23.913l-.05-2c-84.44 2.309-168.86 12.872-253.23 23.93l.26 1.983Zm253.02-23.913c84.32-2.307 168.65 3.626 253.03 9.566l.14-1.995c-84.36-5.939-168.79-11.88-253.22-9.57l.05 2Z" fill="#9E7CEE" mask="url(#a)"/></svg>