<svg width="292" height="44" fill="none" xmlns="http://www.w3.org/2000/svg"><path fill-rule="evenodd" clip-rule="evenodd" d="M151.845 35.815c.78-.137 1.561-.374 2.351-.703 1.237-.517 2.45-1.619 3.624-3.308-1.059-1.059-2.835-1.861-4.954-2.203l-1.021 6.214Zm7.091-5.936c1.017-2.06 1.823-4.56 2.405-7.49h-7.292l-.912 5.553c2.274.3 4.289.99 5.799 1.937Zm-8.344-.46c.103 0 .214.003.317.006l-1.071 6.534a8.392 8.392 0 0 1-3.452-.815c-1.129-.549-1.958-1.817-2.485-3.807 1.509-1.16 3.947-1.918 6.691-1.918Zm0-1.64c.198 0 .393.002.588.009l.884-5.4h-8.121c-.473 2.63-.613 4.901-.426 6.808 1.932-.885 4.396-1.418 7.075-1.418Zm1.899-7.99.82-4.988c-2.373-.14-4.52-.698-6.222-1.538-1.081 1.806-1.946 3.982-2.589 6.527h7.991Zm1.088-6.624.823-5.014a10.475 10.475 0 0 0-3.083.797c-1.042.446-2.069 1.328-3.089 2.64 1.338.861 3.225 1.446 5.349 1.577Zm2.808-5.02-.823 5.009c2.262-.165 4.241-.845 5.552-1.823-.946-1.893-2.525-2.958-4.729-3.187Zm-1.097 6.674-.813 4.972h7.295c.323-2.497.326-4.654.006-6.469-1.772.85-4.022 1.4-6.488 1.497Zm67.601 21.146c1.33 0 2.67-.287 4.024-.853 1.353-.562 2.673-1.826 3.95-3.783 1.455-2.382 2.546-5.492 3.271-9.327.71-3.755.79-6.843.247-9.27-.902-3.087-2.981-4.634-6.218-4.634-1.427 0-2.802.285-4.122.849-1.324.565-2.628 1.826-3.902 3.785-1.551 2.383-2.689 5.478-3.409 9.27-.732 3.87-.768 6.98-.112 9.327.53 1.993 1.359 3.263 2.488 3.813 1.128.55 2.389.823 3.783.823Zm-24-.941h9.259c-1.101-3.612-1.174-7.953-.214-13.022 1.305-6.887 4.058-12.438 8.258-16.662 1.932-1.995 4.036-3.38 6.307-4.165a21.844 21.844 0 0 1 7.193-1.173c2.37 0 4.516.374 6.429 1.114h28.021l2.654 28.864 13.679-28.864H292l-7.919 41.83h-8.118l5.898-30.389h-.146l-14.648 30.388h-5.444l-2.997-30.388h-.146l-5.607 30.388h-8.361l6.423-33.93-8.149.014c.326 1.102.563 2.296.707 3.584.329 2.897.173 6.02-.463 9.388-.65 3.439-1.677 6.59-3.077 9.444-1.397 2.854-3.118 5.316-5.167 7.391-3.662 3.442-8.14 5.164-13.42 5.164-2.369 0-4.432-.329-6.191-.98H197.11v-.076h-4.615l-8.437-20.652h-.147l-3.761 20.652h-8.216l6.402-33.82-8.216.11c.295 1.042.515 2.168.652 3.377.327 2.897.174 6.021-.463 9.388-.653 3.439-1.679 6.591-3.079 9.444-1.397 2.854-3.119 5.316-5.165 7.392-3.668 3.442-8.143 5.163-13.423 5.163-2.459 0-4.593-.353-6.396-1.056h-41.912l6.372-33.676H87.507l-6.374 33.676h-8.216l.007-.036h-6.759l-.006.036h-8.166l3.409-18.01h-12.64l-3.408 18.01h-8.26l.004-.036H30.34l-.006.036h-8.313l5.165-27.28L8.314 42.945H0l7.918-41.83h8.312L11.111 28.16 29.94 1.116h8.312L31.854 34.91h6.758l6.396-33.794h8.262l-2.987 15.779h12.638l2.988-15.78h8.166L67.678 34.91h6.758l6.397-33.794h54.88l-1.544 8.153h-19.295l-1.609 8.508h16.915l-1.42 7.507h-16.917l-1.822 9.623h25.369c-1.066-3.592-1.125-7.89-.175-12.906 1.302-6.887 4.055-12.439 8.257-16.663 1.933-1.994 4.036-3.38 6.308-4.165C152.048.388 154.45 0 156.977 0c2.366 0 4.512.374 6.422 1.114h24.671l-3.521 17.834h.147l15.381-17.834h9.576L192.13 20.238l6.761 14.786Z" fill="#1F1A17"/></svg>