<svg width="146" height="42" fill="none" xmlns="http://www.w3.org/2000/svg"><g clip-path="url(#a)" fill="#1F1A17"><path d="M33.333 3.335c0 2.767-.075 3.336-.371 3.336-.272 0-.371-.47-.42-2.249l-.075-2.273-.89-.716-.891-.717-1.286.766c-1.559.964-1.484 1.31.074.396.618-.346 1.138-.569 1.187-.47.05.124.1.643.1 1.161-.026.964-.05.989-1.238 1.285-.667.173-1.31.42-1.459.568-.396.396.05.346 1.311-.098 1.088-.396 1.484-.322 1.484.247 0 .222-.52.444-1.484.642-.816.148-1.484.395-1.484.543 0 .223 1.138.124 2.424-.222.42-.123.544-.05.544.346 0 .42-.247.544-1.41.741-1.237.223-1.484.198-1.756-.148-.693-.914-8.336-.198-12.467 1.186C3.18 11.686-2.46 21.37 2.042 30.289c.841 1.631 2.92 4.324 3.142 4.052.05-.074.297-1.556.544-3.335.247-1.779.52-3.582.594-4.052.148-.914.247-.89-2.029-.222-.816.247-.964.247-1.187-.124-.124-.247-.322-.37-.47-.296-.124.099-.223 0-.223-.173 0-.198.545-.865 1.188-1.507 1.014-1.013 1.31-1.161 2.201-1.161.841 0 1.039-.1 1.163-.569.321-1.235-.1-1.482-1.46-.864-.52.247-.717.222-1.039-.124-.395-.395-.37-.494.545-1.408.742-.766 1.162-.988 1.78-.988.693 0 .817-.1.817-.593 0-1.285.297-2.125.767-2.125.346 0 .494.272.618 1.235.099.667.247 1.236.322 1.236.099 0 .544-.396 1.014-.865.618-.642.742-.865.42-.865-.668 0-.495-.37.47-1.112 1.113-.84 1.534-1.828.965-2.248-.346-.247-.272-.395.544-1.062.619-.519 1.163-.766 1.558-.717.545.075.644-.05.841-.988.272-1.334.866-1.31 1.237.074.247.865.371.989.915.914.347-.05.767.1.965.297.173.222.445.395.643.395.57 0 1.93-.939 2.647-1.853.37-.47.89-.864 1.163-.864.321 0 .494-.198.544-.668.099-.938.618-.988.816-.049.173.766.173.766 1.46.618a63.172 63.172 0 0 1 3.314-.247c1.806-.1 2.028-.075 2.028.32 0 .371-.272.47-1.533.594-.965.074-1.608.05-1.707-.124-.1-.173-.52-.197-1.088-.099-1.485.297-.668.692 1.41.717.989 0 2.052-.074 2.374-.173.52-.173.569-.124.495.395-.075.519-.223.568-1.534.643-.791.049-1.583-.05-1.707-.173-.296-.297-1.385-.346-2.003-.124-.346.124-.297.247.222.741.668.618 1.336.766 1.732.37.148-.123.965-.271 1.855-.32 1.311-.05 1.608 0 1.608.296 0 .272-.495.42-2.029.593-1.137.124-2.053.296-2.053.395 0 .074.965.1 2.128.05 1.979-.1 2.127-.074 2.028.346-.074.395-.346.494-1.509.543-.767.05-1.78-.025-2.226-.148-.693-.198-.915-.148-1.583.42-.693.568-.767.741-.594 1.507.1.47.322.84.47.815 1.46-.32 3.909-.593 4.28-.494.247.074.89.025 1.385-.099.692-.148 1.039-.123 1.261.124.272.272 0 .42-1.632.865-3.884 1.037-6.827 2.52-7.57 3.755-.89 1.482-.395 2.125 3.686 4.867 6.01 4.052 9.227 7.066 10.859 10.154.495.939.89 1.878.89 2.1 0 .519.05.519 1.559-.247 4.551-2.322 7.866-5.781 9.523-9.981.544-1.384.643-2.001.643-4.447.025-3.335-.47-5.164-2.127-7.684-1.657-2.594-6.308-6.77-6.58-5.954-.05.198-.668.297-1.682.297-1.41 0-1.583-.05-1.583-.495 0-.617-.42-.667-.544-.074-.124.643.866 1.063 2.424 1.063 1.014 0 1.336.098 1.336.37 0 .297-.346.37-1.608.37-1.261 0-1.608-.073-1.608-.37 0-.197-.099-.37-.247-.37-.346 0-.322.32.05.691.247.248.247.371-.05.544-.297.198-.322.321-.05.741.149.272.297 1.038.297 1.705v1.21l-.89-.271c-.718-.223-.841-.37-.742-.766.074-.297.148-2.273.148-4.422 0-2.99.074-3.88.322-3.88.222 0 .296.445.296 1.607-.024 1.037.05 1.482.174 1.235.123-.198.148-.494.074-.618-.074-.148-.05-.247.05-.247.123 0 .345.222.519.494.247.396.569.494 1.657.494 1.806 0 1.756-.444-.05-.543-1.088-.05-1.434-.173-1.434-.445 0-.296.321-.37 1.484-.37h1.484V6.078l-1.336-.322c-1.286-.345-1.36-.32-2.275.272-.52.346-.99.544-1.064.445-.05-.099-.074-1.606-.074-3.335L36.92 0h-3.588v3.335ZM34.693.94c.025.321-.123.667-.346.79-.371.223-.371.223 0 .247.321 0 .396.322.37 1.853 0 1.705-.049 1.853-.518 1.853-.495 0-.52-.123-.52-2.717 0-2.594.025-2.743.495-2.669.297.05.494.272.52.643Zm1.608.79c0 1.409-.025 1.483-.594 1.483s-.593-.074-.52-1.433c.1-1.705.026-1.532.62-1.532.444 0 .494.173.494 1.482Zm0 2.842c0 1.013-.05 1.111-.594 1.111-.52 0-.569-.098-.494-1.062.024-.568.074-1.062.074-1.112.025-.024.247-.05.52-.05.42 0 .494.174.494 1.113ZM34.693 6.3c0 .124-.247.272-.544.321-.396.05-.569-.05-.569-.321 0-.272.173-.37.569-.321.297.05.544.173.544.321Zm1.608 0c0 .395-.866.519-1.088.148-.198-.296.099-.519.643-.519.247 0 .445.173.445.371Zm2.424.988c0 .79-.099 1.112-.346 1.112-.198 0-.371-.222-.371-.494-.025-.272-.05-.642-.075-.815-.074-.346.322-.915.594-.915.124 0 .198.495.198 1.112Zm-7.866 0c0 .445-.198.519-1.93.741-1.186.124-1.31.1-1.236-.296.124-.717 3.166-1.137 3.166-.445Zm3.958-.123c0 .123-.124.247-.297.247-.223 0-.223.074 0 .296.445.445.346.692-.272.692-.495 0-.594-.124-.594-.741 0-.618.1-.741.594-.741.322 0 .569.098.569.247Zm1.434.05c-.074.172-.321.32-.568.32-.248 0-.495-.148-.545-.32-.074-.174.124-.297.545-.297.42 0 .618.123.569.296Zm.05.938c0 .123-.272.247-.618.247-.347 0-.619-.124-.619-.247 0-.148.272-.247.619-.247.346 0 .618.099.618.247Zm-5.516.84c-.223.543-3.141.568-3.141.05 0-.223.494-.42 1.434-.569 1.484-.247 1.93-.099 1.707.519Zm3.933-.074c.074.148 0 .37-.173.494-.248.148-.272.222-.025.222.148 0 .297.1.297.247 0 .124-.272.247-.594.247-.52 0-.593-.098-.544-.691.124-.84.074-.791.495-.791.198 0 .445.124.544.272Zm1.583.099c0 .222-.223.37-.618.37-.594 0-.792-.247-.446-.568.297-.321 1.064-.173 1.064.198Zm0 .864c0 .124-.272.247-.618.247-.347 0-.619-.123-.619-.247 0-.148.272-.247.619-.247.346 0 .618.1.618.247Zm-1.583 2.595c0 1.754-.025 1.852-.544 1.852-.495 0-.544-.098-.52-1.853 0-1.729.025-1.853.544-1.853.495 0 .52.124.52 1.854Zm1.509 0c.025 1.729-.025 1.852-.52 1.852-.494 0-.52-.123-.52-1.853 0-1.729.05-1.853.52-1.853.47 0 .52.149.52 1.854Zm5.714.666c.074.396-.124.445-1.658.445-1.607 0-1.756-.05-1.756-.494 0-.47.124-.519 1.657-.445 1.36.05 1.683.149 1.757.495Zm-7.174 1.73c-.074.173-.321.321-.569.321-.247 0-.494-.148-.544-.321-.074-.173.124-.296.544-.296.421 0 .619.123.57.296Zm1.534.099c0 .247-.173.346-.544.296-.792-.123-.866-.692-.1-.692.421 0 .644.124.644.396Z"/><path d="M21.36 12.328c-.519.42-1.137.816-1.41.89-.246.098-.469.271-.469.395 0 .445.742.198 1.558-.519.47-.42 1.113-.741 1.41-.741.297 0 .495-.123.445-.296-.197-.544-.593-.47-1.533.271Zm3.068-.469c0 .123.123.247.247.247a.248.248 0 0 0 .247-.247c0-.149-.099-.247-.247-.247a.248.248 0 0 0-.247.247Zm-10.513 1.482c.075.124.248.247.396.247.124 0 .223-.123.223-.247 0-.148-.174-.247-.396-.247-.198 0-.297.099-.223.247Zm2.845 0c0 .124.148.247.346.247.198 0 .445-.123.52-.247.074-.148-.075-.247-.347-.247-.297 0-.52.099-.52.247Zm7.915 0c0 .124.1.247.223.247.148 0 .322-.123.396-.247.074-.148-.025-.247-.223-.247-.223 0-.396.099-.396.247Zm-7.569.889c-.173.075-.247.347-.173.594.247.963 1.806.518 1.806-.52 0-.222-1.138-.271-1.633-.073Zm2.721.1c-.52.197-.965.938-.717 1.185.074.074.495-.197.94-.642.791-.79.742-.939-.223-.543Zm5.096.37c0 .198.099.37.223.37.123 0 .346-.172.519-.37.247-.321.223-.37-.223-.37-.297 0-.52.148-.52.37Zm-11.552.123c-.816.322-.692.495.297.495.594 0 .866-.124.866-.371 0-.42-.346-.445-1.163-.123Zm2.301.124c-.074.222 0 .37.223.37a.38.38 0 0 0 .37-.37c0-.198-.098-.37-.222-.37s-.272.172-.371.37Zm4.675.297-.718.642.817.692c.667.543.94.642 1.31.444.248-.123.446-.494.446-.79 0-.297.074-.79.148-1.112.149-.47.074-.543-.544-.543-.42 0-1.039.296-1.46.667Zm3.314-.272c-.247.321-.247.42.025.593.494.296.717.099.569-.494-.149-.593-.173-.593-.594-.1Zm-10.983 1.087c-.074.123.025.247.223.247.223 0 .396-.124.396-.247 0-.148-.1-.247-.223-.247a.47.47 0 0 0-.396.247Zm10.266 0c0 .123.123.247.247.247a.248.248 0 0 0 .248-.247c0-.148-.1-.247-.248-.247a.248.248 0 0 0-.247.247Zm-9.524.494c-.073.123.075.247.372.247s.445-.123.37-.247a.466.466 0 0 0-.37-.247.466.466 0 0 0-.371.247Zm1.856 0c0 .123.124.247.247.247a.248.248 0 0 0 .248-.247c0-.148-.1-.247-.248-.247a.248.248 0 0 0-.247.247Zm3.71 0c0 .123.174.247.396.247.198 0 .297-.123.223-.247a.47.47 0 0 0-.396-.247c-.124 0-.223.099-.223.247Zm4.403.222c-.396.223-.693.544-.693.741 0 .248.198.173.693-.247.37-.32.717-.617.767-.667a.07.07 0 0 0 0-.123c-.05-.05-.396.074-.767.296Zm.421.766c-.446.494-.272.618.47.346.42-.148.569-.84.197-.84-.123 0-.42.222-.667.494Zm-8.46-.074c-.37.074-.569.297-.569.593 0 .47.025.47.619.05.321-.248.618-.52.618-.643 0-.099-.025-.148-.05-.148a3.68 3.68 0 0 1-.618.148Zm-2.795.297c-.767.123-.866.247-1.064 1.26-.197 1.012-.173 1.136.446 1.655.94.815 1.484.445 1.706-1.161.1-.692.223-1.409.297-1.606.149-.396.05-.396-1.385-.148Zm5.095-.025c-.148.247.347 2.52.545 2.52.618-.05 1.954-2.199 1.583-2.57-.198-.222-1.98-.172-2.128.05Zm3.29.173c-.594.32-1.113 1.062-.89 1.26.05.05.494-.1.99-.321.568-.272.914-.593.914-.865 0-.519-.148-.544-1.014-.074Zm-5.145.543c-.692.47-.767.593-.396.717.248.099.594-.025.916-.346.766-.766.42-1.013-.52-.37Zm-5.343.568c-.37.42-.395.495-.074.495.223 0 .47-.173.544-.396.248-.617.025-.667-.47-.099Zm6.085.347c-.222.246-.198.37.1.493.247.1.37-.024.37-.345 0-.593-.099-.618-.47-.149Zm-2.077.32c-.1.075-.173.322-.173.52 0 .296.074.296.37.049.198-.173.372-.396.372-.519 0-.272-.347-.296-.57-.05Zm.544.964c-.495.37-.915.914-.99 1.334-.098.42-.123.741-.049.741.173 0 2.77-1.853 2.795-1.976 0-.074-.198-.247-.47-.42-.396-.247-.618-.198-1.286.321Zm-5.096-.222c-.37.148-.42.815-.074.815.148 0 .247-.148.247-.346 0-.198.149-.42.322-.47.148-.073.198-.123.05-.123-.124 0-.396.05-.545.124Zm11.057.198c-.173.222-.272.444-.198.494.074.074.272-.025.445-.247.174-.223.272-.445.198-.495-.074-.074-.272.025-.445.247Zm-14.421.049c-.297.296-.173.543.198.42.198-.099.371-.247.371-.37 0-.273-.346-.297-.569-.05ZM5.258 21c-.074.123-.025.247.099.247.148 0 .271-.123.271-.247 0-.148-.05-.247-.099-.247-.074 0-.197.099-.271.247Zm2.845 0c0 .123.123.247.247.247A.248.248 0 0 0 8.597 21c0-.148-.099-.247-.247-.247a.248.248 0 0 0-.247.247Zm2.844 0c.074.123.197.247.271.247.05 0 .1-.123.1-.247 0-.148-.124-.247-.272-.247-.124 0-.173.099-.1.247Z"/><path d="M15.152 22.63c-1.608 1.236-2.35 1.607-2.35 1.137 0-.099.1-.593.223-1.112.198-.79.148-.914-.198-.914-.223 0-.544.124-.693.272-.198.198-.321.198-.42 0-.297-.445-1.336-.321-1.633.198-.494.963-.321 1.26.767 1.26.866 0 1.163.172 2.3 1.235l1.312 1.235 1.014-.741c.89-.642 1.014-.84.89-1.458-.099-.42.025-1.013.272-1.507.223-.42.371-.815.322-.84-.05-.05-.841.52-1.806 1.236Zm4.725-.74c-.1.222-.1.469-.05.518.198.198.643-.197.643-.568 0-.47-.395-.445-.593.05Zm-11.627.988c-.098.222-.098.47-.049.518.198.198.644-.197.644-.568 0-.47-.396-.444-.594.05Zm11.33.494c.074.222.148.494.148.617 0 .124.173.223.396.223.272 0 .346-.124.248-.396-.075-.222-.149-.494-.149-.617 0-.124-.173-.223-.396-.223-.272 0-.346.124-.247.396Zm-14.371.766c-.371.123-.446.815-.1.815.199 0 .619-.741.47-.865-.049-.024-.222 0-.37.05Zm3.511.321c.075.123.198.247.272.247.05 0 .1-.124.1-.247 0-.148-.124-.247-.272-.247-.124 0-.173.099-.1.247Z"/><path d="M10.823 24.31c0 .05.173.223.371.396.297.247.371.247.371-.099 0-.222-.173-.395-.37-.395-.199 0-.372.05-.372.099Zm-5.07.643c-.619.667-.248.963.395.321.297-.272.421-.568.273-.667-.124-.074-.421.074-.668.346Zm4.427-.173c-.173.494.075.914.545.914.445 0 .42-.247-.025-.84-.322-.42-.371-.42-.52-.074Zm-2.276.222c-.445.445-.37.692.198.692.52 0 .619-.173.297-.667-.148-.247-.272-.247-.495-.025Zm4.156.198c0 .346.173.494.544.494.495 0 .52-.025.074-.494-.247-.272-.494-.494-.544-.494-.024 0-.074.222-.074.494Zm8.089-.346c-.149.148.791 1.581 1.038 1.581.075 0 .297-.098.47-.222.273-.148.198-.346-.321-.865-.643-.642-.915-.766-1.187-.494Zm-16.276.494c-.297.346-.272.396.123.321.273-.05.52-.247.594-.42.124-.42-.321-.37-.717.1Zm11.774.42c-.618.445-1.187.667-1.534.593-.37-.074-.568.025-.568.222 0 .445-.643.445-.817.025-.074-.198-.494-.272-1.261-.222-1.336.123-1.311-.272-.544 4.496.321 1.977.494 3.681.395 3.805-.346.346-.717-.074-.865-1.038-.1-.494-.223-1.21-.297-1.606l-.124-.691-1.484 1.31c-.816.716-1.78 1.556-2.152 1.877l-.643.543.866.766c2.077 1.828 4.749 3.261 8.41 4.521l2.572.914 2.053-2.1c2.82-2.865 3.513-4.496 2.696-6.398-.173-.445-1.162-1.705-2.152-2.842-1.014-1.136-2.226-2.693-2.696-3.483l-.865-1.408-.99.716Zm-8.336 1.137c-.37 1.013-.099 1.062.767.173l.816-.84-.668.024c-.47.05-.742.223-.915.643Zm14.544-.025c-.074.123.198.519.594.914.544.519.866.642 1.336.519.84-.198.816-.395-.173-1.087-.841-.568-1.534-.692-1.756-.346Z"/><path d="M8.424 27.67c-.445.396-.816.766-.816.84 0 .149 2.028 1.433 2.102 1.335.149-.149-.173-2.916-.346-2.916-.074 0-.52.346-.94.742Zm16.054 1.26c-.57.223-.57.248.618 1.582.915 1.037 1.311 1.31 1.682 1.21 1.014-.296.965-.593-.247-1.828-.668-.692-1.287-1.235-1.36-1.21-.075 0-.372.098-.693.246ZM6.594 31.426c-.223 1.26-.396 2.322-.371 2.347.024.025.816-.643 1.756-1.507l1.707-1.557-.718-.444c-1.41-.865-1.83-1.112-1.93-1.112-.024 0-.247 1.038-.444 2.273Zm20.976 1.087-.693.37.52.915c.272.494.667 1.408.84 2.026.322 1.087.371 1.111 1.262 1.062.52-.05.99-.124 1.039-.173.173-.173-1.163-3.236-1.732-3.904-.52-.642-.569-.642-1.236-.296Zm1.953 5.509c-.593.124-.767.322-1.014 1.31-.148.617-.47 1.433-.692 1.779-.57.864-.545.889.519.889 1.732 0 1.979-.173 2.276-1.63.297-1.458.272-2.372-.124-2.447-.124-.049-.569 0-.965.1Zm32.764-34.02v.875h-2.1V9H59.13V4.002h3.157Zm3.943 3.08c0 .317-.045.6-.133.847a1.695 1.695 0 0 1-.371.63 1.564 1.564 0 0 1-.581.385 2.242 2.242 0 0 1-.777.126c-.266 0-.514-.042-.742-.126a1.644 1.644 0 0 1-.581-.385 1.86 1.86 0 0 1-.385-.63 2.503 2.503 0 0 1-.133-.847c0-.425.074-.782.224-1.071.149-.294.364-.518.644-.672.28-.154.611-.231.994-.231.359 0 .676.077.952.231.275.154.492.378.65.672.16.29.239.646.239 1.071Zm-2.64 0c0 .252.026.464.078.637a.775.775 0 0 0 .259.385.761.761 0 0 0 .455.126.729.729 0 0 0 .448-.126.736.736 0 0 0 .252-.385c.056-.173.084-.385.084-.637s-.028-.462-.084-.63a.698.698 0 0 0-.252-.378.76.76 0 0 0-.455-.126c-.276 0-.476.096-.602.287-.122.187-.182.469-.182.847Zm5.336 1.988c-.378 0-.7-.068-.966-.203a1.385 1.385 0 0 1-.61-.644c-.14-.29-.21-.66-.21-1.113 0-.467.08-.847.239-1.141.158-.294.378-.511.658-.651.284-.14.611-.21.98-.21a2.64 2.64 0 0 1 1.19.259l-.308.805a5.01 5.01 0 0 0-.462-.161 1.455 1.455 0 0 0-.42-.063.75.75 0 0 0-.455.133.754.754 0 0 0-.273.385c-.056.168-.084.38-.084.637 0 .252.03.462.09.63a.795.795 0 0 0 .28.371c.122.08.269.119.442.119.219 0 .413-.028.58-.084.169-.06.332-.142.49-.245v.889a1.6 1.6 0 0 1-.503.217c-.173.047-.392.07-.658.07ZM70.7 5.178h1.141l.721 2.149c.024.07.042.14.056.21.019.07.033.142.042.217.014.075.024.154.028.238h.021a3.52 3.52 0 0 1 .056-.343 5.68 5.68 0 0 1 .091-.322l.707-2.149h1.12L73.067 9.49c-.098.261-.226.48-.385.658-.154.177-.333.31-.539.399a1.669 1.669 0 0 1-.672.133c-.116 0-.219-.007-.308-.021a2.274 2.274 0 0 1-.224-.035v-.826c.052.01.112.019.182.028.075.01.152.014.231.014.145 0 .269-.03.371-.091a.762.762 0 0 0 .266-.252c.07-.103.126-.215.168-.336l.063-.189-1.519-3.794Zm8.112 0v3.059h.56v2.135h-.938V9h-2.569v1.372h-.938V8.237h.322a4.14 4.14 0 0 0 .427-.875 7.15 7.15 0 0 0 .28-1.057c.07-.373.121-.749.154-1.127h2.702Zm-1.827.784c-.037.28-.084.553-.14.819a6.424 6.424 0 0 1-.21.756c-.08.243-.177.476-.294.7h1.428V5.962h-.784Zm4.886-.861c.514 0 .906.112 1.176.336.276.22.413.558.413 1.015V9h-.728l-.203-.518h-.028a1.905 1.905 0 0 1-.336.336 1.022 1.022 0 0 1-.392.189 1.963 1.963 0 0 1-.539.063c-.224 0-.427-.042-.609-.126a.989.989 0 0 1-.42-.399c-.102-.182-.154-.41-.154-.686 0-.406.143-.705.427-.896.285-.196.712-.303 1.281-.322l.665-.021v-.168c0-.2-.053-.348-.16-.441-.103-.093-.248-.14-.435-.14-.186 0-.368.028-.546.084a4.082 4.082 0 0 0-.532.196l-.343-.707c.206-.107.432-.191.68-.252.251-.06.513-.091.783-.091Zm.147 2.142c-.336.01-.569.07-.7.182a.553.553 0 0 0-.196.441c0 .159.047.273.14.343a.621.621 0 0 0 .364.098.846.846 0 0 0 .567-.196c.154-.135.231-.324.231-.567v-.315l-.406.014Zm4.918-2.135c.43 0 .777.168 1.043.504.266.331.399.821.399 1.47 0 .434-.063.8-.189 1.099-.126.294-.299.516-.518.665a1.32 1.32 0 0 1-.763.224c-.182 0-.34-.023-.476-.07a1.153 1.153 0 0 1-.336-.182 1.7 1.7 0 0 1-.245-.238h-.056a2.822 2.822 0 0 1 .056.56v1.54h-1.043V5.178h.847l.147.497h.049c.07-.103.154-.196.252-.28.098-.089.215-.159.35-.21.14-.051.301-.077.483-.077Zm-.336.833a.748.748 0 0 0-.434.112.652.652 0 0 0-.238.343 2.08 2.08 0 0 0-.077.567v.112c0 .247.023.457.07.63a.718.718 0 0 0 .238.385c.112.089.264.133.455.133.159 0 .29-.044.392-.133a.806.806 0 0 0 .231-.392 2.25 2.25 0 0 0 .077-.63c0-.373-.058-.653-.175-.84-.112-.191-.292-.287-.539-.287Zm4.472 3.129c-.378 0-.7-.068-.966-.203a1.385 1.385 0 0 1-.61-.644c-.14-.29-.21-.66-.21-1.113 0-.467.08-.847.239-1.141.158-.294.378-.511.658-.651.284-.14.611-.21.98-.21a2.641 2.641 0 0 1 1.19.259l-.308.805a5.01 5.01 0 0 0-.462-.161 1.455 1.455 0 0 0-.42-.063.75.75 0 0 0-.455.133.754.754 0 0 0-.273.385c-.056.168-.084.38-.084.637 0 .252.03.462.09.63a.794.794 0 0 0 .28.371c.122.08.269.119.442.119.219 0 .413-.028.58-.084.169-.06.332-.142.49-.245v.889A1.603 1.603 0 0 1 91.73 9c-.173.047-.392.07-.658.07Zm5.485-3.108h-1.253V9h-1.043V5.962H93.01v-.784h3.55v.784Zm4.374.217a.76.76 0 0 1-.196.525c-.126.145-.315.238-.567.28v.028c.266.033.478.124.637.273.163.15.245.34.245.574 0 .163-.033.315-.098.455a.915.915 0 0 1-.294.364 1.49 1.49 0 0 1-.525.238c-.21.056-.467.084-.77.084h-1.82V5.178h1.82c.298 0 .564.033.798.098.238.06.424.163.56.308.14.145.21.343.21.595Zm-.96 1.624c0-.15-.058-.257-.174-.322-.117-.07-.292-.105-.526-.105h-.686v.903h.707a.987.987 0 0 0 .483-.105c.131-.075.197-.198.197-.371Zm-.097-1.54c0-.121-.047-.21-.14-.266-.094-.056-.231-.084-.413-.084h-.736v.756h.617c.219 0 .385-.03.496-.091.117-.065.175-.17.175-.315Zm3.926-1.155c.355 0 .658.068.91.203.257.135.455.331.595.588.14.257.21.572.21.945v.504h-2.464c.009.294.096.525.259.693.168.168.399.252.693.252.247 0 .471-.023.672-.07.201-.051.408-.128.623-.231v.805a2.363 2.363 0 0 1-.595.203c-.205.047-.455.07-.749.07-.383 0-.721-.07-1.015-.21a1.608 1.608 0 0 1-.693-.651c-.168-.29-.252-.653-.252-1.092 0-.448.075-.819.224-1.113.154-.299.366-.523.637-.672a1.92 1.92 0 0 1 .945-.224Zm.007.742a.696.696 0 0 0-.504.196c-.131.13-.208.334-.231.609h1.463a.975.975 0 0 0-.084-.413.625.625 0 0 0-.238-.287.73.73 0 0 0-.406-.105Zm3.877-.672v1.47h1.456v-1.47h1.043V9h-1.043V7.425h-1.456V9h-1.043V5.178h1.043Zm4.914 0v1.47h1.456v-1.47h1.043V9h-1.043V7.425h-1.456V9h-1.043V5.178h1.043Zm7.344 1.904c0 .317-.044.6-.133.847a1.7 1.7 0 0 1-.371.63 1.564 1.564 0 0 1-.581.385 2.245 2.245 0 0 1-.777.126c-.266 0-.513-.042-.742-.126a1.64 1.64 0 0 1-.581-.385 1.859 1.859 0 0 1-.385-.63 2.493 2.493 0 0 1-.133-.847c0-.425.075-.782.224-1.071.149-.294.364-.518.644-.672.28-.154.611-.231.994-.231.359 0 .677.077.952.231.275.154.492.378.651.672.159.29.238.646.238 1.071Zm-2.639 0c0 .252.026.464.077.637a.772.772 0 0 0 .259.385.76.76 0 0 0 .455.126.728.728 0 0 0 .448-.126.732.732 0 0 0 .252-.385c.056-.173.084-.385.084-.637s-.028-.462-.084-.63a.695.695 0 0 0-.252-.378.76.76 0 0 0-.455-.126c-.275 0-.476.096-.602.287-.121.187-.182.469-.182.847Zm5.356-1.974c.355 0 .658.068.91.203.257.135.455.331.595.588.14.257.21.572.21.945v.504h-2.464c.009.294.096.525.259.693.168.168.399.252.693.252.247 0 .471-.023.672-.07.201-.051.408-.128.623-.231v.805a2.363 2.363 0 0 1-.595.203c-.205.047-.455.07-.749.07-.383 0-.721-.07-1.015-.21a1.608 1.608 0 0 1-.693-.651c-.168-.29-.252-.653-.252-1.092 0-.448.075-.819.224-1.113.154-.299.366-.523.637-.672a1.92 1.92 0 0 1 .945-.224Zm.007.742a.696.696 0 0 0-.504.196c-.131.13-.208.334-.231.609h1.463a.975.975 0 0 0-.084-.413.625.625 0 0 0-.238-.287.73.73 0 0 0-.406-.105Zm-61.115 9.328H62.7l-1.512 1.834L62.833 19H61.65l-1.561-1.939V19h-1.043v-3.822h1.043v1.855l1.463-1.855Zm3.676-.077c.513 0 .905.112 1.176.336.275.22.413.558.413 1.015V19h-.728l-.203-.518h-.028a1.94 1.94 0 0 1-.336.336 1.021 1.021 0 0 1-.392.189 1.963 1.963 0 0 1-.539.063c-.224 0-.427-.042-.609-.126a.99.99 0 0 1-.42-.399c-.103-.182-.154-.41-.154-.686 0-.406.142-.705.427-.896.285-.196.712-.303 1.281-.322l.665-.021v-.168c0-.2-.054-.348-.161-.441-.103-.093-.247-.14-.434-.14s-.369.028-.546.084a4.082 4.082 0 0 0-.532.196l-.343-.707c.205-.107.432-.191.679-.252.252-.06.513-.091.784-.091Zm.147 2.142c-.336.01-.57.07-.7.182a.553.553 0 0 0-.196.441c0 .159.047.273.14.343a.622.622 0 0 0 .364.098.846.846 0 0 0 .567-.196c.154-.135.231-.324.231-.567v-.315l-.406.014Zm4.183-2.135c.275 0 .532.037.77.112.242.07.436.18.58.329.15.15.225.34.225.574 0 .229-.07.41-.21.546-.136.135-.32.233-.553.294v.035c.163.037.31.091.44.161a.76.76 0 0 1 .309.273c.079.112.119.264.119.455 0 .21-.068.406-.203.588-.131.177-.336.322-.616.434-.276.107-.63.161-1.064.161-.206 0-.4-.01-.581-.028a4.47 4.47 0 0 1-.497-.077 2.26 2.26 0 0 1-.392-.133v-.861c.158.075.352.142.58.203.234.06.481.091.743.091.19 0 .361-.014.51-.042a.874.874 0 0 0 .365-.14.302.302 0 0 0 .14-.259.312.312 0 0 0-.12-.252.77.77 0 0 0-.356-.154 3.107 3.107 0 0 0-.61-.049h-.405v-.721h.385c.345 0 .61-.028.798-.084.19-.056.287-.161.287-.315 0-.121-.061-.212-.182-.273-.122-.065-.32-.098-.595-.098-.182 0-.38.021-.595.063a3.18 3.18 0 0 0-.61.182l-.307-.728c.219-.084.46-.152.72-.203a4.47 4.47 0 0 1 .925-.084Zm4.344 0c.355 0 .658.068.91.203.257.135.455.331.595.588.14.257.21.572.21.945v.504h-2.464c.01.294.096.525.26.693.167.168.398.252.692.252.248 0 .472-.023.672-.07a3.4 3.4 0 0 0 .623-.231v.805a2.36 2.36 0 0 1-.595.203c-.205.047-.455.07-.749.07-.382 0-.72-.07-1.015-.21a1.608 1.608 0 0 1-.693-.651c-.168-.29-.252-.653-.252-1.092 0-.448.075-.819.224-1.113a1.56 1.56 0 0 1 .637-.672 1.92 1.92 0 0 1 .945-.224Zm.007.742c-.2 0-.368.065-.504.196-.13.13-.207.334-.23.609h1.462a.975.975 0 0 0-.084-.413.625.625 0 0 0-.238-.287.73.73 0 0 0-.406-.105Zm3.877-.672v1.47h1.456v-1.47h1.043V19h-1.043v-1.575h-1.456V19h-1.043v-3.822h1.043Zm4.915 0v1.47h1.456v-1.47H85.2V19h-1.043v-1.575H82.7V19h-1.043v-3.822H82.7Zm7.344 1.904c0 .317-.045.6-.133.847a1.697 1.697 0 0 1-.371.63 1.566 1.566 0 0 1-.581.385 2.243 2.243 0 0 1-.777.126c-.266 0-.514-.042-.742-.126a1.644 1.644 0 0 1-.581-.385 1.858 1.858 0 0 1-.385-.63 2.5 2.5 0 0 1-.133-.847c0-.425.074-.782.224-1.071.149-.294.364-.518.644-.672.28-.154.611-.231.994-.231.359 0 .676.077.952.231.275.154.492.378.65.672.16.29.239.646.239 1.071Zm-2.64 0c0 .252.026.464.078.637a.774.774 0 0 0 .259.385.76.76 0 0 0 .455.126.73.73 0 0 0 .448-.126.737.737 0 0 0 .252-.385c.056-.173.084-.385.084-.637s-.028-.462-.084-.63a.7.7 0 0 0-.252-.378.761.761 0 0 0-.455-.126c-.276 0-.476.096-.602.287-.122.187-.182.469-.182.847Zm5.357-1.974c.354 0 .658.068.91.203.256.135.455.331.595.588.14.257.21.572.21.945v.504h-2.464c.009.294.095.525.259.693.168.168.399.252.693.252.247 0 .471-.023.672-.07.2-.051.408-.128.623-.231v.805a2.36 2.36 0 0 1-.595.203 3.42 3.42 0 0 1-.75.07c-.382 0-.72-.07-1.014-.21a1.608 1.608 0 0 1-.693-.651c-.168-.29-.252-.653-.252-1.092 0-.448.074-.819.224-1.113.154-.299.366-.523.637-.672.27-.15.585-.224.945-.224Zm.007.742a.695.695 0 0 0-.504.196c-.131.13-.208.334-.231.609h1.463a.975.975 0 0 0-.084-.413.626.626 0 0 0-.238-.287.73.73 0 0 0-.406-.105Zm4.235-.672h1.141l.721 2.149c.024.07.042.14.056.21.019.07.033.142.042.217.014.075.024.154.028.238h.021a3.49 3.49 0 0 1 .056-.343 5.68 5.68 0 0 1 .091-.322l.707-2.149h1.12L99.37 19.49a2.06 2.06 0 0 1-.385.658c-.154.177-.333.31-.539.399a1.669 1.669 0 0 1-.672.133c-.116 0-.219-.007-.308-.021a2.269 2.269 0 0 1-.224-.035v-.826c.052.01.112.019.182.028.075.01.152.014.231.014.145 0 .269-.03.371-.091a.763.763 0 0 0 .266-.252c.07-.103.126-.215.168-.336l.063-.189-1.519-3.794Zm5.729 1.4c0 .163.039.287.119.371a.463.463 0 0 0 .343.126c.2 0 .387-.021.56-.063.172-.047.345-.107.518-.182v-1.652h1.043V19h-1.043v-1.519c-.164.089-.35.17-.56.245-.21.07-.448.105-.714.105-.397 0-.714-.103-.952-.308-.238-.205-.357-.513-.357-.924v-1.421h1.043v1.4Zm6.084-1.47c.43 0 .777.168 1.043.504.266.331.399.821.399 1.47 0 .434-.063.8-.189 1.099-.126.294-.298.516-.518.665-.219.15-.473.224-.763.224-.182 0-.34-.023-.476-.07a1.172 1.172 0 0 1-.336-.182 1.717 1.717 0 0 1-.245-.238h-.056a2.625 2.625 0 0 1 .056.56v1.54h-1.043v-5.502h.847l.147.497h.049c.07-.103.154-.196.252-.28.098-.089.215-.159.35-.21a1.4 1.4 0 0 1 .483-.077Zm-.336.833a.749.749 0 0 0-.434.112.657.657 0 0 0-.238.343 2.12 2.12 0 0 0-.077.567v.112c0 .247.024.457.07.63a.72.72 0 0 0 .238.385c.112.089.264.133.455.133.159 0 .29-.044.392-.133a.801.801 0 0 0 .231-.392 2.21 2.21 0 0 0 .077-.63c0-.373-.058-.653-.175-.84-.112-.191-.291-.287-.539-.287Zm4.493-.833c.355 0 .658.068.91.203.257.135.455.331.595.588.14.257.21.572.21.945v.504h-2.464c.009.294.096.525.259.693.168.168.399.252.693.252.247 0 .471-.023.672-.07a3.4 3.4 0 0 0 .623-.231v.805a2.364 2.364 0 0 1-.595.203 3.43 3.43 0 0 1-.749.07c-.383 0-.721-.07-1.015-.21a1.608 1.608 0 0 1-.693-.651c-.168-.29-.252-.653-.252-1.092 0-.448.075-.819.224-1.113.154-.299.366-.523.637-.672a1.92 1.92 0 0 1 .945-.224Zm.007.742a.696.696 0 0 0-.504.196c-.131.13-.208.334-.231.609h1.463a.975.975 0 0 0-.084-.413.625.625 0 0 0-.238-.287.73.73 0 0 0-.406-.105Zm8.266-.672-1.407 1.834L121.38 19h-1.113l-1.456-1.939V19h-.973v-1.939L116.382 19h-1.113l1.54-1.988-1.407-1.834h1.078l1.358 1.855v-1.855h.973v1.855l1.358-1.855h1.078Zm4.396 0v3.059h.56v2.135h-.938V19h-2.569v1.372h-.938v-2.135h.322c.168-.257.311-.548.427-.875.117-.331.21-.684.28-1.057.07-.373.122-.749.154-1.127h2.702Zm-1.827.784c-.037.28-.084.553-.14.819a6.427 6.427 0 0 1-.21.756 4.553 4.553 0 0 1-.294.7h1.428v-2.275h-.784Zm4.894-.854c.354 0 .658.068.91.203.256.135.455.331.595.588.14.257.21.572.21.945v.504h-2.464c.009.294.095.525.259.693.168.168.399.252.693.252.247 0 .471-.023.672-.07.2-.051.408-.128.623-.231v.805a2.364 2.364 0 0 1-.595.203c-.206.047-.455.07-.749.07-.383 0-.721-.07-1.015-.21a1.608 1.608 0 0 1-.693-.651c-.168-.29-.252-.653-.252-1.092 0-.448.074-.819.224-1.113.154-.299.366-.523.637-.672.27-.15.585-.224.945-.224Zm.007.742a.696.696 0 0 0-.504.196c-.131.13-.208.334-.231.609h1.463a.975.975 0 0 0-.084-.413.631.631 0 0 0-.238-.287.731.731 0 0 0-.406-.105Zm3.876-.672v1.47h1.456v-1.47h1.043V19h-1.043v-1.575h-1.456V19h-1.043v-3.822h1.043Zm4.88 1.512c0 .08-.004.177-.014.294a7.454 7.454 0 0 1-.021.357 6.217 6.217 0 0 1-.042.518l1.764-2.681h1.253V19h-1.008v-1.526c0-.126.005-.264.014-.413l.028-.427c.014-.135.024-.238.028-.308L137.718 19h-1.253v-3.822h1.008v1.512Zm5.885-1.582c.355 0 .658.068.91.203.257.135.455.331.595.588.14.257.21.572.21.945v.504h-2.464c.01.294.096.525.259.693.168.168.399.252.693.252.248 0 .472-.023.672-.07.201-.051.409-.128.623-.231v.805a2.35 2.35 0 0 1-.595.203 3.43 3.43 0 0 1-.749.07c-.382 0-.721-.07-1.015-.21a1.608 1.608 0 0 1-.693-.651c-.168-.29-.252-.653-.252-1.092 0-.448.075-.819.224-1.113a1.56 1.56 0 0 1 .637-.672 1.92 1.92 0 0 1 .945-.224Zm.007.742a.7.7 0 0 0-.504.196c-.13.13-.207.334-.231.609h1.463a.975.975 0 0 0-.084-.413.62.62 0 0 0-.238-.287.727.727 0 0 0-.406-.105Zm-81.68 9.328v.784h-1.596V29h-1.043v-3.822h2.639Zm4.387 1.904c0 .317-.044.6-.133.847a1.697 1.697 0 0 1-.37.63 1.565 1.565 0 0 1-.582.385 2.243 2.243 0 0 1-.777.126c-.266 0-.513-.042-.742-.126a1.644 1.644 0 0 1-.58-.385 1.86 1.86 0 0 1-.386-.63 2.5 2.5 0 0 1-.133-.847c0-.425.075-.782.224-1.071a1.55 1.55 0 0 1 .644-.672c.28-.154.612-.231.994-.231.36 0 .677.077.952.231.276.154.493.378.651.672.16.29.238.646.238 1.071Zm-2.639 0c0 .252.026.464.077.637a.774.774 0 0 0 .26.385.76.76 0 0 0 .454.126.729.729 0 0 0 .448-.126.736.736 0 0 0 .252-.385c.056-.173.084-.385.084-.637s-.028-.462-.084-.63a.698.698 0 0 0-.252-.378.76.76 0 0 0-.455-.126c-.275 0-.476.096-.602.287-.12.187-.182.469-.182.847Zm5.91-1.974c.429 0 .776.168 1.042.504.266.331.4.821.4 1.47 0 .434-.064.8-.19 1.099-.126.294-.298.516-.518.665-.219.15-.473.224-.763.224a1.46 1.46 0 0 1-.476-.07 1.153 1.153 0 0 1-.336-.182 1.701 1.701 0 0 1-.245-.238H68.2a2.822 2.822 0 0 1 .056.56v1.54h-1.043v-5.502h.847l.147.497h.05c.07-.103.153-.196.251-.28.098-.089.215-.159.35-.21a1.4 1.4 0 0 1 .483-.077Zm-.337.833a.747.747 0 0 0-.434.112.652.652 0 0 0-.238.343 2.12 2.12 0 0 0-.077.567v.112c0 .247.024.457.07.63a.718.718 0 0 0 .238.385c.112.089.264.133.455.133.16 0 .29-.044.392-.133a.806.806 0 0 0 .231-.392c.052-.173.077-.383.077-.63 0-.373-.058-.653-.175-.84-.112-.191-.291-.287-.539-.287Zm6.39 1.141c0 .317-.044.6-.133.847a1.697 1.697 0 0 1-.37.63 1.565 1.565 0 0 1-.582.385 2.243 2.243 0 0 1-.777.126c-.266 0-.513-.042-.742-.126a1.644 1.644 0 0 1-.58-.385 1.86 1.86 0 0 1-.386-.63 2.5 2.5 0 0 1-.133-.847c0-.425.075-.782.224-1.071a1.55 1.55 0 0 1 .644-.672c.28-.154.611-.231.994-.231.36 0 .677.077.952.231.275.154.492.378.651.672.159.29.238.646.238 1.071Zm-2.639 0c0 .252.026.464.077.637a.774.774 0 0 0 .26.385.76.76 0 0 0 .454.126.729.729 0 0 0 .448-.126.736.736 0 0 0 .252-.385c.056-.173.084-.385.084-.637s-.028-.462-.084-.63a.698.698 0 0 0-.252-.378.76.76 0 0 0-.455-.126c-.275 0-.476.096-.602.287-.121.187-.182.469-.182.847Zm7.218-1.904v3.059h.56v2.135h-.938V29h-2.569v1.372h-.938v-2.135h.322a4.14 4.14 0 0 0 .427-.875 7.15 7.15 0 0 0 .28-1.057c.07-.373.121-.749.154-1.127h2.702Zm-1.827.784c-.037.28-.084.553-.14.819a6.427 6.427 0 0 1-.21.756c-.08.243-.177.476-.294.7h1.428v-2.275h-.784Zm4.886-.861c.514 0 .906.112 1.176.336.276.22.414.558.414 1.015V29h-.728l-.204-.518h-.027c-.108.135-.22.247-.337.336a1.021 1.021 0 0 1-.392.189 1.963 1.963 0 0 1-.539.063c-.224 0-.427-.042-.609-.126a.99.99 0 0 1-.42-.399c-.102-.182-.153-.41-.153-.686 0-.406.142-.705.426-.896.285-.196.712-.303 1.281-.322l.666-.021v-.168c0-.2-.054-.348-.161-.441-.103-.093-.248-.14-.434-.14-.187 0-.37.028-.546.084a4.082 4.082 0 0 0-.532.196l-.344-.707c.206-.107.432-.191.68-.252.251-.06.513-.091.783-.091Zm.147 2.142c-.335.01-.569.07-.7.182a.553.553 0 0 0-.195.441c0 .159.046.273.14.343a.622.622 0 0 0 .364.098.846.846 0 0 0 .566-.196c.154-.135.232-.324.232-.567v-.315l-.406.014ZM90.118 29l-1.204-3.92h-.028a819.7 819.7 0 0 1 .05 1.022c.008.21.013.401.013.574V29h-.945v-4.998h1.442l1.183 3.822h.021l1.253-3.822h1.442V29h-.987v-2.366c0-.159.002-.34.007-.546.01-.205.016-.399.021-.581l.021-.42h-.028L91.09 29h-.973Zm8.158-1.918c0 .317-.045.6-.133.847a1.697 1.697 0 0 1-.371.63 1.565 1.565 0 0 1-.581.385 2.243 2.243 0 0 1-.777.126c-.266 0-.514-.042-.742-.126a1.644 1.644 0 0 1-.581-.385 1.86 1.86 0 0 1-.385-.63 2.5 2.5 0 0 1-.133-.847c0-.425.074-.782.224-1.071.149-.294.364-.518.644-.672.28-.154.61-.231.994-.231.359 0 .676.077.952.231.275.154.492.378.65.672.16.29.239.646.239 1.071Zm-2.64 0c0 .252.026.464.078.637a.774.774 0 0 0 .259.385.76.76 0 0 0 .455.126.729.729 0 0 0 .448-.126.736.736 0 0 0 .252-.385c.056-.173.084-.385.084-.637s-.028-.462-.084-.63a.698.698 0 0 0-.252-.378.76.76 0 0 0-.455-.126c-.276 0-.476.096-.602.287-.122.187-.182.469-.182.847Zm5.336 1.988c-.378 0-.7-.068-.966-.203a1.384 1.384 0 0 1-.61-.644c-.14-.29-.21-.66-.21-1.113 0-.467.08-.847.239-1.141.158-.294.378-.511.658-.651.284-.14.611-.21.98-.21a2.648 2.648 0 0 1 1.19.259l-.308.805a5.168 5.168 0 0 0-.462-.161 1.455 1.455 0 0 0-.42-.063.75.75 0 0 0-.455.133.746.746 0 0 0-.273.385c-.056.168-.084.38-.084.637 0 .252.03.462.091.63a.788.788 0 0 0 .28.371c.121.08.268.119.441.119.219 0 .413-.028.581-.084.168-.06.331-.142.49-.245v.889a1.608 1.608 0 0 1-.504.217c-.173.047-.392.07-.658.07Zm4.827-3.892h1.148l-1.512 1.834L107.079 29h-1.183l-1.561-1.939V29h-1.043v-3.822h1.043v1.855l1.463-1.855Zm5.496 1.001c0 .205-.065.38-.196.525-.126.145-.315.238-.567.28v.028c.266.033.479.124.637.273a.74.74 0 0 1 .245.574c0 .163-.032.315-.098.455a.899.899 0 0 1-.294.364c-.135.103-.31.182-.525.238-.21.056-.466.084-.77.084h-1.82v-3.822h1.82c.299 0 .565.033.798.098.238.06.425.163.56.308.14.145.21.343.21.595Zm-.959 1.624c0-.15-.058-.257-.175-.322-.116-.07-.291-.105-.525-.105h-.686v.903h.707a.987.987 0 0 0 .483-.105c.131-.075.196-.198.196-.371Zm-.098-1.54c0-.121-.046-.21-.14-.266-.093-.056-.231-.084-.413-.084h-.735v.756h.616c.22 0 .385-.03.497-.091.117-.065.175-.17.175-.315ZM112.589 29v-3.822h1.043v1.477h.504c.392 0 .714.042.966.126.252.08.438.203.56.371.126.168.189.378.189.63 0 .247-.059.462-.175.644-.112.182-.292.324-.539.427-.243.098-.565.147-.966.147h-1.582Zm1.526-.721a.968.968 0 0 0 .497-.112c.13-.075.196-.198.196-.371 0-.15-.061-.257-.182-.322-.117-.065-.292-.098-.525-.098h-.469v.903h.483Zm2.289.721v-3.822h1.043V29h-1.043Zm-56.973 9.16-.616-1.225.616-1.225h.931l-.644 1.225.644 1.225h-.931Zm1.456 0-.623-1.225.623-1.225h.924l-.644 1.225.644 1.225h-.924Zm4.287.84-1.204-3.92h-.028a819.7 819.7 0 0 1 .05 1.022c.009.21.013.401.013.574V39h-.945v-4.998h1.442l1.183 3.822h.021l1.253-3.822h1.442V39h-.987v-2.366c0-.159.003-.34.007-.546.01-.205.017-.399.021-.581l.021-.42h-.028L66.147 39h-.973Zm8.158-1.918c0 .317-.044.6-.133.847a1.697 1.697 0 0 1-.371.63 1.565 1.565 0 0 1-.581.385 2.243 2.243 0 0 1-.777.126c-.266 0-.513-.042-.742-.126a1.644 1.644 0 0 1-.581-.385 1.86 1.86 0 0 1-.385-.63 2.5 2.5 0 0 1-.133-.847c0-.425.075-.782.224-1.071a1.55 1.55 0 0 1 .644-.672c.28-.154.611-.231.994-.231.36 0 .677.077.952.231.275.154.492.378.65.672.16.29.239.646.239 1.071Zm-2.64 0c0 .252.027.464.078.637a.774.774 0 0 0 .259.385.76.76 0 0 0 .455.126.729.729 0 0 0 .448-.126.736.736 0 0 0 .252-.385c.056-.173.084-.385.084-.637s-.028-.462-.084-.63a.698.698 0 0 0-.252-.378.76.76 0 0 0-.455-.126c-.275 0-.476.096-.602.287-.121.187-.182.469-.182.847Zm5.336 1.988c-.378 0-.7-.068-.966-.203a1.385 1.385 0 0 1-.61-.644c-.14-.29-.21-.66-.21-1.113 0-.467.08-.847.239-1.141.159-.294.378-.511.658-.651.285-.14.611-.21.98-.21a2.643 2.643 0 0 1 1.19.259l-.308.805a5.02 5.02 0 0 0-.462-.161 1.455 1.455 0 0 0-.42-.063.75.75 0 0 0-.455.133.753.753 0 0 0-.273.385c-.056.168-.084.38-.084.637 0 .252.03.462.09.63a.794.794 0 0 0 .28.371.79.79 0 0 0 .442.119c.22 0 .413-.028.58-.084.169-.06.332-.142.49-.245v.889a1.602 1.602 0 0 1-.503.217c-.173.047-.392.07-.658.07Zm4.828-3.892h1.148l-1.512 1.834L82.137 39h-1.183l-1.561-1.939V39H78.35v-3.822h1.043v1.855l1.463-1.855Zm5.496 1.001a.76.76 0 0 1-.196.525c-.126.145-.315.238-.567.28v.028c.266.033.478.124.637.273.163.15.245.34.245.574 0 .163-.033.315-.098.455a.91.91 0 0 1-.294.364 1.48 1.48 0 0 1-.525.238 3.03 3.03 0 0 1-.77.084h-1.82v-3.822h1.82c.298 0 .564.033.798.098.238.06.424.163.56.308.14.145.21.343.21.595Zm-.96 1.624c0-.15-.058-.257-.174-.322-.117-.07-.292-.105-.525-.105h-.686v.903h.707a.987.987 0 0 0 .483-.105c.13-.075.196-.198.196-.371Zm-.097-1.54c0-.121-.047-.21-.14-.266-.094-.056-.231-.084-.413-.084h-.735v.756h.616c.219 0 .385-.03.497-.091.116-.065.175-.17.175-.315Zm5.823.819c0 .317-.044.6-.133.847a1.696 1.696 0 0 1-.371.63 1.564 1.564 0 0 1-.581.385 2.242 2.242 0 0 1-.777.126c-.266 0-.513-.042-.742-.126a1.645 1.645 0 0 1-.581-.385 1.861 1.861 0 0 1-.385-.63 2.503 2.503 0 0 1-.133-.847c0-.425.075-.782.224-1.071a1.55 1.55 0 0 1 .644-.672c.28-.154.611-.231.994-.231.36 0 .677.077.952.231.275.154.492.378.65.672.16.29.239.646.239 1.071Zm-2.64 0c0 .252.027.464.078.637a.775.775 0 0 0 .259.385.761.761 0 0 0 .455.126.729.729 0 0 0 .448-.126.736.736 0 0 0 .252-.385c.056-.173.084-.385.084-.637s-.028-.462-.084-.63a.698.698 0 0 0-.252-.378.76.76 0 0 0-.455-.126c-.275 0-.476.096-.602.287-.121.187-.182.469-.182.847Zm5.91-1.974c.43 0 .777.168 1.043.504.266.331.399.821.399 1.47 0 .434-.063.8-.19 1.099a1.476 1.476 0 0 1-.517.665 1.32 1.32 0 0 1-.763.224 1.46 1.46 0 0 1-.476-.07 1.153 1.153 0 0 1-.336-.182 1.701 1.701 0 0 1-.245-.238h-.056a2.822 2.822 0 0 1 .056.56v1.54H92.26v-5.502h.847l.147.497h.049c.07-.103.154-.196.252-.28.098-.089.215-.159.35-.21a1.4 1.4 0 0 1 .483-.077Zm-.336.833a.747.747 0 0 0-.434.112.652.652 0 0 0-.238.343 2.08 2.08 0 0 0-.077.567v.112c0 .247.023.457.07.63a.718.718 0 0 0 .238.385c.112.089.264.133.455.133.159 0 .29-.044.392-.133a.806.806 0 0 0 .23-.392 2.21 2.21 0 0 0 .078-.63c0-.373-.058-.653-.175-.84-.112-.191-.292-.287-.54-.287Zm4.493-.833c.354 0 .658.068.91.203.256.135.455.331.595.588.14.257.21.572.21.945v.504h-2.464c.009.294.095.525.259.693.168.168.399.252.693.252.247 0 .47-.023.672-.07.2-.051.408-.128.623-.231v.805a2.368 2.368 0 0 1-.595.203 3.42 3.42 0 0 1-.75.07c-.382 0-.72-.07-1.014-.21a1.608 1.608 0 0 1-.693-.651c-.168-.29-.252-.653-.252-1.092 0-.448.074-.819.224-1.113.154-.299.366-.523.637-.672.27-.15.585-.224.945-.224Zm.007.742a.693.693 0 0 0-.504.196c-.131.13-.208.334-.231.609h1.463a.975.975 0 0 0-.084-.413.625.625 0 0 0-.238-.287.73.73 0 0 0-.406-.105Zm3.75.728c0 .163.04.287.119.371a.465.465 0 0 0 .343.126c.201 0 .388-.021.56-.063.173-.047.346-.107.518-.182v-1.652h1.043V39h-1.043v-1.519a3.93 3.93 0 0 1-.56.245c-.21.07-.448.105-.714.105-.396 0-.714-.103-.952-.308-.238-.205-.357-.513-.357-.924v-1.421h1.043v1.4Zm5.735.077c.392 0 .716.042.973.126.257.08.446.203.567.371.126.168.189.378.189.63 0 .247-.058.462-.175.644-.112.182-.292.324-.539.427-.247.098-.572.147-.973.147h-1.82v-3.822h1.043v1.477h.735Zm.686 1.141c0-.15-.061-.257-.182-.322-.117-.065-.292-.098-.525-.098h-.714v.903h.728a.968.968 0 0 0 .497-.112c.131-.075.196-.198.196-.371Zm3.691-2.688c.355 0 .658.068.91.203.257.135.455.331.595.588.14.257.21.572.21.945v.504h-2.464c.009.294.096.525.259.693.168.168.399.252.693.252.247 0 .471-.023.672-.07a3.4 3.4 0 0 0 .623-.231v.805a2.364 2.364 0 0 1-.595.203 3.43 3.43 0 0 1-.749.07c-.383 0-.721-.07-1.015-.21a1.608 1.608 0 0 1-.693-.651c-.168-.29-.252-.653-.252-1.092 0-.448.075-.819.224-1.113.154-.299.366-.523.637-.672a1.92 1.92 0 0 1 .945-.224Zm.007.742a.696.696 0 0 0-.504.196c-.131.13-.208.334-.231.609h1.463a.975.975 0 0 0-.084-.413.625.625 0 0 0-.238-.287.73.73 0 0 0-.406-.105Zm3.275 1.085-.637-1.225h.924l.623 1.225-.623 1.225h-.924l.637-1.225Zm1.456 0-.644-1.225h.924l.623 1.225-.623 1.225h-.924l.644-1.225Z"/></g><defs><clipPath id="a"><path fill="#fff" transform="translate(.5)" d="M0 0h145v42H0z"/></clipPath></defs></svg>