<svg width="158" height="44" fill="none" xmlns="http://www.w3.org/2000/svg"><g clip-path="url(#a)" fill="#1F1A17"><path d="m124.585 13.45 5.806-4.322h-19.442v25.898h19.442V30.7h-13.889v-6.61h11.871v-4.323h-11.871V13.45h8.083ZM96.26 19.214h-6.736V13.45H100.3l5.81-4.323H83.971v25.898h11.571c6.483 0 10.228-2.969 10.228-8.14 0-4.958-3.366-7.672-9.51-7.672ZM95.332 30.7h-5.809v-7.163h5.81c3.535 0 5.174 1.188 5.174 3.605 0 2.416-1.765 3.558-5.175 3.558Zm50.8-21.572h-10.563v25.898h5.554v-7.335h5.052c6.732 0 10.941-3.558 10.941-9.282 0-5.723-4.209-9.281-10.984-9.281Zm-.126 14.24h-4.923V13.45h4.923c3.578 0 5.514 1.78 5.514 4.958s-1.936 4.959-5.514 4.959Zm-71.549 6.061a9.942 9.942 0 0 1-4.797 1.231c-5.009 0-8.627-3.605-8.627-8.563 0-4.959 3.618-8.564 8.627-8.564 1.81-.04 3.579.553 5.05 1.612l4-2.965-.253-.255c-2.313-2.08-5.43-3.139-8.966-3.139-3.827 0-7.323 1.315-9.846 3.688a12.816 12.816 0 0 0-3.873 9.454c-.044 3.601 1.347 7.077 3.873 9.62 2.65 2.502 6.184 3.902 9.806 3.816 3.997 0 7.489-1.4 9.846-3.942l-3.575-2.672-1.265.679ZM38.39 8.959c1.01 1.314 1.853 2.754 2.566 4.28L21.514 27.69l-8.166-5.17v-6.187l8.123 5.127 16.92-12.5ZM5.056 22.097c0-.298 0-.55.043-.848l-4.922-.255c0 .341-.044.722-.044 1.06 0 5.935 2.4 11.317 6.27 15.216l3.493-3.518a16.346 16.346 0 0 1-4.84-11.655ZM21.471 5.566c.296 0 .548 0 .843.043L22.567.65c-.34 0-.718-.043-1.053-.043-5.892 0-11.236 2.417-15.11 6.316l3.492 3.519A16.2 16.2 0 0 1 21.47 5.566Zm0 33.062c-.296 0-.548 0-.843-.043l-.253 4.958c.34 0 .718.043 1.053.043 5.892 0 11.24-2.416 15.11-6.316l-3.492-3.518c-2.948 3.052-7.03 4.876-11.575 4.876Z"/><path d="m30.73 8.449 4.165-3.095C31.234 2.388 26.563.564 21.471.564v4.959c3.453.043 6.65 1.102 9.258 2.926Zm12.122 13.648a23.19 23.19 0 0 0-.339-3.857l-4.587 3.433v.424a16.48 16.48 0 0 1-5.428 12.25l3.323 3.688a21.533 21.533 0 0 0 7.031-15.938ZM21.471 38.628c-4.84 0-9.175-2.119-12.163-5.469l-3.661 3.35c3.914 4.366 9.553 7.077 15.824 7.077v-4.958ZM10.487 9.846 7.16 6.158A21.456 21.456 0 0 0 .133 22.097h4.923c0-4.833 2.105-9.239 5.43-12.251Z"/></g><defs><clipPath id="a"><path fill="#fff" d="M0 0h158v44H0z"/></clipPath></defs></svg>