<svg width="144" height="44" fill="none" xmlns="http://www.w3.org/2000/svg"><path d="M29.608.004 15.054 14.669h14.554V44l14.558-14.632V.004H29.608Z" fill="#1F1A17"/><path d="m15.054 44 14.554-14.666H15.054V0L.5 14.632V44h14.554Zm43.68-7.333h7.639V13.935h11.645v22.732h7.64V7.336H58.733v29.33Zm74.207-18.341h-6.523v-4.391h14.539v-6.6h-22.181v29.332h14.531c5.824 0 10.193-2.95 10.193-9.173s-4.369-9.168-10.559-9.168Zm-.731 12.107h-5.792v-5.859h5.798c1.805 0 3.631.716 3.631 2.92 0 2.205-1.831 2.95-3.631 2.95m-27.867 0c-5.1 0-7.965-3.768-7.965-8.424 0-3.739 2.086-8.432 7.823-8.432a8.729 8.729 0 0 1 3.709.865 8.804 8.804 0 0 1 2.997 2.365l4.646-4.682a15.27 15.27 0 0 0-5.243-4.077 15.15 15.15 0 0 0-6.464-1.453c-8.44 0-15.1 6.293-15.1 15.399 0 8.505 6.66 15.399 15.1 15.399 2.397.003 4.76-.563 6.9-1.652a15.296 15.296 0 0 0 5.414-4.615l-4.675-4.712a8.29 8.29 0 0 1-3.038 2.96 8.204 8.204 0 0 1-4.093 1.058" fill="#1F1A17"/></svg>