<svg width="288" height="45" fill="none" xmlns="http://www.w3.org/2000/svg"><path d="M79.952 8.993C31.057 18.533 36.066 17.547 34.25 18c-2.654.666-5.597 1.567-6.348 1.935-1.346.674-2.2 1.927-1.918 2.812.055.164.196.439.321.595.18.227.227.368.227.674 0 .36.024.407.259.548.258.15.266.165.234.572-.039.603-.258 5.468-.258 5.734 0 .188-.023.212-.156.172-.235-.07-.548.157-.548.392v.196h2.035c1.917 0 2.035-.008 2.035-.141 0-.22-.345-.51-.54-.447-.134.04-.165.008-.196-.211-.047-.314-.282-5.648-.25-5.68.007-.015.226.048.485.142.368.125 1.863.501 3.616.893.125.031.172.102.172.243 0 .11.055.211.125.242.118.047.125.196.078 1.465-.078 2.21-.117 2.554-.29 2.554-.077 0-.18.07-.226.157-.078.156-.063.156 1.174.156 1.158 0 1.26-.008 1.237-.14-.016-.071-.102-.142-.188-.158-.204-.03-.235-.297-.313-2.53-.047-1.323-.04-1.457.078-1.504.078-.03.916.102 1.87.29.955.188 2.16.423 2.677.51a54.78 54.78 0 0 1 1.127.21l.18.04-.047.995c-.03.548-.07 1.355-.093 1.794l-.047.806h-.376c-.525 0-.932.314-.94.721v.298h7.436v-.306c0-.415-.376-.713-.892-.713-.438 0-.415.079-.478-1.629-.046-1.214-.039-1.277.094-1.237.079.015.87.133 1.761.25 1.464.196 1.62.235 1.675.376.032.094.047.501.032.909-.016.572-.047.76-.149.838-.102.078-.023.094.462.094.477 0 .563-.016.462-.094-.173-.133-.259-1.575-.102-1.708.086-.07.587-.039 2.011.118 2.998.321 6.911.65 9.55.799l.915.055v1.152h-.438c-.384 0-.494.038-.822.281-.368.267-.384.298-.384.666v.384h9.339l-.055-.243a3.071 3.071 0 0 1-.047-.392c0-.078-.165-.266-.36-.423-.313-.235-.43-.274-.775-.274-.462 0-.509-.055-.509-.525v-.282l1.472.055c3.373.126 7.466.204 10.629.204h3.365l.211-.22.22-.227-4.368-.047c-2.403-.031-5.142-.086-6.09-.125-2.872-.125-5.4-.258-5.43-.29-.064-.055-.635-12.995-.572-13.019.031-.008.266-.133.524-.282l.47-.258.023-.83c.008-.463.055-.839.086-.839.102 0 44.942-7.12 45.153-7.167.094-.024 1.675-1.402 3.523-3.07 4.03-3.643 3.678-3.314 3.537-3.306-.062 0-18.502 3.595-40.973 7.982Zm-18.198 6.924c0 .251.032.29.548.564.4.22.548.345.548.462.008.36-.564 12.377-.587 12.4-.149.157-16.616-1.809-16.804-2.005-.04-.047-.376-6.674-.376-7.418 0-.211.047-.266.43-.454l.43-.212v-1.073l1.355-.211c.94-.15 13.11-2.1 14.401-2.311.032 0 .055.11.055.258Zm-21.289 3.251c0 .04.196.188.438.321l.43.251-.046.72c-.063.925-.274 5.539-.274 5.9v.281l-.407-.055c-1.714-.227-6.363-1.316-7.944-1.856-1.933-.666-2.998-1.363-2.998-1.966 0-1.144 2.818-2.217 8.883-3.384 1.472-.282 1.918-.33 1.918-.212Z" fill="#1F1A17"/><path d="M15.419 31.592c-1.519.462-3.381 1.19-4.156 1.621-2.012 1.128-2.45 2.225-1.3 3.236 4.204 3.689 28.412 5.584 55.548 4.347 19.418-.885 36.763-3.282 44.214-6.102 1.534-.58 1.518-.596-.259-.165-9.118 2.201-24.505 3.933-40.707 4.583-9.048.36-19.356.376-27.042.039-17.782-.783-28.2-3.118-27.08-6.063.171-.47.954-1.152 1.917-1.669.258-.14.415-.25.352-.25s-.736.188-1.487.423Z" fill="#1F1A17"/><path d="M6.144 35.39c-2.95.894-4.79 1.763-5.62 2.656C.102 38.493 0 38.72 0 39.16c0 .415.149.681.618 1.104 3.96 3.564 27.246 5.507 53.31 4.45 20.733-.839 38.218-3.189 46.553-6.244.533-.196.947-.368.932-.383-.016-.016-.783.14-1.706.352-13.361 3.07-35.785 4.935-57.168 4.763-6.512-.055-10.026-.173-14.95-.494-14.675-.94-23.128-3.094-22.353-5.687.141-.462.9-1.183 1.73-1.645.368-.211.61-.376.548-.376-.063.008-.681.18-1.37.392ZM146.17.636v1.878h-5.711V13h-2.24V.636h7.951ZM155.472 13l-4.069-5.403h-1.099V13h-2.24V.636h2.24V5.72h.561L155.26.636h2.759l-4.884 5.639L158.23 13h-2.758Zm5.384.169v-1.883h.707c.318 0 .579-.047.785-.14.205-.092.37-.225.495-.398.128-.173.235-.374.32-.603l.163-.417-4.419-9.092h2.342l3.079 6.617L166.99.636h2.306l-4.262 10.082a7.9 7.9 0 0 1-.682 1.213 2.95 2.95 0 0 1-1.008.9c-.411.225-.946.338-1.606.338h-.882Zm18.478-1.497h-1.968l-2.439-3.622v-.121h2.089l2.318 3.743Zm0-7.413L177.016 8h-2.089v-.12l2.439-3.622h1.968Zm3.683 7.413h-1.969L178.61 8.05v-.121h2.088l2.319 3.743Zm0-7.413L180.698 8h-2.088v-.12l2.438-3.622h1.969Zm2.294 8.91v-1.883h.706c.318 0 .579-.047.785-.14.205-.092.37-.225.495-.398.128-.173.235-.374.32-.603l.163-.417-4.419-9.092h2.342l3.079 6.617 2.662-6.617h2.306l-4.262 10.082a7.74 7.74 0 0 1-.682 1.213 2.95 2.95 0 0 1-1.008.9c-.411.225-.946.338-1.606.338h-.881Zm9.232 2.813v-4.811h.827c.277-.221.537-.534.778-.936.242-.402.447-.954.616-1.654.169-.7.286-1.606.35-2.717l.326-5.228h7.903v10.535h1.376v4.8h-2.149V13h-7.878v2.982h-2.149Zm3.435-4.811h5.215V2.514h-3.736l-.194 3.35a20.359 20.359 0 0 1-.253 2.258c-.117.664-.264 1.25-.441 1.757a6.953 6.953 0 0 1-.591 1.292ZM208.544.636h2.74l3.671 8.96h.145l3.67-8.96h2.741V13h-2.149V4.506h-.115l-3.417 8.458h-1.606l-3.416-8.476h-.115V13h-2.149V.636Zm25.989 4.172h-2.258a2.823 2.823 0 0 0-.356-.984 2.655 2.655 0 0 0-.646-.737 2.7 2.7 0 0 0-.882-.452 3.437 3.437 0 0 0-1.056-.157c-.672 0-1.268.169-1.787.507-.519.334-.926.825-1.22 1.473-.293.644-.44 1.43-.44 2.36 0 .946.147 1.743.44 2.39.298.645.705 1.132 1.22 1.462.519.326 1.113.489 1.781.489.37 0 .716-.049 1.038-.145.326-.1.618-.248.876-.44a2.702 2.702 0 0 0 1.032-1.678l2.258.011a4.868 4.868 0 0 1-.55 1.654 4.87 4.87 0 0 1-1.092 1.364c-.451.39-.978.697-1.582.918a5.9 5.9 0 0 1-2.01.326c-1.087 0-2.057-.252-2.91-.755-.853-.503-1.525-1.23-2.016-2.179-.491-.95-.737-2.089-.737-3.417 0-1.332.248-2.47.743-3.417.495-.95 1.169-1.676 2.022-2.179.853-.503 1.819-.755 2.898-.755a6.15 6.15 0 0 1 1.919.29 4.917 4.917 0 0 1 1.582.851c.463.37.843.825 1.141 1.365.302.535.499 1.147.592 1.835Zm1.785 6.864 2.318-3.743h2.089v.12l-2.439 3.623h-1.968Zm0-7.413h1.968l2.439 3.622V8h-2.089l-2.318-3.742Zm3.719 7.413 2.318-3.743h2.089v.12l-2.439 3.623h-1.968Zm0-7.413h1.968l2.439 3.622V8h-2.089l-2.318-3.742Zm-94.175 18.377v1.015h-6.091V35h-1.129V22.636h7.22Zm12.163 6.182c0 1.288-.229 2.409-.688 3.363-.459.95-1.091 1.686-1.896 2.21-.801.518-1.722.778-2.765.778-1.042 0-1.966-.26-2.771-.779-.8-.523-1.43-1.26-1.889-2.21-.455-.953-.682-2.074-.682-3.362 0-1.288.227-2.407.682-3.356.459-.954 1.091-1.69 1.895-2.21.805-.523 1.727-.785 2.765-.785 1.043 0 1.964.262 2.765.785.805.52 1.437 1.256 1.896 2.21.459.95.688 2.068.688 3.356Zm-1.099 0c0-1.107-.185-2.054-.555-2.843-.37-.793-.875-1.399-1.515-1.817-.64-.419-1.367-.628-2.18-.628-.809 0-1.533.21-2.173.628-.64.418-1.147 1.022-1.521 1.81-.37.79-.556 1.74-.556 2.85 0 1.107.186 2.055.556 2.844.37.788.875 1.394 1.515 1.817.64.418 1.366.627 2.179.627.813 0 1.54-.209 2.18-.627.644-.419 1.151-1.023 1.521-1.811.37-.793.553-1.743.549-2.85ZM160.755 35V22.636h3.991c.877 0 1.61.17 2.197.508a3.266 3.266 0 0 1 1.334 1.364c.302.575.453 1.223.453 1.944 0 .72-.149 1.37-.447 1.95a3.313 3.313 0 0 1-1.328 1.37c-.587.334-1.318.501-2.191.501h-3.139V29.26h3.109c.648 0 1.185-.12 1.612-.362a2.34 2.34 0 0 0 .953-1.002c.214-.423.32-.904.32-1.443 0-.54-.106-1.02-.32-1.443a2.287 2.287 0 0 0-.96-.996c-.426-.242-.967-.362-1.623-.362h-2.832V35h-1.129Zm20.761-6.182c0 1.288-.229 2.409-.688 3.363-.459.95-1.091 1.686-1.895 2.21-.801.518-1.723.778-2.765.778-1.043 0-1.966-.26-2.771-.779-.801-.523-1.431-1.26-1.89-2.21-.455-.953-.682-2.074-.682-3.362 0-1.288.227-2.407.682-3.356.459-.954 1.091-1.69 1.896-2.21.805-.523 1.726-.785 2.765-.785 1.042 0 1.964.262 2.765.785.804.52 1.436 1.256 1.895 2.21.459.95.688 2.068.688 3.356Zm-1.098 0c0-1.107-.186-2.054-.556-2.843-.37-.793-.875-1.399-1.515-1.817-.64-.419-1.366-.628-2.179-.628-.809 0-1.534.21-2.174.628-.64.418-1.147 1.022-1.521 1.81-.37.79-.555 1.74-.555 2.85 0 1.107.185 2.055.555 2.844.37.788.875 1.394 1.515 1.817.64.418 1.367.627 2.18.627.813 0 1.539-.209 2.179-.627.644-.419 1.151-1.023 1.521-1.811.371-.793.554-1.743.55-2.85ZM183.081 38v-4.014h.785c.286-.298.55-.69.791-1.177.242-.491.443-1.123.604-1.896.165-.777.271-1.747.32-2.91l.247-5.367h7.069v11.35h1.449v3.984h-1.074V35h-9.116v3h-1.075Zm2.137-4.014h6.605V23.65h-4.969l-.193 4.352a22.237 22.237 0 0 1-.247 2.53 11.61 11.61 0 0 1-.483 1.962 6.818 6.818 0 0 1-.713 1.49ZM196.799 35h-1.183l4.497-12.364h1.207L205.818 35h-1.183l-3.876-10.897h-.084L196.799 35Zm.851-4.739h6.134v1.014h-6.134v-1.014Zm15.068-7.625h1.304l4.486 10.77h.108l4.486-10.77h1.304V35h-1.063v-9.979h-.096L219.075 35h-1.026l-4.172-9.979h-.096V35h-1.063V22.636Zm25.111 6.182c0 1.288-.23 2.409-.688 3.363-.459.95-1.091 1.686-1.896 2.21-.801.518-1.723.778-2.765.778s-1.966-.26-2.771-.779c-.801-.523-1.431-1.26-1.889-2.21-.455-.953-.683-2.074-.683-3.362 0-1.288.228-2.407.683-3.356.458-.954 1.09-1.69 1.895-2.21.805-.523 1.727-.785 2.765-.785 1.042 0 1.964.262 2.765.785.805.52 1.437 1.256 1.896 2.21.458.95.688 2.068.688 3.356Zm-1.099 0c0-1.107-.185-2.054-.555-2.843-.371-.793-.876-1.399-1.516-1.817-.639-.419-1.366-.628-2.179-.628-.809 0-1.533.21-2.173.628-.64.418-1.147 1.022-1.521 1.81-.371.79-.556 1.74-.556 2.85 0 1.107.185 2.055.556 2.844.37.788.875 1.394 1.515 1.817.64.418 1.366.627 2.179.627.813 0 1.54-.209 2.179-.627.644-.419 1.151-1.023 1.522-1.811.37-.793.553-1.743.549-2.85Zm13.512-2.318h-1.135a3.518 3.518 0 0 0-.458-1.171 3.636 3.636 0 0 0-.821-.948 3.76 3.76 0 0 0-1.123-.628 4.03 4.03 0 0 0-1.359-.223 3.92 3.92 0 0 0-2.137.61c-.64.406-1.153 1.004-1.539 1.793-.383.784-.574 1.746-.574 2.885 0 1.147.191 2.113.574 2.898.386.785.899 1.38 1.539 1.787a3.953 3.953 0 0 0 2.137.603c.487 0 .94-.074 1.359-.223a3.835 3.835 0 0 0 1.123-.622c.33-.27.603-.585.821-.947.221-.363.374-.755.458-1.178h1.135a4.937 4.937 0 0 1-.567 1.588 4.727 4.727 0 0 1-1.051 1.28 4.713 4.713 0 0 1-1.461.857 5.17 5.17 0 0 1-1.817.308c-1.038 0-1.96-.26-2.765-.779-.805-.523-1.436-1.26-1.895-2.21-.455-.95-.682-2.07-.682-3.362 0-1.292.227-2.413.682-3.362.459-.95 1.09-1.685 1.895-2.204.805-.523 1.727-.785 2.765-.785.66 0 1.266.103 1.817.308a4.559 4.559 0 0 1 1.461.858 4.71 4.71 0 0 1 1.051 1.28c.278.486.467 1.015.567 1.587Zm9.818 8.5-4.256-5.832h-1.781V35h-1.129V22.636h1.129v5.524h1.117l4.558-5.524h1.34l-4.582 5.573L261.412 35h-1.352Zm3.476 0V22.636h4.171c.805 0 1.475.141 2.01.423.54.282.944.666 1.214 1.153.269.487.404 1.04.404 1.66 0 .515-.086.956-.259 1.322a2.347 2.347 0 0 1-.707.888 2.899 2.899 0 0 1-.996.489v.096c.399.028.785.17 1.159.423.375.25.683.6.924 1.05.242.451.362.99.362 1.618 0 .624-.139 1.181-.416 1.672-.278.487-.705.872-1.28 1.154-.572.277-1.3.416-2.185.416h-4.401Zm1.129-1.014h3.272c.953 0 1.658-.211 2.112-.634.459-.423.689-.954.689-1.594 0-.47-.115-.897-.344-1.28a2.433 2.433 0 0 0-.96-.917c-.411-.226-.894-.338-1.449-.338h-3.32v4.763Zm0-5.765h3.145c.487 0 .913-.101 1.28-.302a2.2 2.2 0 0 0 .857-.833c.205-.355.308-.76.308-1.214 0-.656-.214-1.19-.64-1.6-.427-.414-1.063-.621-1.908-.621h-3.042v4.57Zm10.692-.151h3.822c.825 0 1.525.139 2.101.416.579.278 1.022.67 1.328 1.177.306.503.459 1.1.459 1.787 0 .709-.153 1.328-.459 1.86a3.12 3.12 0 0 1-1.322 1.243c-.576.298-1.278.447-2.107.447h-4.637V22.636h1.129v11.368h3.508c.591 0 1.092-.115 1.503-.344.415-.234.73-.543.948-.93.217-.39.326-.825.326-1.304a2.16 2.16 0 0 0-.737-1.666c-.487-.45-1.167-.676-2.04-.676h-3.822V28.07Zm10.293-5.434V35h-1.129V22.636h1.129Z" fill="#1F1A17"/></svg>