<svg width="148" height="62" fill="none" xmlns="http://www.w3.org/2000/svg"><g clip-path="url(#a)"><mask id="b" maskUnits="userSpaceOnUse" x="0" y="1" width="148" height="46" fill="#000"><path fill="#fff" d="M0 1h148v46H0z"/><path d="M.836 34c-.135 0-.135-.225 0-.225h1.845c.18 0 .315-.09.315-.315V14.065c0-.225-.09-.315-.315-.315H.431c-.045 0-.135 0-.135-.09s.09-.135.135-.135h2.25c.18 0 .315-.09.315-.315v-1.44c0-6.84 3.87-11.025 10.035-10.44 2.565.27 1.62 2.16.135 1.755C4.976.88 4.661 5.335 4.661 11.77v1.44c0 .225.09.315.315.315h3.15c.18 0 .18.225 0 .225h-3.15c-.225 0-.315.09-.315.315V33.46c0 .225.09.315.315.315h1.845c.135 0 .135.225 0 .225H.836Zm22.65-11.385c-.81 5.895-4.095 11.61-9.135 11.61-3.33 0-5.22-1.935-5.22-4.725 0-4.77 5.355-5.085 10.305-6.705 3.735-1.215 4.095-2.745 4.095-5.085 0-2.115-1.44-4.5-5.13-4.5-3.555 0-5.58 2.295-5.58 4.59 0 .585.315 1.215.315 1.755 0 .585-.45.99-.945.99-.585 0-1.035-.495-1.035-1.71 0-3.195 3.105-5.85 7.245-5.85 4.68 0 6.75 2.43 6.75 5.13v14.04c0 .855.54 1.62 1.44 1.62.72 0 1.35-.585 1.35-1.53 0-.09.045-.135.09-.135.09 0 .135.045.135.135 0 1.35-.945 1.89-2.205 1.89-1.53 0-2.475-1.08-2.475-2.925v-8.595Zm-8.82 11.205c5.67 0 8.82-8.055 8.82-13.815-.36 1.305-1.35 2.07-3.825 2.97-3.42 1.215-8.64 1.62-8.64 6.39v.405c0 2.295 1.35 4.05 3.645 4.05Zm23.172-20.61h-.315c-4.23 0-7.74 3.15-7.74 10.125v.495c0 5.985 1.8 10.215 7.605 10.215 4.545 0 6.75-3.645 5.895-6.255-.45-1.26 1.575-1.8 1.71-.09.27 3.285-3.42 6.525-7.56 6.525-6.57 0-9.495-4.5-9.495-10.395v-.495c0-6.84 4.995-10.35 9.585-10.35h.315c4.32 0 7.38 2.295 7.065 5.58-.18 1.8-2.25 1.17-1.8-.045.945-2.565-.855-5.31-5.265-5.31Zm17.374 21.015c-6.48 0-9.18-4.68-9.045-10.89.135-6.3 4.725-10.35 9.945-10.35 4.23 0 7.02 1.98 7.02 5.265 0 2.43-2.34 4.41-5.085 5.13-4.545 1.125-10.395 2.43-9.45 6.21 1.17 2.745 2.745 4.41 6.615 4.41 4.41 0 7.11-3.6 6.3-6.21-.45-1.35 1.665-1.755 1.71-.09.135 3.285-3.825 6.525-8.01 6.525Zm6.255-16.155c0-2.7-1.395-4.86-5.58-4.86-4.635 0-7.74 3.555-8.01 9.72-.045 1.845.09 3.825.45 5.58.315-3.42 5.445-4.23 9.45-5.355 2.295-.675 3.69-2.475 3.69-5.085Zm12.127-5.085c2.205 0 4.275.585 5.85 1.665a3.64 3.64 0 0 1-.45-1.755c0-2.25 2.115-4.185 4.32-4.185 1.17 0 1.62.45 1.62.99 0 .45-.36.855-.9.855-.45 0-.99-.225-1.44-.225-1.8 0-3.285 1.26-3.285 2.745 0 .585.18 1.26.54 1.845 1.71 1.305 2.835 3.285 2.835 5.985v.405c0 4.59-3.15 8.28-9.135 8.28-2.475 0-4.41-.585-5.895-1.665-1.98.27-3.015 1.845-3.015 3.42 0 1.62 1.17 3.24 3.6 3.24h10.215c3.375 0 5.355 2.52 5.355 5.265 0 3.195-2.745 6.66-9.135 6.66H72.47c-6.84 0-9.495-3.15-9.495-6.075 0-2.07 1.305-4.005 3.33-4.635-1.845-.585-2.7-2.07-2.7-3.6 0-2.025 1.44-4.095 3.825-4.41-1.98-1.53-2.97-3.87-2.97-6.48v-.405c0-4.995 4.32-7.92 9.135-7.92Zm0 .225c-3.735 0-7.335 2.07-7.335 7.695v.405c0 4.635 2.115 8.1 7.29 8.1s7.335-3.465 7.335-8.1v-.405c0-5.625-3.51-7.695-7.29-7.695Zm-5.31 22.95c-.495 0-.9-.045-1.305-.135-1.53.405-2.61 2.25-2.61 4.23 0 2.835 1.71 6.03 8.1 6.03h2.205c5.85 0 8.235-2.97 8.235-5.67 0-2.25-1.665-4.455-4.455-4.455h-10.17Zm14.402-22.5c0-.09.045-.135.09-.135h4.59c.045 0 .135.045.135.135 0 .045-.09.09-.135.09h-.675v18.405c0 1.125.54 1.62 1.44 1.62.72 0 1.35-.585 1.35-1.53 0-.18.225-.18.225 0 0 1.35-.945 1.935-2.205 1.935-1.53 0-2.475-1.125-2.475-2.97V14.92c0-.63-.315-1.17-.9-1.17h-1.35a.097.097 0 0 1-.09-.09Zm1.98-8.73c0-.675.495-1.125 1.17-1.125.675 0 1.125.45 1.125 1.125s-.45 1.17-1.125 1.17-1.17-.495-1.17-1.17Zm22.487 9.045v18.18c0 .855.495 1.62 1.395 1.62.72 0 1.35-.585 1.35-1.53 0-.09.045-.135.135-.135.045 0 .135.045.135.135 0 1.35-.99 1.89-2.25 1.89-1.53 0-2.43-1.08-2.43-2.925V22.3c-1.08 6.075-4.05 11.925-8.865 11.925-3.105 0-5.94-1.44-5.94-6.66v-12.69c0-.63-.315-1.125-.9-1.125h-1.35c-.18 0-.18-.225 0-.225h5.265c.18 0 .18.225 0 .225h-1.35V27.7c0 5.67 2.295 6.21 4.5 6.21 4.23 0 6.93-5.265 8.145-10.8.36-2.115.495-2.88.495-5.94v-3.195c0-.315.135-.45.45-.45h.765c.315 0 .45.135.45.45Zm18.176 8.685c-1.08 5.265-4.14 11.52-8.955 11.52-3.06 0-6.39-1.845-6.39-8.865v-.945c0-7.29 5.49-11.34 11.295-11.34 1.35 0 2.655.045 4.05.045V2.815c0-.63-.315-1.125-.9-1.125h-2.34c-.18 0-.18-.225 0-.225h5.58c.18 0 .18.225 0 .225h-.675v30.465c0 1.035.495 1.62 1.395 1.62.72 0 1.35-.585 1.35-1.53 0-.09.045-.135.135-.135.045 0 .135.045.135.135 0 1.305-.855 1.89-2.07 1.89-1.89 0-2.61-1.485-2.61-3.42V22.66Zm-13.635 1.665v.9c0 7.47 2.475 8.73 4.5 8.73h.18c4.545 0 7.47-5.715 8.64-10.8.225-1.665.315-3.285.315-4.77v-5.13h-3.78c-5.985 0-9.855 4.41-9.855 11.07Zm27.233 9.9c-6.48 0-9.18-4.68-9.045-10.89.135-6.3 4.725-10.35 9.945-10.35 4.23 0 7.02 1.98 7.02 5.265 0 2.43-2.34 4.41-5.085 5.13-4.545 1.125-10.395 2.43-9.45 6.21 1.17 2.745 2.745 4.41 6.615 4.41 4.41 0 7.11-3.6 6.3-6.21-.45-1.35 1.665-1.755 1.71-.09.135 3.285-3.825 6.525-8.01 6.525Zm6.255-16.155c0-2.7-1.395-4.86-5.58-4.86-4.635 0-7.74 3.555-8.01 9.72-.045 1.845.09 3.825.45 5.58.315-3.42 5.445-4.23 9.45-5.355 2.295-.675 3.69-2.475 3.69-5.085Z"/></mask><path d="M.836 34c-.135 0-.135-.225 0-.225h1.845c.18 0 .315-.09.315-.315V14.065c0-.225-.09-.315-.315-.315H.431c-.045 0-.135 0-.135-.09s.09-.135.135-.135h2.25c.18 0 .315-.09.315-.315v-1.44c0-6.84 3.87-11.025 10.035-10.44 2.565.27 1.62 2.16.135 1.755C4.976.88 4.661 5.335 4.661 11.77v1.44c0 .225.09.315.315.315h3.15c.18 0 .18.225 0 .225h-3.15c-.225 0-.315.09-.315.315V33.46c0 .225.09.315.315.315h1.845c.135 0 .135.225 0 .225H.836Zm22.65-11.385c-.81 5.895-4.095 11.61-9.135 11.61-3.33 0-5.22-1.935-5.22-4.725 0-4.77 5.355-5.085 10.305-6.705 3.735-1.215 4.095-2.745 4.095-5.085 0-2.115-1.44-4.5-5.13-4.5-3.555 0-5.58 2.295-5.58 4.59 0 .585.315 1.215.315 1.755 0 .585-.45.99-.945.99-.585 0-1.035-.495-1.035-1.71 0-3.195 3.105-5.85 7.245-5.85 4.68 0 6.75 2.43 6.75 5.13v14.04c0 .855.54 1.62 1.44 1.62.72 0 1.35-.585 1.35-1.53 0-.09.045-.135.09-.135.09 0 .135.045.135.135 0 1.35-.945 1.89-2.205 1.89-1.53 0-2.475-1.08-2.475-2.925v-8.595Zm-8.82 11.205c5.67 0 8.82-8.055 8.82-13.815-.36 1.305-1.35 2.07-3.825 2.97-3.42 1.215-8.64 1.62-8.64 6.39v.405c0 2.295 1.35 4.05 3.645 4.05Zm23.172-20.61h-.315c-4.23 0-7.74 3.15-7.74 10.125v.495c0 5.985 1.8 10.215 7.605 10.215 4.545 0 6.75-3.645 5.895-6.255-.45-1.26 1.575-1.8 1.71-.09.27 3.285-3.42 6.525-7.56 6.525-6.57 0-9.495-4.5-9.495-10.395v-.495c0-6.84 4.995-10.35 9.585-10.35h.315c4.32 0 7.38 2.295 7.065 5.58-.18 1.8-2.25 1.17-1.8-.045.945-2.565-.855-5.31-5.265-5.31Zm17.374 21.015c-6.48 0-9.18-4.68-9.045-10.89.135-6.3 4.725-10.35 9.945-10.35 4.23 0 7.02 1.98 7.02 5.265 0 2.43-2.34 4.41-5.085 5.13-4.545 1.125-10.395 2.43-9.45 6.21 1.17 2.745 2.745 4.41 6.615 4.41 4.41 0 7.11-3.6 6.3-6.21-.45-1.35 1.665-1.755 1.71-.09.135 3.285-3.825 6.525-8.01 6.525Zm6.255-16.155c0-2.7-1.395-4.86-5.58-4.86-4.635 0-7.74 3.555-8.01 9.72-.045 1.845.09 3.825.45 5.58.315-3.42 5.445-4.23 9.45-5.355 2.295-.675 3.69-2.475 3.69-5.085Zm12.127-5.085c2.205 0 4.275.585 5.85 1.665a3.64 3.64 0 0 1-.45-1.755c0-2.25 2.115-4.185 4.32-4.185 1.17 0 1.62.45 1.62.99 0 .45-.36.855-.9.855-.45 0-.99-.225-1.44-.225-1.8 0-3.285 1.26-3.285 2.745 0 .585.18 1.26.54 1.845 1.71 1.305 2.835 3.285 2.835 5.985v.405c0 4.59-3.15 8.28-9.135 8.28-2.475 0-4.41-.585-5.895-1.665-1.98.27-3.015 1.845-3.015 3.42 0 1.62 1.17 3.24 3.6 3.24h10.215c3.375 0 5.355 2.52 5.355 5.265 0 3.195-2.745 6.66-9.135 6.66H72.47c-6.84 0-9.495-3.15-9.495-6.075 0-2.07 1.305-4.005 3.33-4.635-1.845-.585-2.7-2.07-2.7-3.6 0-2.025 1.44-4.095 3.825-4.41-1.98-1.53-2.97-3.87-2.97-6.48v-.405c0-4.995 4.32-7.92 9.135-7.92Zm0 .225c-3.735 0-7.335 2.07-7.335 7.695v.405c0 4.635 2.115 8.1 7.29 8.1s7.335-3.465 7.335-8.1v-.405c0-5.625-3.51-7.695-7.29-7.695Zm-5.31 22.95c-.495 0-.9-.045-1.305-.135-1.53.405-2.61 2.25-2.61 4.23 0 2.835 1.71 6.03 8.1 6.03h2.205c5.85 0 8.235-2.97 8.235-5.67 0-2.25-1.665-4.455-4.455-4.455h-10.17Zm14.402-22.5c0-.09.045-.135.09-.135h4.59c.045 0 .135.045.135.135 0 .045-.09.09-.135.09h-.675v18.405c0 1.125.54 1.62 1.44 1.62.72 0 1.35-.585 1.35-1.53 0-.18.225-.18.225 0 0 1.35-.945 1.935-2.205 1.935-1.53 0-2.475-1.125-2.475-2.97V14.92c0-.63-.315-1.17-.9-1.17h-1.35a.097.097 0 0 1-.09-.09Zm1.98-8.73c0-.675.495-1.125 1.17-1.125.675 0 1.125.45 1.125 1.125s-.45 1.17-1.125 1.17-1.17-.495-1.17-1.17Zm22.487 9.045v18.18c0 .855.495 1.62 1.395 1.62.72 0 1.35-.585 1.35-1.53 0-.09.045-.135.135-.135.045 0 .135.045.135.135 0 1.35-.99 1.89-2.25 1.89-1.53 0-2.43-1.08-2.43-2.925V22.3c-1.08 6.075-4.05 11.925-8.865 11.925-3.105 0-5.94-1.44-5.94-6.66v-12.69c0-.63-.315-1.125-.9-1.125h-1.35c-.18 0-.18-.225 0-.225h5.265c.18 0 .18.225 0 .225h-1.35V27.7c0 5.67 2.295 6.21 4.5 6.21 4.23 0 6.93-5.265 8.145-10.8.36-2.115.495-2.88.495-5.94v-3.195c0-.315.135-.45.45-.45h.765c.315 0 .45.135.45.45Zm18.176 8.685c-1.08 5.265-4.14 11.52-8.955 11.52-3.06 0-6.39-1.845-6.39-8.865v-.945c0-7.29 5.49-11.34 11.295-11.34 1.35 0 2.655.045 4.05.045V2.815c0-.63-.315-1.125-.9-1.125h-2.34c-.18 0-.18-.225 0-.225h5.58c.18 0 .18.225 0 .225h-.675v30.465c0 1.035.495 1.62 1.395 1.62.72 0 1.35-.585 1.35-1.53 0-.09.045-.135.135-.135.045 0 .135.045.135.135 0 1.305-.855 1.89-2.07 1.89-1.89 0-2.61-1.485-2.61-3.42V22.66Zm-13.635 1.665v.9c0 7.47 2.475 8.73 4.5 8.73h.18c4.545 0 7.47-5.715 8.64-10.8.225-1.665.315-3.285.315-4.77v-5.13h-3.78c-5.985 0-9.855 4.41-9.855 11.07Zm27.233 9.9c-6.48 0-9.18-4.68-9.045-10.89.135-6.3 4.725-10.35 9.945-10.35 4.23 0 7.02 1.98 7.02 5.265 0 2.43-2.34 4.41-5.085 5.13-4.545 1.125-10.395 2.43-9.45 6.21 1.17 2.745 2.745 4.41 6.615 4.41 4.41 0 7.11-3.6 6.3-6.21-.45-1.35 1.665-1.755 1.71-.09.135 3.285-3.825 6.525-8.01 6.525Zm6.255-16.155c0-2.7-1.395-4.86-5.58-4.86-4.635 0-7.74 3.555-8.01 9.72-.045 1.845.09 3.825.45 5.58.315-3.42 5.445-4.23 9.45-5.355 2.295-.675 3.69-2.475 3.69-5.085Z" fill="#331E26"/><path d="m13.031 1.33.021-.199h-.002l-.019.199Zm.135 1.755.053-.193-.053.193ZM.836 33.8c.028 0 .06.015.08.04.017.02.019.038.019.047 0 .01-.002.028-.019.048a.107.107 0 0 1-.08.04v-.4a.294.294 0 0 0-.232.11.324.324 0 0 0-.07.203c0 .065.02.14.07.202.054.067.136.11.232.11v-.4Zm0 .175h1.845v-.4H.836v.4Zm1.845 0c.12 0 .254-.03.359-.125a.507.507 0 0 0 .156-.39h-.4c0 .071-.02.09-.024.093-.007.007-.031.022-.09.022v.4Zm.515-.515V14.065h-.4V33.46h.4Zm0-19.395c0-.132-.025-.277-.132-.383-.106-.107-.25-.132-.383-.132v.4c.093 0 .106.02.1.014-.005-.005.015.008.015.101h.4Zm-.515-.515H.431v.4h2.25v-.4Zm-2.25 0H.41c-.004 0 0-.001.011.003a.121.121 0 0 1 .052.042c.02.027.023.053.023.065h-.4a.278.278 0 0 0 .176.264c.07.028.143.026.16.026v-.4Zm.065.11a.077.077 0 0 1-.01.036.06.06 0 0 1-.014.019.032.032 0 0 1-.01.005.086.086 0 0 1-.03.005v-.4a.346.346 0 0 0-.21.078.327.327 0 0 0-.126.257h.4Zm-.065.065h2.25v-.4H.431v.4Zm2.25 0a.53.53 0 0 0 .359-.124.507.507 0 0 0 .156-.391h-.4c0 .071-.02.09-.024.093-.007.007-.031.022-.09.022v.4Zm.515-.515v-1.44h-.4v1.44h.4Zm0-1.44c0-3.384.957-6.086 2.65-7.867 1.69-1.777 4.135-2.661 7.166-2.374l.038-.398c-3.134-.298-5.707.618-7.493 2.497-1.783 1.875-2.76 4.686-2.76 8.142h.4ZM13.01 1.529c.62.065.998.226 1.205.4.2.167.24.343.207.488-.069.311-.535.657-1.203.475l-.105.386c.816.223 1.565-.174 1.699-.774.069-.31-.043-.632-.341-.882-.291-.244-.758-.421-1.42-.49l-.042.397Zm.208 1.363c-2.06-.555-3.648-.697-4.87-.482-1.233.217-2.089.797-2.672 1.666-.577.86-.877 1.988-1.036 3.288-.16 1.302-.179 2.798-.179 4.406h.4c0-1.61.02-3.083.176-4.358.156-1.276.446-2.33.971-3.113.52-.774 1.278-1.296 2.409-1.495 1.14-.201 2.663-.074 4.697.474l.104-.386ZM4.461 11.77v1.44h.4v-1.44h-.4Zm0 1.44c0 .132.025.277.132.383.106.107.25.132.383.132v-.4c-.093 0-.106-.02-.1-.014.005.005-.015-.008-.015-.101h-.4Zm.515.515h3.15v-.4h-3.15v.4Zm3.15 0c.002 0-.015 0-.035-.019a.095.095 0 0 1 0-.137c.02-.019.037-.019.035-.019v.4a.343.343 0 0 0 .238-.09.306.306 0 0 0 0-.446.343.343 0 0 0-.238-.089v.4Zm0-.175h-3.15v.4h3.15v-.4Zm-3.15 0c-.132 0-.277.025-.383.132-.107.106-.132.25-.132.383h.4c0-.093.02-.106.015-.1-.006.005.007-.015.1-.015v-.4Zm-.515.515V33.46h.4V14.065h-.4Zm0 19.395c0 .132.025.277.132.383.106.107.25.132.383.132v-.4c-.093 0-.106-.02-.1-.015.005.006-.015-.007-.015-.1h-.4Zm.515.515h1.845v-.4H4.976v.4Zm1.845 0a.107.107 0 0 1-.08-.04.076.076 0 0 1-.019-.047c0-.01.003-.028.019-.048a.107.107 0 0 1 .08-.04v.4a.293.293 0 0 0 .232-.11.324.324 0 0 0 .07-.203c0-.065-.02-.14-.07-.202a.293.293 0 0 0-.232-.11v.4Zm0-.175H.836v.4h5.985v-.4Zm16.665-11.185h.2l-.398-.027.198.027Zm-4.05.18-.062-.19.062.19Zm4.05-2.79h.2l-.393-.053.193.053Zm-3.825 2.97.067.188h.001l-.068-.188Zm3.627-.387c-.402 2.923-1.416 5.793-2.946 7.926-1.528 2.132-3.556 3.511-5.991 3.511v.4c2.605 0 4.74-1.479 6.316-3.678 1.576-2.198 2.609-5.133 3.017-8.105l-.396-.054ZM14.35 34.025c-1.627 0-2.879-.472-3.722-1.262S9.33 30.848 9.33 29.5h-.4c0 1.442.49 2.679 1.424 3.555.934.874 2.293 1.37 3.996 1.37v-.4ZM9.33 29.5c0-1.151.322-2.02.87-2.707.552-.692 1.345-1.212 2.308-1.644.964-.432 2.084-.77 3.282-1.1 1.193-.331 2.464-.657 3.707-1.064l-.124-.38c-1.232.403-2.487.724-3.69 1.058-1.198.332-2.345.675-3.339 1.12-.994.446-1.85 1-2.456 1.76-.61.764-.958 1.724-.958 2.957h.4Zm10.167-6.515c1.884-.613 2.958-1.317 3.552-2.199.593-.88.68-1.903.68-3.076h-.4c0 1.167-.091 2.08-.612 2.853-.52.772-1.493 1.44-3.344 2.042l.124.38Zm4.233-5.275c0-1.101-.375-2.278-1.237-3.181-.864-.906-2.203-1.519-4.093-1.519v.4c1.8 0 3.026.58 3.804 1.395.78.818 1.126 1.891 1.126 2.905h.4Zm-5.33-4.7c-3.646 0-5.78 2.366-5.78 4.79h.4c0-2.166 1.916-4.39 5.38-4.39v-.4Zm-5.78 4.79c0 .323.086.652.164.945.08.306.15.571.15.81h.4c0-.301-.087-.621-.163-.912-.08-.303-.151-.58-.151-.843h-.4Zm.315 1.755c0 .474-.36.79-.745.79v.4c.605 0 1.145-.495 1.145-1.19h-.4Zm-.745.79a.654.654 0 0 1-.571-.311c-.154-.23-.264-.611-.264-1.199h-.4c0 .627.115 1.1.332 1.422.224.332.546.488.903.488v-.4Zm-.835-1.51c0-3.05 2.977-5.65 7.045-5.65v-.4c-4.212 0-7.445 2.71-7.445 6.05h.4Zm7.045-5.65c2.306 0 3.943.599 5 1.504 1.054.904 1.55 2.13 1.55 3.426h.4c0-1.403-.54-2.743-1.69-3.73-1.148-.984-2.887-1.6-5.26-1.6v.4Zm6.55 4.93v14.04h.4v-14.04h-.4Zm0 14.04c0 .929.596 1.82 1.64 1.82v-.4c-.756 0-1.24-.639-1.24-1.42h-.4Zm1.64 1.82c.843 0 1.55-.687 1.55-1.73h-.4c0 .847-.553 1.33-1.15 1.33v.4Zm1.55-1.73c0-.013.003-.001-.012.019a.123.123 0 0 1-.098.046v-.4c-.205 0-.29.192-.29.335h.4Zm-.11.065c.014 0-.012.003-.04-.025-.029-.028-.025-.054-.025-.04h.4a.34.34 0 0 0-.092-.243.336.336 0 0 0-.243-.092v.4Zm-.065-.065c0 .623-.215 1.033-.552 1.293-.346.267-.847.397-1.453.397v.4c.654 0 1.255-.14 1.697-.48.45-.348.708-.883.708-1.61h-.4Zm-2.005 1.69c-.715 0-1.275-.25-1.66-.7-.387-.455-.615-1.135-.615-2.025h-.4c0 .955.244 1.737.712 2.284.47.551 1.148.841 1.963.841v-.4Zm-2.275-2.725v-8.595h-.4v8.595h.4Zm-9.02 2.81c2.942 0 5.2-2.09 6.712-4.852 1.513-2.765 2.308-6.252 2.308-9.163h-.4c0 2.85-.78 6.27-2.26 8.972-1.48 2.706-3.632 4.643-6.36 4.643v.4Zm8.627-14.068c-.332 1.202-1.232 1.938-3.7 2.835l.136.376c2.482-.903 3.562-1.697 3.95-3.105l-.386-.106Zm-3.699 2.834c-.848.302-1.804.552-2.782.837-.972.284-1.959.602-2.842 1.034-.883.433-1.672.987-2.24 1.748-.571.766-.91 1.728-.91 2.96h.4c0-1.153.315-2.03.83-2.72.518-.694 1.247-1.212 2.096-1.628.85-.417 1.81-.727 2.778-1.01.963-.28 1.942-.537 2.804-.844l-.134-.377Zm-8.773 6.579v.405h.4v-.405h-.4Zm0 .405c0 1.185.349 2.247 1.01 3.016.665.772 1.632 1.234 2.835 1.234v-.4c-1.093 0-1.947-.416-2.532-1.095-.587-.682-.913-1.645-.913-2.755h-.4Zm32.462-1.98.19-.062-.002-.005-.188.067Zm1.71-.09-.2.016.2-.016Zm-.09-9.135.2.02-.2-.02Zm-1.8-.045.188.07-.188-.07Zm-5.265-5.51h-.315v.4h.315v-.4Zm-.315 0c-2.167 0-4.16.809-5.609 2.518-1.445 1.705-2.33 4.288-2.33 7.807h.4c0-3.456.868-5.936 2.235-7.549 1.365-1.61 3.241-2.376 5.304-2.376v-.4Zm-7.94 10.325v.495h.4v-.495h-.4Zm0 .495c0 3.005.45 5.606 1.658 7.461 1.218 1.871 3.188 2.954 6.147 2.954v-.4c-2.846 0-4.679-1.032-5.812-2.772-1.143-1.757-1.593-4.263-1.593-7.243h-.4Zm7.805 10.415c4.654 0 6.99-3.753 6.085-6.517l-.38.124c.805 2.456-1.269 5.993-5.705 5.993v.4Zm6.084-6.522c-.094-.262-.055-.467.038-.611a.653.653 0 0 1 .442-.284.64.64 0 0 1 .525.14c.152.128.286.36.317.748l.399-.032c-.037-.468-.207-.81-.458-1.021a1.04 1.04 0 0 0-.85-.229c-.284.048-.55.21-.712.462-.165.258-.21.593-.078.961l.377-.134Zm1.322-.007c.128 1.561-.684 3.135-2.058 4.327a8.206 8.206 0 0 1-5.303 1.982v.4c2.12 0 4.124-.83 5.565-2.08 1.439-1.248 2.336-2.937 2.194-4.661l-.398.032Zm-7.36 6.309c-3.236 0-5.55-1.106-7.058-2.915-1.514-1.815-2.238-4.363-2.238-7.28h-.4c0 2.978.739 5.627 2.33 7.536 1.597 1.915 4.03 3.059 7.365 3.059v-.4ZM28.137 23.83v-.495h-.4v.495h.4Zm0-.495c0-6.72 4.896-10.15 9.385-10.15v-.4c-4.69 0-9.785 3.59-9.785 10.55h.4Zm9.385-10.15h.315v-.4h-.315v.4Zm.315 0c2.127 0 3.926.565 5.148 1.516 1.217.947 1.868 2.277 1.718 3.845l.398.038c.165-1.717-.556-3.177-1.87-4.199-1.31-1.018-3.201-1.6-5.394-1.6v.4Zm6.866 5.36c-.041.411-.186.655-.349.789a.677.677 0 0 1-.554.142.704.704 0 0 1-.465-.294c-.097-.146-.137-.346-.045-.592l-.375-.14c-.134.362-.084.696.086.953.167.252.44.416.73.467.294.051.616-.012.878-.228s.443-.568.492-1.057l-.398-.04Zm-1.413.044c.496-1.346.273-2.752-.662-3.818-.932-1.062-2.547-1.761-4.79-1.761v.4c2.165 0 3.655.674 4.49 1.625.831.948 1.035 2.198.586 3.416l.376.138Zm2.876 4.746.2.004-.2-.004Zm11.88.045.048.194h.002l-.05-.194Zm-9.45 6.21-.194.049.003.015.007.014.184-.078Zm12.915-1.8.19-.06v-.003l-.19.063Zm1.71-.09-.2.005v.003l.2-.008Zm-15.345-4.77-.2-.009v.004l.2.005Zm.45 5.58-.196.04.395-.022-.2-.018Zm9.45-5.355.054.193.002-.001-.056-.192Zm-2.565 10.87c-3.187 0-5.419-1.148-6.844-3.037-1.431-1.897-2.068-4.57-2.001-7.649l-.4-.008c-.068 3.13.577 5.903 2.082 7.898 1.511 2.004 3.87 3.196 7.163 3.196v-.4Zm-8.845-10.686c.132-6.193 4.636-10.154 9.745-10.154v-.4c-5.331 0-10.008 4.14-10.145 10.546l.4.008Zm9.745-10.154c2.086 0 3.795.489 4.977 1.361 1.175.869 1.843 2.125 1.843 3.704h.4c0-1.706-.728-3.082-2.005-4.025-1.271-.939-3.072-1.44-5.215-1.44v.4Zm6.82 5.065c0 1.147-.552 2.2-1.452 3.062-.9.862-2.14 1.522-3.484 1.874l.101.387c1.4-.367 2.704-1.057 3.66-1.972.956-.916 1.575-2.068 1.575-3.351h-.4Zm-4.933 4.936c-2.264.56-4.888 1.173-6.824 2.124-.97.476-1.787 1.046-2.302 1.756-.52.719-.721 1.57-.47 2.573l.388-.098c-.222-.886-.046-1.616.406-2.24.46-.634 1.21-1.169 2.154-1.632 1.889-.928 4.462-1.53 6.744-2.095l-.096-.388Zm-9.586 6.482c.59 1.387 1.294 2.527 2.36 3.317 1.067.792 2.474 1.215 4.439 1.215v-.4c-1.906 0-3.222-.41-4.201-1.136-.983-.729-1.651-1.794-2.23-3.152l-.368.156Zm6.799 4.532c2.26 0 4.092-.924 5.255-2.191 1.158-1.263 1.667-2.887 1.236-4.278l-.382.118c.378 1.219-.058 2.7-1.15 3.89-1.086 1.184-2.81 2.061-4.96 2.061v.4Zm6.49-6.473c-.096-.287-.05-.5.047-.643a.646.646 0 0 1 .458-.271.668.668 0 0 1 .532.159c.149.13.273.36.283.733l.4-.01c-.013-.46-.17-.804-.417-1.023a1.068 1.068 0 0 0-.85-.256c-.29.037-.567.19-.738.445-.175.26-.225.604-.095.992l.38-.126Zm1.32-.019c.064 1.559-.845 3.135-2.312 4.331-1.463 1.194-3.456 1.986-5.498 1.986v.4c2.142 0 4.222-.828 5.751-2.076 1.526-1.244 2.53-2.93 2.459-4.657l-.4.016Zm-1.355-9.638c0-1.382-.358-2.656-1.28-3.584-.921-.927-2.375-1.476-4.5-1.476v.4c2.06 0 3.395.531 4.217 1.358.822.828 1.163 1.984 1.163 3.302h.4Zm-5.78-5.06c-2.374 0-4.366.912-5.796 2.62-1.425 1.702-2.278 4.18-2.414 7.291l.4.018c.133-3.053.968-5.436 2.321-7.053 1.35-1.611 3.227-2.476 5.489-2.476v-.4Zm-8.21 9.915c-.046 1.857.09 3.852.454 5.625l.392-.08c-.357-1.737-.491-3.702-.446-5.535l-.4-.01Zm.849 5.603c.146-1.592 1.411-2.607 3.22-3.372 1.807-.764 4.063-1.24 6.085-1.808l-.109-.386c-1.982.558-4.294 1.049-6.132 1.826-1.837.776-3.294 1.876-3.463 3.704l.399.036Zm9.307-5.181c1.184-.348 2.145-.99 2.81-1.89.665-.9 1.024-2.046 1.024-3.387h-.4c0 1.269-.339 2.328-.946 3.15-.606.82-1.49 1.416-2.6 1.743l.112.384Zm21.611-8.697-.113.165.29-.26-.177.095Zm.405.27-.17.105.02.031.029.023.121-.159ZM67.654 27.925l.118-.162-.065-.047-.08.01.027.199Zm-1.35 7.875.06.191.608-.19-.607-.192-.06.191Zm1.125-8.01.026.198.476-.063-.38-.293-.122.158Zm-.45 8.235.043-.195-.047-.01-.047.012.051.193Zm6.615-22.84c2.172 0 4.2.576 5.737 1.63l.226-.33c-1.613-1.106-3.724-1.7-5.963-1.7v.4Zm6.026 1.37a3.44 3.44 0 0 1-.426-1.66h-.4c0 .617.143 1.235.474 1.85l.352-.19Zm-.426-1.66c0-2.13 2.016-3.985 4.12-3.985v-.4c-2.306 0-4.52 2.015-4.52 4.385h.4Zm4.12-3.985c.564 0 .923.11 1.135.257a.62.62 0 0 1 .285.533h.4c0-.333-.142-.643-.457-.862-.305-.212-.757-.328-1.363-.328v.4Zm1.42.79c0 .34-.27.655-.7.655v.4c.65 0 1.1-.495 1.1-1.055h-.4Zm-.7.655c-.198 0-.422-.05-.676-.107-.241-.055-.512-.118-.764-.118v.4c.198 0 .423.05.676.107.242.056.512.118.764.118v-.4Zm-1.44-.225c-1.876 0-3.485 1.318-3.485 2.945h.4c0-1.343 1.361-2.545 3.085-2.545v-.4Zm-3.485 2.945c0 .623.19 1.334.57 1.95l.34-.21a3.425 3.425 0 0 1-.51-1.74h-.4Zm.619 2.004c1.66 1.267 2.756 3.189 2.756 5.826h.4c0-2.763-1.154-4.802-2.913-6.144l-.243.318Zm2.756 5.826v.405h.4v-.405h-.4Zm0 .405c0 2.249-.77 4.264-2.263 5.718-1.491 1.453-3.721 2.362-6.672 2.362v.4c3.034 0 5.372-.936 6.952-2.476 1.579-1.538 2.383-3.663 2.383-6.004h-.4Zm-8.935 8.08c-2.443 0-4.334-.577-5.777-1.627l-.236.324c1.527 1.11 3.506 1.703 6.013 1.703v-.4Zm-5.922-1.663c-2.091.285-3.188 1.956-3.188 3.618h.4c0-1.488.974-2.967 2.842-3.222l-.054-.396Zm-3.188 3.618c0 .857.31 1.72.946 2.368.639.65 1.592 1.072 2.854 1.072v-.4c-1.168 0-2.014-.388-2.568-.953a2.966 2.966 0 0 1-.832-2.087h-.4Zm3.8 3.44h10.215v-.4H68.24v.4Zm10.215 0c3.254 0 5.155 2.42 5.155 5.065h.4c0-2.844-2.058-5.465-5.555-5.465v.4Zm5.155 5.065c0 1.539-.66 3.148-2.1 4.376-1.442 1.228-3.676 2.084-6.835 2.084v.4c3.23 0 5.564-.876 7.094-2.18 1.53-1.303 2.241-3.024 2.241-4.68h-.4Zm-8.935 6.46H72.47v.4h2.205v-.4Zm-2.205 0c-3.391 0-5.718-.781-7.191-1.9-1.47-1.116-2.104-2.577-2.104-3.975h-.4c0 1.527.694 3.104 2.262 4.294 1.564 1.187 3.985 1.981 7.433 1.981v-.4Zm-9.295-5.875c0-1.99 1.255-3.842 3.19-4.444l-.12-.382c-2.114.658-3.47 2.675-3.47 4.826h.4Zm3.19-4.826c-1.755-.556-2.56-1.959-2.56-3.409h-.4c0 1.61.905 3.177 2.84 3.79l.12-.38Zm-2.56-3.409c0-1.938 1.379-3.912 3.651-4.212l-.052-.396c-2.497.33-3.999 2.496-3.999 4.608h.4Zm3.747-4.568c-1.923-1.486-2.892-3.763-2.892-6.322h-.4c0 2.661 1.011 5.064 3.048 6.638l.244-.316ZM64.66 21.31v-.405h-.4v.405h.4Zm0-.405c0-4.846 4.188-7.72 8.935-7.72v-.4c-4.883 0-9.335 2.976-9.335 8.12h.4Zm8.935-7.895c-1.902 0-3.788.527-5.201 1.789-1.418 1.266-2.334 3.248-2.334 6.106h.4c0-2.767.884-4.632 2.2-5.808 1.32-1.179 3.102-1.687 4.935-1.687v-.4Zm-7.535 7.895v.405h.4v-.405h-.4Zm0 .405c0 2.344.535 4.42 1.75 5.914 1.22 1.501 3.104 2.386 5.74 2.386v-.4c-2.54 0-4.3-.848-5.43-2.238-1.137-1.397-1.66-3.371-1.66-5.662h-.4Zm7.49 8.3c2.636 0 4.531-.885 5.763-2.385 1.226-1.494 1.772-3.57 1.772-5.915h-.4c0 2.29-.534 4.264-1.681 5.661-1.142 1.391-2.915 2.239-5.454 2.239v.4Zm7.535-8.3v-.405h-.4v.405h.4Zm0-.405c0-2.856-.892-4.839-2.293-6.105-1.397-1.263-3.273-1.79-5.197-1.79v.4c1.856 0 3.625.508 4.928 1.687 1.3 1.174 2.162 3.039 2.162 5.808h.4Zm-12.8 15.055a5.62 5.62 0 0 1-1.262-.13l-.086.39c.42.094.84.14 1.348.14v-.4Zm-1.356-.128c-.828.219-1.518.822-1.999 1.614-.48.792-.76 1.784-.76 2.809h.4c0-.955.26-1.875.702-2.602.442-.727 1.057-1.249 1.76-1.435l-.103-.386Zm-2.759 4.423c0 1.457.44 3.023 1.717 4.224 1.275 1.2 3.357 2.006 6.583 2.006v-.4c-3.164 0-5.132-.79-6.31-1.898-1.175-1.105-1.59-2.554-1.59-3.932h-.4Zm8.3 6.23h2.205v-.4H72.47v.4Zm2.205 0c2.958 0 5.065-.751 6.438-1.867 1.373-1.118 1.997-2.592 1.997-4.003h-.4c0 1.29-.569 2.65-1.85 3.692-1.283 1.044-3.293 1.778-6.185 1.778v.4Zm8.435-5.87c0-2.344-1.739-4.655-4.655-4.655v.4c2.664 0 4.255 2.1 4.255 4.255h.4Zm-4.655-4.655h-10.17v.4h10.17v-.4Zm8.237-22.21v-.2h-.2v.2h.2Zm-3.805-.09c0-.013.004-.001-.012.019a.123.123 0 0 1-.098.046v-.4c-.205 0-.29.192-.29.335h.4Zm-.11.065h4.59v-.4h-4.59v.4Zm4.59 0a.086.086 0 0 1-.03-.005.031.031 0 0 1-.01-.005.06.06 0 0 1-.015-.019.078.078 0 0 1-.01-.036h.4a.346.346 0 0 0-.335-.335v.4Zm-.065-.065a.15.15 0 0 1 .034-.098l.013-.012a.03.03 0 0 1-.005.002c-.003.002.005-.002.023-.002v.4a.382.382 0 0 0 .272-.126.251.251 0 0 0 .063-.164h-.4Zm.065-.11h-.675v.4h.675v-.4Zm-.875.2v18.405h.4V13.75h-.4Zm0 18.405c0 .591.142 1.054.437 1.369.297.317.717.451 1.203.451v-.4c-.414 0-.713-.113-.911-.325-.2-.214-.329-.561-.329-1.095h-.4Zm1.64 1.82c.843 0 1.55-.687 1.55-1.73h-.4c0 .847-.552 1.33-1.15 1.33v.4Zm1.55-1.73c0-.002 0 .016-.019.036a.094.094 0 0 1-.137 0c-.019-.02-.019-.038-.019-.036h.4a.343.343 0 0 0-.089-.238.306.306 0 0 0-.446 0 .343.343 0 0 0-.09.238h.4Zm-.175 0c0 .624-.215 1.046-.555 1.318-.346.277-.847.417-1.45.417v.4c.658 0 1.259-.152 1.7-.505.448-.359.705-.904.705-1.63h-.4Zm-2.005 1.735c-.712 0-1.272-.26-1.657-.721-.39-.466-.618-1.159-.618-2.049h-.4c0 .955.245 1.747.71 2.305.47.562 1.147.865 1.965.865v-.4Zm-2.275-2.77V14.92h-.4v16.29h.4Zm0-16.29c0-.345-.086-.681-.267-.937a.993.993 0 0 0-.833-.433v.4c.222 0 .389.099.507.265.122.171.193.42.193.705h.4Zm-1.1-1.37h-1.35v.4h1.35v-.4Zm-1.35 0a.11.11 0 0 1 .08.03.11.11 0 0 1 .03.08h-.4a.29.29 0 0 0 .087.203.29.29 0 0 0 .203.087v-.4Zm2.09-8.62c0-.286.104-.514.27-.67.166-.158.407-.255.7-.255v-.4a1.4 1.4 0 0 0-.975.364 1.294 1.294 0 0 0-.395.961h.4Zm.97-.925c.292 0 .52.096.674.25.155.155.251.383.251.675h.4c0-.383-.128-.718-.368-.957-.24-.24-.574-.368-.957-.368v.4Zm.925.925a1 1 0 0 1-.254.7.896.896 0 0 1-.67.27v.4c.388 0 .723-.144.96-.394a1.4 1.4 0 0 0 .364-.976h-.4Zm-.925.97c-.564 0-.97-.405-.97-.97h-.4c0 .785.585 1.37 1.37 1.37v-.4Zm19.652 16.4h.2l-.397-.035.197.035Zm-13.14-8.55v-.2h-.2v.2h.2Zm12.645 9.36.196.043.001-.01-.197-.033Zm1.96-9.135v18.18h.4v-18.18h-.4Zm0 18.18c0 .464.134.915.403 1.255.273.344.679.565 1.192.565v-.4c-.387 0-.678-.162-.878-.414-.203-.256-.317-.615-.317-1.006h-.4Zm1.595 1.82c.843 0 1.55-.687 1.55-1.73h-.4c0 .847-.552 1.33-1.15 1.33v.4Zm1.55-1.73c0-.014.004.012-.025.04-.028.028-.054.025-.04.025v-.4a.334.334 0 0 0-.242.092.333.333 0 0 0-.093.243h.4Zm-.065.065a.076.076 0 0 1-.031-.005.048.048 0 0 1-.024-.024.079.079 0 0 1-.01-.036h.4a.33.33 0 0 0-.125-.257.35.35 0 0 0-.21-.078v.4Zm-.065-.065c0 .62-.224 1.03-.572 1.291-.358.268-.872.399-1.478.399v.4c.654 0 1.265-.14 1.718-.479.461-.346.732-.881.732-1.611h-.4Zm-2.05 1.69c-.714 0-1.262-.25-1.635-.699-.377-.453-.595-1.133-.595-2.026h-.4c0 .952.232 1.735.688 2.282.459.553 1.127.843 1.942.843v-.4Zm-2.23-2.725V22.3h-.4v8.91h.4Zm-.397-8.945c-.537 3.02-1.542 5.973-3.001 8.165-1.459 2.191-3.352 3.595-5.667 3.595v.4c2.5 0 4.5-1.521 6-3.773 1.499-2.253 2.519-5.263 3.062-8.317l-.394-.07Zm-8.668 11.76c-1.525 0-2.953-.354-3.999-1.32-1.042-.962-1.74-2.565-1.74-5.14h-.4c0 2.645.718 4.372 1.87 5.434 1.147 1.06 2.69 1.426 4.27 1.426v-.4Zm-5.74-6.46v-12.69h-.4v12.69h.4Zm0-12.69c0-.345-.086-.673-.27-.919a1.003 1.003 0 0 0-.83-.406v.4c.229 0 .395.094.51.246.119.16.19.395.19.679h.4Zm-1.1-1.325h-1.35v.4h1.35v-.4Zm-1.35 0c-.002 0 .016 0 .036.019a.094.094 0 0 1 0 .137c-.02.019-.038.019-.036.019v-.4a.343.343 0 0 0-.238.09.306.306 0 0 0 0 .446c.065.06.15.089.238.089v-.4Zm0 .175h5.265v-.4h-5.265v.4Zm5.265 0c.002 0-.015 0-.035-.019a.095.095 0 0 1 0-.137c.02-.019.037-.019.035-.019v.4a.344.344 0 0 0 .238-.09.306.306 0 0 0 0-.446.344.344 0 0 0-.238-.089v.4Zm0-.175h-1.35v.4h1.35v-.4Zm-1.55.2V27.7h.4V13.75h-.4Zm0 13.95c0 2.853.576 4.473 1.482 5.373.91.904 2.107 1.037 3.218 1.037v-.4c-1.094 0-2.146-.137-2.936-.92-.792-.788-1.364-2.273-1.364-5.09h-.4Zm4.7 6.41c2.21 0 3.995-1.377 5.369-3.412 1.375-2.037 2.361-4.764 2.972-7.545l-.391-.086c-.605 2.754-1.576 5.427-2.912 7.407-1.338 1.98-3.017 3.236-5.038 3.236v.4Zm8.342-10.966c.362-2.124.498-2.9.498-5.974h-.4c0 3.046-.133 3.8-.492 5.906l.394.068Zm.498-5.974v-3.195h-.4v3.195h.4Zm0-3.195c0-.134.03-.183.049-.202.018-.018.067-.048.201-.048v-.4c-.18 0-.357.038-.484.166-.128.127-.166.303-.166.484h.4Zm.25-.25h.765v-.4h-.765v.4Zm.765 0c.135 0 .183.03.202.048.019.019.048.068.048.202h.4c0-.18-.038-.357-.165-.484-.128-.128-.304-.166-.485-.166v.4Zm18.626 8.935h.2l-.396-.04.196.04Zm0-9.585v.2h.2v-.2h-.2Zm1.665-11.385v-.2h-.2v.2h.2Zm-1.98 21.465.195.045.002-.01.001-.008-.198-.027Zm.315-9.9h.2v-.2h-.2v.2Zm-.196 9.365c-.536 2.615-1.563 5.468-3.047 7.662-1.485 2.198-3.401 3.698-5.712 3.698v.4c2.504 0 4.525-1.627 6.044-3.874 1.52-2.25 2.563-5.156 3.107-7.806l-.392-.08Zm-8.759 11.36c-1.49 0-3.027-.448-4.194-1.734-1.17-1.29-1.996-3.45-1.996-6.931h-.4c0 3.539.839 5.81 2.099 7.2 1.263 1.39 2.921 1.865 4.491 1.865v-.4Zm-6.19-8.665v-.945h-.4v.945h.4Zm0-.945c0-7.164 5.384-11.14 11.095-11.14v-.4c-5.899 0-11.495 4.124-11.495 11.54h.4Zm11.095-11.14c.673 0 1.335.011 2.005.022a113 113 0 0 0 2.045.023v-.4c-.696 0-1.369-.011-2.039-.023-.669-.01-1.334-.022-2.011-.022v.4Zm4.25-.155V2.815h-.4v10.26h.4Zm0-10.26c0-.345-.086-.673-.271-.919a1.002 1.002 0 0 0-.829-.406v.4c.229 0 .395.094.509.246.12.16.191.394.191.679h.4Zm-1.1-1.325h-2.34v.4h2.34v-.4Zm-2.34 0c-.002 0 .016 0 .036.019a.094.094 0 0 1 .029.069c0 .025-.01.05-.029.068-.02.019-.038.019-.036.019v-.4a.343.343 0 0 0-.238.09.306.306 0 0 0 0 .446c.065.06.15.089.238.089v-.4Zm0 .175h5.58v-.4h-5.58v.4Zm5.58 0c.002 0-.016 0-.036-.019a.094.094 0 0 1-.029-.069c0-.025.01-.05.029-.068.02-.019.038-.019.036-.019v.4a.343.343 0 0 0 .238-.09.306.306 0 0 0 0-.446.343.343 0 0 0-.238-.089v.4Zm0-.175h-.675v.4h.675v-.4Zm-.875.2v30.465h.4V1.69h-.4Zm0 30.465c0 .546.13 1.004.408 1.328.282.33.691.492 1.187.492v-.4c-.404 0-.692-.13-.883-.352-.195-.227-.312-.58-.312-1.068h-.4Zm1.595 1.82c.843 0 1.55-.687 1.55-1.73h-.4c0 .847-.553 1.33-1.15 1.33v.4Zm1.55-1.73c0-.014.003.012-.025.04s-.054.025-.04.025v-.4a.337.337 0 0 0-.243.092.336.336 0 0 0-.092.243h.4Zm-.065.065a.076.076 0 0 1-.031-.005.056.056 0 0 1-.01-.005.077.077 0 0 1-.015-.019.077.077 0 0 1-.009-.036h.4a.345.345 0 0 0-.335-.335v.4Zm-.065-.065c0 .606-.196 1.018-.509 1.282-.317.268-.782.408-1.361.408v.4c.636 0 1.206-.153 1.62-.503.419-.355.65-.888.65-1.587h-.4Zm-1.87 1.69c-.884 0-1.472-.343-1.848-.897-.385-.566-.562-1.375-.562-2.323h-.4c0 .987.183 1.888.631 2.548.456.672 1.173 1.072 2.179 1.072v-.4Zm-2.41-3.22V22.66h-.4v8.055h.4Zm-14.035-6.39v.9h.4v-.9h-.4Zm0 .9c0 3.75.62 5.982 1.527 7.28.918 1.316 2.112 1.65 3.173 1.65v-.4c-.964 0-2.02-.296-2.845-1.478-.837-1.199-1.455-3.332-1.455-7.052h-.4Zm4.7 8.93h.18v-.4h-.18v.4Zm.18 0c2.366 0 4.286-1.489 5.749-3.578 1.465-2.092 2.497-4.819 3.086-7.377l-.39-.09c-.581 2.527-1.597 5.2-3.023 7.237-1.428 2.04-3.243 3.408-5.422 3.408v.4Zm8.838-10.973c.227-1.675.317-3.304.317-4.797h-.4c0 1.477-.09 3.088-.313 4.743l.396.054Zm.317-4.797v-5.13h-.4v5.13h.4Zm-.2-5.33h-3.78v.4h3.78v-.4Zm-3.78 0c-3.045 0-5.565 1.123-7.322 3.105-1.754 1.979-2.733 4.797-2.733 8.165h.4c0-3.292.956-6.009 2.633-7.9 1.674-1.888 4.082-2.97 7.022-2.97v-.4Zm8.333 10.28.2.004-.2-.004Zm11.88.045.049.194h.002l-.051-.194Zm-9.45 6.21-.194.049.004.015.006.014.184-.078Zm12.915-1.8.192-.06-.002-.003-.19.063Zm1.71-.09-.2.005.001.003.199-.008Zm-15.345-4.77-.199-.009v.004l.199.005Zm.45 5.58-.195.04.395-.022-.2-.018Zm9.45-5.355.055.193.002-.001-.057-.192Zm-2.565 10.87c-3.186 0-5.418-1.148-6.843-3.037-1.431-1.897-2.069-4.57-2.002-7.649l-.4-.008c-.068 3.13.578 5.903 2.083 7.898 1.511 2.004 3.869 3.196 7.162 3.196v-.4Zm-8.845-10.686c.133-6.193 4.636-10.154 9.745-10.154v-.4c-5.331 0-10.007 4.14-10.145 10.546l.4.008Zm9.745-10.154c2.087 0 3.796.489 4.978 1.361 1.175.869 1.842 2.125 1.842 3.704h.4c0-1.706-.727-3.082-2.004-4.025-1.271-.939-3.072-1.44-5.216-1.44v.4Zm6.82 5.065c0 1.147-.551 2.2-1.451 3.062-.9.862-2.14 1.522-3.484 1.874l.101.387c1.401-.367 2.704-1.057 3.66-1.972.956-.916 1.574-2.068 1.574-3.351h-.4Zm-4.933 4.936c-2.263.56-4.887 1.173-6.823 2.124-.97.476-1.788 1.046-2.302 1.756-.521.719-.721 1.57-.471 2.573l.388-.098c-.221-.886-.045-1.616.407-2.24.459-.634 1.211-1.169 2.154-1.632 1.888-.928 4.462-1.53 6.744-2.095l-.097-.388Zm-9.586 6.482c.591 1.387 1.295 2.527 2.36 3.317 1.068.792 2.475 1.215 4.439 1.215v-.4c-1.905 0-3.221-.41-4.2-1.136-.983-.729-1.652-1.794-2.231-3.152l-.368.156Zm6.799 4.532c2.261 0 4.092-.924 5.255-2.191 1.159-1.263 1.668-2.887 1.236-4.278l-.382.118c.379 1.219-.057 2.7-1.148 3.89-1.088 1.184-2.812 2.061-4.961 2.061v.4Zm6.49-6.473c-.095-.287-.049-.5.047-.643a.65.65 0 0 1 .458-.271.668.668 0 0 1 .533.159c.149.13.272.36.283.733l.399-.01c-.012-.46-.169-.804-.416-1.023a1.07 1.07 0 0 0-.85-.256 1.05 1.05 0 0 0-.739.445c-.174.26-.224.604-.094.992l.379-.126Zm1.321-.019c.064 1.559-.845 3.135-2.312 4.331-1.463 1.194-3.456 1.986-5.499 1.986v.4c2.143 0 4.223-.828 5.752-2.076 1.526-1.244 2.529-2.93 2.458-4.657l-.399.016Zm-1.356-9.638c0-1.382-.357-2.656-1.278-3.584-.922-.927-2.376-1.476-4.502-1.476v.4c2.06 0 3.396.531 4.218 1.358.822.828 1.162 1.984 1.162 3.302h.4Zm-5.78-5.06c-2.373 0-4.365.912-5.795 2.62-1.425 1.702-2.278 4.18-2.414 7.291l.399.018c.134-3.053.969-5.436 2.322-7.053 1.349-1.611 3.227-2.476 5.488-2.476v-.4Zm-8.209 9.915c-.046 1.857.09 3.852.454 5.625l.391-.08c-.356-1.737-.49-3.702-.446-5.535l-.399-.01Zm.849 5.603c.146-1.592 1.411-2.607 3.22-3.372 1.807-.764 4.063-1.24 6.085-1.808l-.109-.386c-1.983.558-4.294 1.049-6.132 1.826-1.837.776-3.294 1.876-3.463 3.704l.399.036Zm9.307-5.181c1.184-.348 2.145-.99 2.81-1.89.665-.9 1.023-2.046 1.023-3.387h-.4c0 1.269-.338 2.328-.945 3.15-.606.82-1.49 1.416-2.601 1.743l.113.384Z" fill="#331E26" mask="url(#b)"/><path d="M27.57 57.37c0-.666.177-1.266.53-1.8a3.65 3.65 0 0 1 1.467-1.25c.619-.307 1.305-.46 2.061-.46.907 0 1.702.225 2.386.675.69.45 1.188 1.09 1.493 1.917l-1.224.018a1.99 1.99 0 0 0-.639-.864 3.17 3.17 0 0 0-.998-.54 3.062 3.062 0 0 0-1.009-.189c-.468 0-.927.1-1.377.297-.444.192-.81.477-1.098.855-.281.378-.422.825-.422 1.341 0 .528.132.978.396 1.35a2.48 2.48 0 0 0 1.053.846 3.61 3.61 0 0 0 1.448.288c.306 0 .627-.057.963-.17.337-.12.651-.298.945-.532a2.62 2.62 0 0 0 .703-.855h1.269c-.337.84-.844 1.48-1.522 1.917-.671.438-1.46.657-2.366.657-.75 0-1.438-.153-2.062-.459a3.718 3.718 0 0 1-1.466-1.26 3.155 3.155 0 0 1-.531-1.782Zm15.532-3.483c.763 0 1.447.153 2.053.46a3.47 3.47 0 0 1 1.43 1.25c.349.528.523 1.125.523 1.791 0 .66-.174 1.254-.522 1.782a3.568 3.568 0 0 1-1.422 1.251c-.607.3-1.29.45-2.053.45-.737 0-1.415-.15-2.033-.45a3.746 3.746 0 0 1-1.468-1.25 3.118 3.118 0 0 1-.54-1.783c0-.66.18-1.257.54-1.79.36-.535.846-.952 1.459-1.252a4.52 4.52 0 0 1 2.033-.459Zm0 5.967c.487 0 .946-.096 1.378-.288.431-.192.78-.474 1.044-.846s.395-.816.395-1.332c0-.504-.134-.945-.404-1.323a2.525 2.525 0 0 0-1.053-.864 3.327 3.327 0 0 0-1.387-.297c-.528 0-1.008.1-1.44.297a2.362 2.362 0 0 0-1.008.864c-.245.372-.369.813-.369 1.323 0 .522.13.97.387 1.341.264.372.612.654 1.044.846.432.186.904.28 1.413.28Zm11.556-2.988c.773 0 1.422.036 1.944.108.528.066.966.225 1.314.477.348.252.522.633.522 1.143 0 .906-.394 1.518-1.18 1.836-.78.312-1.662.468-2.646.468-.534 0-1.095-.06-1.683-.18a3.715 3.715 0 0 1-1.575-.702c-.462-.36-.693-.867-.693-1.52l1.233-.037c0 .42.166.732.495.936.336.204.703.33 1.098.378.396.048.816.072 1.26.072.684 0 1.27-.093 1.755-.279.492-.186.741-.498.747-.936v-.009c0-.294-.24-.48-.72-.558-.48-.084-1.068-.126-1.764-.126h-.233c-.876-.006-1.578-.045-2.106-.117-.523-.072-.949-.24-1.279-.504-.323-.264-.486-.672-.486-1.224 0-.93.411-1.539 1.233-1.827.828-.288 1.735-.432 2.718-.432.51 0 1.05.06 1.62.18.57.114 1.08.351 1.53.711.45.354.675.858.675 1.512h-1.232c0-.426-.25-.747-.747-.963-.492-.222-1.096-.348-1.81-.378-.78 0-1.443.096-1.989.288-.54.186-.81.48-.81.882 0 .336.253.555.757.657.503.096 1.106.144 1.808.144h.243Zm15.968-2.835v6.66h-1.17v-4.743l-2.313 4.743h-1.269l-2.483-4.824v4.824h-1.17v-6.66h1.494l2.78 5.391 2.629-5.39h1.502Zm9.862 3.69h-4.734v1.971l5.49-.036v1.035h-6.66v-6.66h6.66l.009 1.035h-5.5v1.62h4.735v1.035Zm4.452-2.682v-1.008h7.39l-7.39 1.008Zm7.39-1.008v1.035h-3.088v5.625h-1.17v-5.625H84.94v-1.035h7.39Zm4.996 6.66h-1.17v-6.66h1.17v6.66Zm3.779-3.32c0-.667.177-1.267.531-1.8a3.65 3.65 0 0 1 1.467-1.252c.618-.306 1.305-.459 2.061-.459.906 0 1.701.225 2.385.675.69.45 1.188 1.09 1.494 1.917l-1.224.018a1.99 1.99 0 0 0-.639-.864c-.3-.24-.633-.42-.999-.54a3.062 3.062 0 0 0-1.008-.189c-.468 0-.927.1-1.377.297-.444.192-.81.477-1.098.855-.282.378-.423.825-.423 1.341 0 .528.132.978.396 1.35.264.372.615.654 1.053.846.444.192.927.288 1.449.288.306 0 .627-.057.963-.17a3.29 3.29 0 0 0 .945-.532 2.62 2.62 0 0 0 .702-.855h1.269c-.336.84-.843 1.48-1.521 1.917-.672.438-1.461.657-2.367.657-.75 0-1.437-.153-2.061-.459a3.718 3.718 0 0 1-1.467-1.26 3.155 3.155 0 0 1-.531-1.782Zm15.542-.505c.774 0 1.422.036 1.944.108.528.066.966.225 1.314.477.348.252.522.633.522 1.143 0 .906-.393 1.518-1.179 1.836-.78.312-1.662.468-2.646.468-.534 0-1.095-.06-1.683-.18a3.715 3.715 0 0 1-1.575-.702c-.462-.36-.693-.867-.693-1.52l1.233-.037c0 .42.165.732.495.936.336.204.702.33 1.098.378.396.048.816.072 1.26.072.684 0 1.269-.093 1.755-.279.492-.186.741-.498.747-.936v-.009c0-.294-.24-.48-.72-.558-.48-.084-1.068-.126-1.764-.126h-.234c-.876-.006-1.578-.045-2.106-.117-.522-.072-.948-.24-1.278-.504-.324-.264-.486-.672-.486-1.224 0-.93.411-1.539 1.233-1.827.828-.288 1.734-.432 2.718-.432.51 0 1.05.06 1.62.18.57.114 1.08.351 1.53.711.45.354.675.858.675 1.512h-1.233c0-.426-.249-.747-.747-.963-.492-.222-1.095-.348-1.809-.378-.78 0-1.443.096-1.989.288-.54.186-.81.48-.81.882 0 .336.252.555.756.657.504.096 1.107.144 1.809.144h.243Z" fill="#331E26"/></g><defs><clipPath id="a"><path fill="#fff" d="M0 0h148v62H0z"/></clipPath></defs></svg>