<svg width="283" height="50" fill="none" xmlns="http://www.w3.org/2000/svg"><path fill-rule="evenodd" clip-rule="evenodd" d="M283 30.952h-4.108v-12.49h-11.83v12.49h-4.108V4.07h4.108v10.681h11.83V4.071H283v26.881Zm-19.8 6.04c3.577 0 6.492 2.925 6.492 6.504 0 3.578-2.915 6.504-6.492 6.504-3.576 0-6.492-2.926-6.492-6.504 0-3.579 2.916-6.505 6.492-6.505Zm0 2.806c1.75 0 3.188 1.65 3.188 3.684 0 2.035-1.425 3.685-3.188 3.685-1.762 0-3.187-1.663-3.187-3.685 0-2.021 1.425-3.684 3.187-3.684Zm-35.543-2.873c1.024 0 2.099.319 2.993.798v3.71c-.868-.97-1.918-1.516-2.838-1.529-1.866-.026-3.161 1.61-3.161 3.565 0 1.955 1.153 3.591 3.161 3.565 1.089 0 2.164-.745 2.838-1.543v3.698a6.44 6.44 0 0 1-2.993.718c-3.551.28-6.362-2.727-6.324-6.504 0-3.725 2.838-6.718 6.324-6.505v.027Zm9.083 12.782v-9.523h-2.708V37.23h8.747v2.953h-2.708v9.523h-3.331Zm16.081-4.575c-.674.266-1.412.399-2.164.452-.648.053-1.322.066-1.905-.013v4.136h-3.135V37.231h4.327c1.335 0 2.916.212 3.81 1.33.622.771.959 1.875.985 2.98.039 1.542-.57 3.059-1.931 3.604l.013-.013Zm-4.069-2.288c.389 0 .713.026 1.05 0 .907-.04 1.671-.386 1.71-1.437.039-1.09-.738-1.41-1.632-1.503-.363-.04-.739-.026-1.115-.026v2.953l-.013.013Zm23.195 6.85V37.217h3.304v7.928l4.432-7.928H283v12.477h-3.317v-7.409l-4.432 7.409h-3.304Zm8.759-15.869c-.414 3.273-6.155 3.26-6.569 0h6.569ZM113.381 0l15.057 22 6.142-8.978 12.233 17.864H92.247l4.147-6.052 3.848-5.613a58.32 58.32 0 0 0-13.113-5.574V39.36H217.42l-4.418 4.336h-57.43l4.095 5.972H79.406l4.082-5.972H19.23c-1.063 1.969-2.035 3.937-2.89 6.199H8.41c.609-2.195 1.4-4.283 2.216-6.199H0V39.36h12.712C22.987 20.125 44.135 6.89 68.482 6.89c12.427 0 24.024 3.458 33.769 9.39L113.394 0h-.013ZM84.667 13.009a56.988 56.988 0 0 0-13.204-1.543 58.25 58.25 0 0 0-7.01.425V39.36h20.2V13.01h.014Zm-22.65-.758c-7.36 1.237-14.293 3.897-20.513 7.688v19.42h20.512V12.25Zm-22.962 9.27c-6.842 4.656-12.738 10.735-17.299 17.838h17.299V21.522Zm135.332 9.405h-4.561l-2.773-6.358h-11.066l-2.773 6.358h-4.561l12.854-28.24 12.88 28.24Zm-8.902-10.003-3.991-9.218-3.913 9.218h7.904Zm15.29 3.485v6.518h-4.107V4.044h7.684c2.669 0 5.105 1.157 6.867 3.006 1.75 1.849 2.825 4.376 2.838 7.17 0 2.792-1.088 5.333-2.838 7.182-1.762 1.849-4.185 3.006-6.854 3.006h-3.59Zm0-4.203v.04h3.538c1.555 0 2.967-.679 3.991-1.756 1.036-1.09 1.671-2.594 1.671-4.257a6.157 6.157 0 0 0-1.671-4.256c-1.024-1.077-2.436-1.756-3.991-1.756h-3.538v11.985Zm36.516 10.72h-5.417l-10.612-13.26v13.26h-4.108V4.045h4.108v11.904l10.444-11.904h5.222l-11.585 12.663 11.948 14.219Zm16.573-23.17h-6.272v23.17h-4.069V7.756h-6.297V4.044h16.638v3.71Zm26.654 9.723c0 3.857-1.361 7.156-4.082 9.923-2.708 2.753-5.986 4.137-9.822 4.137-3.835 0-7.101-1.37-9.809-4.124-2.721-2.753-4.082-6.065-4.082-9.936 0-3.87 1.348-7.156 4.069-9.91 2.721-2.753 5.987-4.136 9.822-4.136 3.836 0 7.088 1.37 9.822 4.123 2.721 2.754 4.082 6.066 4.082 9.923Zm-4.133 0c0-2.82-.946-5.227-2.825-7.17-1.879-1.955-4.199-2.926-6.946-2.926s-5.027.971-6.906 2.927c-1.879 1.942-2.812 4.35-2.812 7.17 0 2.819.933 5.213 2.799 7.155 1.866 1.929 4.172 2.9 6.919 2.9s5.054-.971 6.946-2.9c1.879-1.928 2.825-4.323 2.825-7.156Z" fill="#661A21"/></svg>