<svg width="252" height="44" fill="none" xmlns="http://www.w3.org/2000/svg"><path fill-rule="evenodd" clip-rule="evenodd" d="M252 27.238h-3.658V16.247h-10.534v10.991h-3.658V3.582h3.658v9.4h10.534v-9.4H252v23.656Zm-17.631 5.314c3.185 0 5.781 2.575 5.781 5.724S237.554 44 234.369 44c-3.184 0-5.781-2.575-5.781-5.724s2.597-5.724 5.781-5.724Zm0 2.47c1.558 0 2.839 1.452 2.839 3.242 0 1.791-1.27 3.243-2.839 3.243s-2.838-1.463-2.838-3.243c0-1.779 1.269-3.242 2.838-3.242Zm-31.65-2.528c.912 0 1.869.28 2.666.702v3.266c-.773-.855-1.708-1.335-2.527-1.346-1.662-.024-2.816 1.416-2.816 3.137 0 1.72 1.027 3.16 2.816 3.137.969 0 1.927-.656 2.527-1.358v3.254a5.79 5.79 0 0 1-2.666.632c-3.161.246-5.665-2.4-5.631-5.724 0-3.277 2.527-5.911 5.631-5.724v.024Zm8.089 11.248v-8.38h-2.412v-2.599h7.789v2.599h-2.412v8.38h-2.965Zm14.319-4.026c-.6.234-1.258.351-1.927.398-.577.047-1.177.058-1.696-.012v3.64h-2.792V32.764h3.853c1.189 0 2.597.187 3.393 1.17.554.68.854 1.65.877 2.623.034 1.357-.508 2.692-1.72 3.172l.012-.012Zm-3.623-2.013c.346 0 .634.023.934 0 .808-.036 1.489-.34 1.524-1.265.034-.96-.658-1.24-1.454-1.322-.323-.035-.658-.024-.993-.024v2.599l-.011.012Zm20.654 6.028V32.75h2.942v6.977l3.946-6.977H252v10.98h-2.954v-6.52l-3.946 6.52h-2.942Zm7.8-13.965c-.37 2.88-5.481 2.868-5.85 0h5.85ZM100.962 0l13.407 19.36 5.469-7.9 10.893 15.72H82.142l3.693-5.326 3.427-4.94a52.26 52.26 0 0 0-11.677-4.904v22.626h116.019l-3.935 3.816h-51.138l3.646 5.255h-71.47l3.635-5.255H17.123c-.946 1.732-1.812 3.465-2.573 5.454H7.488c.543-1.931 1.247-3.769 1.974-5.454H0v-3.816h11.32C20.47 17.71 39.3 6.063 60.98 6.063c11.066 0 21.393 3.044 30.07 8.264L100.973 0h-.011Zm-25.57 11.448a51.32 51.32 0 0 0-11.757-1.358c-2.112 0-4.189.129-6.243.374v24.172h17.989V11.448h.011Zm-20.169-.668c-6.554 1.09-12.727 3.43-18.265 6.766v17.09h18.265V10.78Zm-20.446 8.16c-6.092 4.096-11.342 9.445-15.404 15.696h15.404V18.939Zm120.508 8.275h-4.062l-2.469-5.595H138.9l-2.469 5.595h-4.062l11.446-24.85 11.47 24.85Zm-7.927-8.803-3.554-8.111-3.485 8.111h7.039Zm13.615 3.067v5.736h-3.658V3.558h6.843c2.377 0 4.546 1.019 6.115 2.646a9.15 9.15 0 0 1 2.527 6.309 9.126 9.126 0 0 1-2.527 6.32c-1.569 1.628-3.727 2.646-6.104 2.646h-3.196Zm0-3.699v.035h3.15c1.385 0 2.642-.597 3.554-1.545a5.382 5.382 0 0 0 1.488-3.745 5.382 5.382 0 0 0-1.488-3.746c-.912-.948-2.169-1.545-3.554-1.545h-3.15V17.78Zm32.515 9.435h-4.823l-9.45-11.67v11.67h-3.657V3.558h3.657v10.477l9.3-10.477h4.65L182.85 14.702l10.638 12.513Zm14.758-20.39h-5.584v20.39h-3.624V6.825h-5.607V3.557h14.815v3.266Zm23.735 8.556c0 3.394-1.212 6.297-3.635 8.732-2.411 2.423-5.331 3.64-8.746 3.64s-6.323-1.206-8.735-3.628c-2.423-2.424-3.634-5.338-3.634-8.744 0-3.406 1.2-6.298 3.623-8.72 2.423-2.424 5.331-3.641 8.746-3.641s6.312 1.206 8.746 3.629c2.423 2.423 3.635 5.337 3.635 8.732Zm-3.681 0c0-2.482-.842-4.6-2.515-6.31-1.673-1.72-3.739-2.575-6.185-2.575-2.446 0-4.477.855-6.15 2.576-1.673 1.709-2.504 3.827-2.504 6.309 0 2.481.831 4.588 2.492 6.297 1.662 1.697 3.716 2.552 6.162 2.552 2.446 0 4.5-.855 6.185-2.552 1.673-1.697 2.515-3.804 2.515-6.297Z" fill="#fff"/></svg>