<svg width="334" height="156" fill="none" xmlns="http://www.w3.org/2000/svg"><g filter="url(#a)"><rect x="18" y="18" width="286" height="76" rx="24" fill="#661A21" shape-rendering="crispEdges"/><path fill-rule="evenodd" clip-rule="evenodd" d="M245 59.571h-2.438v-7.494h-7.024v7.494H233.1V43.442h2.438v6.409h7.024v-6.409H245v16.13Zm-11.754 3.624c2.123 0 3.854 1.756 3.854 3.902 0 2.147-1.731 3.903-3.854 3.903s-3.854-1.756-3.854-3.903c0-2.146 1.731-3.902 3.854-3.902Zm0 1.684c1.039 0 1.892.99 1.892 2.21 0 1.222-.846 2.211-1.892 2.211-1.046 0-1.892-.998-1.892-2.21 0-1.214.846-2.211 1.892-2.211Zm-21.1-1.724c.608 0 1.246.191 1.777.479v2.226c-.515-.582-1.138-.91-1.685-.918-1.107-.015-1.876.966-1.876 2.14 0 1.173.684 2.154 1.876 2.138.647 0 1.285-.447 1.685-.925v2.218a3.788 3.788 0 0 1-1.777.431c-2.108.168-3.777-1.636-3.754-3.903 0-2.234 1.685-4.03 3.754-3.902v.016Zm5.392 7.67V65.11h-1.607v-1.772h5.192v1.772h-1.608v5.714h-1.977Zm9.547-2.746c-.4.16-.839.24-1.285.271-.385.032-.785.04-1.131-.008v2.482h-1.861v-7.486h2.569c.792 0 1.731.128 2.261.798.37.463.57 1.126.585 1.788.023.926-.338 1.836-1.146 2.163l.008-.008Zm-2.416-1.373c.231 0 .423.016.623 0 .539-.024.993-.231 1.016-.862.023-.654-.439-.846-.97-.901-.215-.024-.438-.016-.661-.016v1.771l-.008.008Zm13.769 4.11V63.33h1.962v4.757l2.631-4.757H245v7.486h-1.969v-4.445l-2.631 4.445h-1.962Zm5.2-9.52c-.246 1.963-3.653 1.955-3.9 0h3.9ZM144.308 41l8.938 13.2 3.646-5.387 7.262 10.718h-32.392l2.461-3.63 2.285-3.369a34.427 34.427 0 0 0-7.785-3.344v15.427h77.346l-2.623 2.602h-34.092l2.431 3.584h-47.647l2.424-3.584H88.415c-.63 1.181-1.207 2.362-1.715 3.72h-4.708c.362-1.318.831-2.57 1.316-3.72H77v-2.602h7.546c6.1-11.54 18.654-19.48 33.108-19.48 7.377 0 14.261 2.074 20.046 5.634L144.315 41h-.007Zm-17.046 7.805a33.498 33.498 0 0 0-7.839-.925c-1.408 0-2.792.087-4.161.255v16.48h11.992v-15.81h.008Zm-13.447-.455c-4.369.743-8.484 2.339-12.177 4.613v11.652h12.177V48.35Zm-13.63 5.563c-4.062 2.793-7.562 6.44-10.27 10.702h10.27V53.913Zm80.338 5.643h-2.708l-1.646-3.815H169.6l-1.646 3.815h-2.708l7.631-16.944 7.646 16.944Zm-5.285-6.002-2.369-5.53-2.323 5.53h4.692Zm9.077 2.09v3.912h-2.438v-16.13h4.561c1.585 0 3.031.694 4.077 1.804a6.314 6.314 0 0 1 1.685 4.302c0 1.676-.646 3.2-1.685 4.31-1.046 1.108-2.484 1.803-4.069 1.803h-2.131Zm0-2.521v.024h2.1c.923 0 1.762-.407 2.37-1.054a3.716 3.716 0 0 0 .992-2.554c0-.997-.377-1.899-.992-2.553-.608-.647-1.447-1.054-2.37-1.054h-2.1v7.19Zm21.677 6.433h-3.215l-6.3-7.957v7.957h-2.439v-16.13h2.439v7.143l6.2-7.143h3.1l-6.877 7.598 7.092 8.532Zm9.839-13.903h-3.723v13.903h-2.416V45.653h-3.738v-2.227h9.877v2.227Zm15.823 5.834c0 2.314-.808 4.294-2.423 5.953-1.608 1.653-3.554 2.483-5.831 2.483-2.277 0-4.215-.822-5.823-2.474-1.615-1.652-2.423-3.64-2.423-5.962 0-2.323.8-4.294 2.415-5.946 1.616-1.652 3.554-2.482 5.831-2.482 2.277 0 4.208.822 5.831 2.474 1.615 1.652 2.423 3.64 2.423 5.954Zm-2.454 0c0-1.692-.562-3.137-1.677-4.302-1.115-1.173-2.492-1.756-4.123-1.756-1.631 0-2.985.583-4.1 1.756-1.115 1.165-1.669 2.61-1.669 4.302 0 1.692.554 3.128 1.661 4.294 1.108 1.157 2.477 1.74 4.108 1.74 1.631 0 3-.583 4.123-1.74 1.115-1.158 1.677-2.594 1.677-4.294Z" fill="#fff"/><path d="M164.124 124.196c-1.389 2.405-4.859 2.405-6.248 0l-22.387-38.784c-1.389-2.406.347-5.412 3.123-5.412h44.776c2.776 0 4.512 3.007 3.123 5.412l-22.387 38.784Z" fill="#661A21"/></g><defs><filter id="a" x="0" y="0" width="334" height="156" filterUnits="userSpaceOnUse" color-interpolation-filters="sRGB"><feFlood flood-opacity="0" result="BackgroundImageFix"/><feColorMatrix in="SourceAlpha" values="0 0 0 0 0 0 0 0 0 0 0 0 0 0 0 0 0 0 127 0" result="hardAlpha"/><feOffset dx="6" dy="6"/><feGaussianBlur stdDeviation="12"/><feComposite in2="hardAlpha" operator="out"/><feColorMatrix values="0 0 0 0 0.454167 0 0 0 0 0.454167 0 0 0 0 0.454167 0 0 0 0.25 0"/><feBlend in2="BackgroundImageFix" result="effect1_dropShadow_30_1865"/><feBlend in="SourceGraphic" in2="effect1_dropShadow_30_1865" result="shape"/></filter></defs></svg>