<svg width="30" height="30" fill="none" xmlns="http://www.w3.org/2000/svg"><mask id="a" fill="#fff"><path d="M14.375 27.188c-7.063 0-12.813-5.75-12.813-12.813 0-7.063 5.75-12.813 12.813-12.813 7.063 0 12.813 5.75 12.813 12.813 0 7.063-5.75 12.813-12.813 12.813Zm0-23.75c-6.037 0-10.938 4.912-10.938 10.937 0 6.025 4.9 10.938 10.938 10.938S25.313 20.4 25.313 14.374s-4.9-10.938-10.938-10.938Z"/></mask><path d="M14.375 27.188c-7.063 0-12.813-5.75-12.813-12.813 0-7.063 5.75-12.813 12.813-12.813 7.063 0 12.813 5.75 12.813 12.813 0 7.063-5.75 12.813-12.813 12.813Zm0-23.75c-6.037 0-10.938 4.912-10.938 10.937 0 6.025 4.9 10.938 10.938 10.938S25.313 20.4 25.313 14.374s-4.9-10.938-10.938-10.938Z" fill="#fff"/><path d="M14.375 25.188c-5.958 0-10.813-4.855-10.813-10.813h-4c0 8.167 6.646 14.813 14.813 14.813v-4ZM3.562 14.374c0-5.958 4.855-10.813 10.813-10.813v-4C6.208-.438-.438 6.208-.438 14.376h4ZM14.376 3.562c5.958 0 10.813 4.855 10.813 10.813h4c0-8.167-6.646-14.813-14.813-14.813v4Zm10.813 10.813c0 5.958-4.855 10.813-10.813 10.813v4c8.167 0 14.813-6.646 14.813-14.813h-4ZM14.374 1.437c-7.144 0-12.938 5.81-12.938 12.938h4c0-4.922 4.007-8.938 8.938-8.938v-4ZM1.437 14.376c0 7.128 5.794 12.938 12.938 12.938v-4c-4.931 0-8.938-4.016-8.938-8.938h-4Zm12.938 12.938c7.144 0 12.938-5.81 12.938-12.938h-4c0 4.922-4.007 8.938-8.938 8.938v4Zm12.938-12.938c0-7.128-5.794-12.938-12.938-12.938v4c4.931 0 8.938 4.016 8.938 8.938h4Z" fill="#fff" mask="url(#a)"/><path d="M27.5 28.438a.927.927 0 0 1-.663-.275l-2.5-2.5a.943.943 0 0 1 0-1.326.943.943 0 0 1 1.325 0l2.5 2.5a.943.943 0 0 1 0 1.326.927.927 0 0 1-.662.274Z" fill="#fff"/></svg>